<svg xmlns="http://www.w3.org/2000/svg" width="50" height="50" fill="#000" viewBox="0 0 50 50"><path d="M 8 4 C 7.449219 4 7 4.449219 7 5 L 7 42 C 7 42.550781 7.449219 43 8 43 L 32 43 L 32 41 L 9 41 L 9 6 L 37 6 L 37 28 L 39 28 L 39 5 C 39 4.449219 38.550781 4 38 4 Z M 21 9 C 20.449219 9 20 9.449219 20 10 L 20 18.527344 C 19.535156 18.773438 19.0625 18.957031 18.492188 19.621094 C 17.683594 20.554688 17 22.011719 17 24 L 17 35.996094 C 17 36.574219 17.105469 37.199219 17.613281 37.613281 C 18.121094 38.03125 18.621094 38 19 38 L 27 38 C 28.09375 38 29 37.09375 29 36 L 29 24 C 29 22.039063 28.3125 20.589844 27.511719 19.648438 C 26.945313 18.984375 26.46875 18.789063 26 18.535156 L 26 10 C 26 9.449219 25.550781 9 25 9 Z M 22 11 L 24 11 L 24 19 C 24 19.410156 24.25 19.777344 24.628906 19.925781 C 24.832031 20.007813 25.457031 20.324219 25.988281 20.945313 C 26.519531 21.566406 27 22.488281 27 24 L 27 36 L 19 36 C 19 35.996094 19 36 19 35.996094 L 19 24 C 19 22.449219 19.480469 21.535156 20.007813 20.925781 C 20.535156 20.316406 21.140625 20.019531 21.371094 19.925781 C 21.75 19.777344 22 19.410156 22 19 Z M 38 29 C 37.222656 29 36.59375 29.445313 36.128906 30.050781 C 35.433594 29.898438 34.695313 29.9375 34.082031 30.4375 C 33.464844 30.9375 33.304688 31.6875 33.332031 32.414063 C 32.683594 32.773438 32.15625 33.3125 32.03125 34.078125 C 31.90625 34.84375 32.222656 35.515625 32.703125 36.0625 C 32.417969 36.773438 32.386719 37.558594 32.753906 38.183594 C 32.753906 38.183594 32.753906 38.183594 32.753906 38.1875 C 32.824219 38.300781 32.914063 38.394531 33 38.492188 L 33 47 C 33 47.378906 33.214844 47.726563 33.550781 47.894531 C 33.890625 48.0625 34.296875 48.027344 34.597656 47.800781 L 38 45.25 L 41.402344 47.800781 C 41.703125 48.027344 42.109375 48.0625 42.449219 47.894531 C 42.785156 47.726563 43 47.378906 43 47 L 43 38.496094 C 43.085938 38.398438 43.175781 38.300781 43.246094 38.1875 C 43.675781 37.457031 43.59375 36.714844 43.3125 36.046875 C 43.78125 35.507813 44.09375 34.839844 43.96875 34.078125 C 43.839844 33.316406 43.316406 32.773438 42.667969 32.414063 C 42.699219 31.6875 42.535156 30.9375 41.917969 30.4375 C 41.304688 29.9375 40.566406 29.898438 39.871094 30.050781 C 39.417969 29.464844 38.792969 29 38 29 Z M 39.59375 30.109375 C 39.589844 30.109375 39.617188 30.117188 39.613281 30.117188 C 39.566406 30.132813 39.519531 30.136719 39.46875 30.144531 Z M 40.015625 30.25 C 40.050781 30.277344 40.136719 30.339844 40.109375 30.3125 L 40.09375 30.355469 C 40.070313 30.316406 40.039063 30.289063 40.015625 30.25 Z M 38 31 C 38.3125 31 38.359375 31.0625 38.445313 31.324219 C 38.496094 31.46875 38.578125 31.605469 38.6875 31.714844 C 38.6875 31.714844 38.691406 31.71875 38.691406 31.71875 C 38.75 31.777344 38.816406 31.828125 38.886719 31.871094 C 38.933594 31.914063 38.925781 31.929688 39.042969 31.988281 C 39.308594 32.125 39.542969 32.109375 39.59375 32.109375 C 39.777344 32.109375 39.957031 32.058594 40.113281 31.964844 C 40.257813 31.875 40.515625 31.871094 40.65625 31.988281 C 40.828125 32.125 40.84375 32.191406 40.734375 32.515625 C 40.703125 32.617188 40.6875 32.722656 40.6875 32.828125 C 40.6875 32.941406 40.746094 32.964844 40.785156 33.070313 C 40.804688 33.542969 41.152344 33.9375 41.621094 34.015625 C 41.765625 34.039063 41.964844 34.238281 41.996094 34.40625 C 42.023438 34.589844 41.90625 34.816406 41.765625 34.902344 C 41.464844 35.082031 41.28125 35.410156 41.28125 35.757813 L 41.28125 36.0625 C 41.28125 36.273438 41.351563 36.484375 41.480469 36.65625 C 41.507813 36.699219 41.5625 37.097656 41.523438 37.167969 C 41.433594 37.320313 41.222656 37.425781 41.054688 37.398438 C 40.675781 37.335938 40.292969 37.496094 40.074219 37.808594 C 40.023438 37.84375 40.03125 37.828125 39.980469 37.882813 C 39.792969 38.070313 39.691406 38.324219 39.6875 38.585938 C 39.6875 38.863281 39.6875 38.878906 39.472656 38.953125 C 39.425781 38.96875 39.382813 38.984375 39.339844 39.007813 C 39.335938 39.011719 39.339844 39.007813 39.335938 39.011719 C 39.332031 39.007813 39.355469 39 39.296875 39 C 39.234375 39 39.054688 38.9375 38.910156 38.792969 C 38.722656 38.601563 38.464844 38.492188 38.199219 38.496094 L 37.800781 38.496094 C 37.53125 38.492188 37.277344 38.601563 37.089844 38.792969 C 36.933594 38.949219 36.757813 38.992188 36.5625 38.941406 C 36.4375 38.875 36.308594 38.742188 36.308594 38.585938 C 36.308594 38.398438 36.238281 38.136719 36.113281 37.957031 C 35.992188 37.78125 35.871094 37.699219 35.808594 37.65625 C 35.75 37.617188 35.738281 37.605469 35.746094 37.609375 C 35.519531 37.425781 35.230469 37.347656 34.941406 37.394531 C 34.777344 37.425781 34.566406 37.320313 34.476563 37.167969 C 34.359375 36.964844 34.34375 36.878906 34.5 36.679688 C 34.640625 36.503906 34.714844 36.285156 34.71875 36.0625 L 34.71875 35.757813 C 34.71875 35.410156 34.535156 35.082031 34.234375 34.902344 C 34.09375 34.816406 33.976563 34.589844 34.003906 34.40625 C 34.007813 34.402344 34.007813 34.402344 34.003906 34.402344 C 34.03125 34.234375 34.234375 34.039063 34.378906 34.015625 C 34.847656 33.9375 35.195313 33.542969 35.214844 33.066406 C 35.253906 32.960938 35.3125 32.941406 35.3125 32.828125 C 35.3125 32.722656 35.296875 32.613281 35.265625 32.515625 C 35.15625 32.191406 35.171875 32.125 35.34375 31.988281 C 35.488281 31.871094 35.742188 31.878906 35.886719 31.964844 C 36.214844 32.164063 36.632813 32.15625 36.953125 31.945313 C 37.238281 31.839844 37.457031 31.613281 37.554688 31.324219 C 37.609375 31.15625 37.851563 31 38 31 Z M 33.355469 32.863281 C 33.371094 32.953125 33.335938 33.054688 33.363281 33.140625 L 33.328125 32.898438 Z M 42.648438 32.867188 L 42.671875 32.898438 L 42.636719 33.140625 C 42.664063 33.054688 42.628906 32.957031 42.648438 32.867188 Z M 35 40.183594 C 35.21875 40.464844 35.496094 40.6875 35.828125 40.824219 C 35.847656 40.832031 35.867188 40.839844 35.886719 40.84375 C 36.65625 41.105469 37.390625 40.882813 38 40.496094 L 38.15625 40.496094 C 38.511719 40.710938 38.832031 41 39.296875 41 C 39.476563 41 39.851563 40.9375 40.15625 40.8125 C 40.507813 40.679688 40.785156 40.464844 41 40.199219 L 41 45 L 38.597656 43.199219 C 38.246094 42.933594 37.753906 42.933594 37.402344 43.199219 L 35 45 Z"/></svg>