<svg xmlns="http://www.w3.org/2000/svg" width="50" height="50" fill="#000" viewBox="0 0 50 50"><path d="M 12 2 C 10.906937 2 10 2.9069372 10 4 L 7 4 C 5.3550302 4 4 5.3550302 4 7 L 4 42 C 4 43.644459 5.3544268 45 7 45 L 9 45 L 9 46 C 9 47.093063 9.9069372 48 11 48 L 14 48 C 15.093063 48 16 47.093063 16 46 L 16 45 L 34 45 L 34 46 C 34 47.093063 34.906937 48 36 48 L 39 48 C 40.093063 48 41 47.093063 41 46 L 41 45 L 43 45 C 44.645063 45 46 43.645063 46 42 L 46 7 C 46 5.3544268 44.644459 4 43 4 L 40 4 C 40 2.9069372 39.093063 2 38 2 L 32 2 C 30.906937 2 30 2.9069372 30 4 L 21 4 C 21 2.9069372 20.093063 2 19 2 L 12 2 z M 7 6 L 10.832031 6 A 1.0001 1.0001 0 0 0 11.158203 6 L 19.832031 6 A 1.0001 1.0001 0 0 0 20.158203 6 L 30.832031 6 A 1.0001 1.0001 0 0 0 31.158203 6 L 38.832031 6 A 1.0001 1.0001 0 0 0 39.158203 6 L 43 6 C 43.563541 6 44 6.4355732 44 7 L 44 42 C 44 42.562937 43.562937 43 43 43 L 40.167969 43 A 1.0001 1.0001 0 0 0 39.841797 43 L 35.167969 43 A 1.0001 1.0001 0 0 0 34.841797 43 L 15.167969 43 A 1.0001 1.0001 0 0 0 14.841797 43 L 10.167969 43 A 1.0001 1.0001 0 0 0 9.8417969 43 L 7 43 C 6.4355732 43 6 42.563541 6 42 L 6 7 C 6 6.4349698 6.4349698 6 7 6 z M 10 8 C 8.895 8 8 8.895 8 10 C 8 11.105 8.895 12 10 12 C 11.105 12 12 11.105 12 10 C 12 8.895 11.105 8 10 8 z M 16 8 C 14.895 8 14 8.895 14 10 C 14 11.105 14.895 12 16 12 C 17.105 12 18 11.105 18 10 C 18 8.895 17.105 8 16 8 z M 22 8 C 20.895 8 20 8.895 20 10 C 20 11.105 20.895 12 22 12 C 23.105 12 24 11.105 24 10 C 24 8.895 23.105 8 22 8 z M 28 8 C 26.895 8 26 8.895 26 10 C 26 11.105 26.895 12 28 12 C 29.105 12 30 11.105 30 10 C 30 8.895 29.105 8 28 8 z M 40 8 C 38.895 8 38 8.895 38 10 C 38 11.105 38.895 12 40 12 C 41.105 12 42 11.105 42 10 C 42 8.895 41.105 8 40 8 z M 9 14 L 9 15 L 9 33.832031 A 1.0001 1.0001 0 0 0 9 34.158203 L 9 40 L 41 40 L 41 34.167969 A 1.0001 1.0001 0 0 0 41 33.841797 L 41 14 L 9 14 z M 11 16 L 39 16 L 39 33 L 35.791016 33 C 35.921094 32.660389 36 32.296958 36 31.914062 C 36 27.002683 31.997317 23 27.085938 23 L 22.912109 23 C 18.001606 23 14 27.002683 14 31.914062 C 14 32.296958 14.079025 32.660389 14.208984 33 L 11 33 L 11 16 z M 23 25 L 27 25 L 27 28 A 1.0001 1.0001 0 1 0 29 28 L 29 25.384766 C 31.872379 26.224275 34 28.763082 34 31.914062 C 34 32.525554 33.525069 33 32.912109 33 L 17.085938 33 C 16.474447 33 16 32.525554 16 31.914062 C 16 28.762888 18.127944 26.224105 21 25.384766 L 21 28 A 1.0001 1.0001 0 1 0 23 28 L 23 25 z M 11 35 L 17.085938 35 L 32.912109 35 L 39 35 L 39 38 L 11 38 L 11 35 z M 11 45 L 14 45 L 14 46 L 11 46 L 11 45 z M 36 45 L 39 45 L 39 46 L 36 46 L 36 45 z"/></svg>