<svg xmlns="http://www.w3.org/2000/svg" width="50" height="50" fill="#000" viewBox="0 0 50 50"><path d="M 30.054688 4 C 30.054688 4 28.472211 3.971827 26.921875 4.8945312 C 25.39189 5.8051236 23.930913 7.7839547 24.048828 11.099609 C 21.772029 11.564844 20.044922 13.59102 20.044922 16 C 20.044922 17.136704 20.42713 18.192477 21.074219 19.037109 C 18.645485 20.412001 17 23.015679 17 26 C 17 28.769084 18.416302 31.211794 20.560547 32.648438 C 17.70217 32.309674 14.223061 31.758548 10.919922 31.160156 C 9.7754668 30.204867 9.0449219 28.590831 9.0449219 27 C 9.0449219 24.243 11.228375 22 13.984375 22 C 14.648375 22 15.289719 22.137766 15.886719 22.384766 C 16.152719 21.763766 16.476562 21.172141 16.851562 20.619141 C 15.961562 20.219141 14.989375 20 13.984375 20 C 10.124375 20 7.0449219 23.14 7.0449219 27 C 7.0449219 28.318435 7.4082513 29.549551 8.0351562 30.603516 C 7.0888447 30.416828 6.0726799 30.229094 5.2402344 30.048828 C 4.4405524 29.875711 3.6449256 30.110378 2.9785156 30.681641 C 2.3121056 31.252905 1.8690615 32.2683 2.0429688 33.410156 C 2.7836395 38.285218 6.9868889 41.435392 11.638672 43.347656 C 16.290455 45.259921 21.511357 46.020686 24.970703 46.025391 L 24.972656 46.025391 L 24.986328 46.025391 L 25.001953 46.025391 L 25.003906 46.025391 C 28.46325 46.020691 33.690531 45.259727 38.349609 43.347656 C 43.008688 41.435586 47.220098 38.286322 47.960938 33.410156 L 47.960938 33.408203 C 48.134261 32.260693 47.675675 31.243086 47.001953 30.675781 C 46.328231 30.108477 45.532637 29.875173 44.730469 30.048828 C 44.261088 30.150473 43.66331 30.256964 43.154297 30.361328 C 43.694595 29.362352 44 28.219043 44 27 C 44 23.14 40.86 20 37 20 C 35.707 20 34.480922 20.355281 33.419922 20.988281 C 33.771922 21.556281 34.070547 22.157062 34.310547 22.789062 C 35.097547 22.285063 36.021 22 37 22 C 39.757 22 42 24.243 42 27 C 42 28.628273 41.231119 30.069015 40.03125 30.982422 C 36.460841 31.647547 32.591546 32.27061 29.447266 32.644531 C 31.587463 31.207239 33 28.765974 33 26 C 33 23.039503 31.379266 20.455658 28.982422 19.072266 C 29.646759 18.223269 30.044922 17.155571 30.044922 16 C 30.044922 13.591786 28.318694 11.567641 26.042969 11.101562 C 25.916512 8.2941296 26.924966 7.2205549 27.945312 6.6132812 C 28.969477 6.0037356 30.035156 6 30.035156 6 A 1.0001 1.0001 0 1 0 30.054688 4 z M 25.044922 13 C 26.714952 13 28.044922 14.32997 28.044922 16 C 28.044922 16.925447 27.629713 17.717027 26.988281 18.259766 C 26.351204 18.095876 25.687489 18 25 18 C 24.337722 18 23.697884 18.089741 23.082031 18.242188 C 22.45362 17.697077 22.044922 16.907329 22.044922 16 C 22.044922 14.32997 23.374892 13 25.044922 13 z M 25 20 C 27.782458 20 30.052418 21.789183 30.763672 24.308594 C 30.711842 24.451202 30.656701 24.564616 30.609375 24.740234 C 30.409035 25.463905 30.212622 25.846506 30.136719 25.935547 C 30.060405 26.025056 30.155206 26 29.875 26 C 29.497845 26 29.624557 26.014554 29.609375 25.996094 C 29.594195 25.977634 29.423664 25.623044 29.261719 24.884766 L 29.259766 24.878906 L 29.257812 24.873047 C 29.095008 24.176594 28.859454 23.477695 28.318359 22.908203 C 27.777265 22.338712 26.954282 22.019934 26.027344 22 C 24.846843 21.97428 23.851786 22.636424 23.412109 23.455078 C 22.972432 24.273732 22.884414 25.145744 22.783203 25.945312 L 22.783203 25.947266 C 22.65185 27.012643 22.484368 27.678941 22.373047 27.890625 C 22.261725 28.102309 22.446371 28 22.134766 28 C 21.994488 28 22.000273 27.984416 21.992188 27.978516 C 21.984088 27.972616 21.932348 27.930916 21.859375 27.759766 C 21.713564 27.417759 21.572456 26.632466 21.449219 25.558594 L 21.449219 25.556641 C 21.324554 24.449391 21.248858 23.056599 20.578125 21.908203 C 21.665675 20.729965 23.227225 20 25 20 z M 25.982422 24 L 25.984375 24 C 26.545436 24.01207 26.714735 24.122648 26.869141 24.285156 C 27.023546 24.447665 27.183444 24.784652 27.310547 25.328125 L 27.308594 25.314453 C 27.486649 26.126175 27.617135 26.72159 28.064453 27.265625 C 28.511771 27.809658 29.262155 28 29.875 28 C 30.145829 28 30.438132 27.943099 30.720703 27.84375 C 29.962468 30.283094 27.726402 32 25 32 C 21.627 32 19 29.373 19 26 C 19 25.417303 19.083368 24.85855 19.230469 24.330078 C 19.323275 24.790622 19.40425 25.278152 19.460938 25.78125 L 19.460938 25.783203 C 19.587625 26.887915 19.687967 27.767222 20.019531 28.544922 C 20.185313 28.933772 20.432149 29.315907 20.8125 29.59375 C 21.192851 29.871546 21.675043 30 22.134766 30 C 22.903161 30 23.773353 29.528082 24.144531 28.822266 C 24.515188 28.117442 24.629196 27.317395 24.767578 26.195312 L 24.767578 26.191406 C 24.866298 25.412995 24.996373 24.730801 25.173828 24.400391 C 25.351651 24.069288 25.372922 23.98672 25.982422 24 z M 4.8164062 32.003906 C 11.014777 33.346164 20.638286 34.995739 24.984375 35 L 24.986328 35 C 29.331481 34.9957 38.955904 33.346169 45.154297 32.003906 C 45.165127 32.001606 45.513316 32.037336 45.714844 32.207031 C 45.916371 32.376727 46.065001 32.562932 45.982422 33.109375 C 45.39326 36.987209 41.928766 39.715414 37.589844 41.496094 C 33.251638 43.276479 28.160726 44.020851 25.001953 44.025391 L 25 44.025391 L 24.986328 44.025391 L 24.972656 44.025391 C 21.813998 44.021095 16.729654 43.276579 12.398438 41.496094 C 8.0672198 39.715608 4.6108135 36.988313 4.0214844 33.109375 C 3.9373916 32.557231 4.0859569 32.366908 4.2792969 32.201172 C 4.4720191 32.035965 4.8011115 32.00127 4.8164062 32.003906 z M 7.9550781 34.990234 A 1.0001 1.0001 0 0 0 7.3164062 36.730469 C 7.3164062 36.730469 8.4380957 37.752577 10.771484 38.740234 C 13.104873 39.727892 16.726649 40.752449 21.953125 40.998047 A 1.0001 1.0001 0 1 0 22.046875 39.001953 C 17.037351 38.766551 13.658392 37.790529 11.550781 36.898438 C 9.4431705 36.006345 8.6835938 35.269531 8.6835938 35.269531 A 1.0001 1.0001 0 0 0 7.9550781 34.990234 z"/></svg>