<svg xmlns="http://www.w3.org/2000/svg" width="50" height="50" fill="#000" viewBox="0 0 50 50"><path d="M 5.953125 4.9902344 C 5.4188965 4.9902344 4.6834555 5.1665188 4.0507812 5.7890625 C 3.5049907 6.3261138 3.1759529 7.2149171 3.0800781 8.328125 C 2.6272591 8.0664283 2.1667249 7.7917249 1.7070312 7.3320312 A 1.0012743 1.0012743 0 1 0 0.29101562 8.7480469 C 1.2368899 9.6939212 2.263418 10.238437 3.2949219 10.589844 C 3.7577828 13.006861 4.9694501 14.668685 5.7460938 15.53125 C 4.0325262 18.29293 3 21.773414 3 26 C 3 30.677741 4.2458206 34.696012 5.5976562 37.777344 C 6.9494919 40.858675 8.4577489 43.128637 8.8125 43.871094 C 9.144897 44.565924 9.8577537 45 10.613281 45 L 12.507812 45 C 13.314025 45 13.997881 44.329322 14.007812 43.519531 L 14.007812 43.517578 C 14.011212 43.257692 14.013972 43.210092 14.013672 43.111328 C 14.013533 43.068098 14.00537 42.983111 14 42.939453 L 14 36.287109 C 16.552292 37.067934 19.593379 37.52997 22.294922 37.746094 C 23.450209 37.838535 24.460289 37.890343 25.355469 37.927734 C 27.208264 41.57299 28.317135 43.14766 28.837891 44.023438 A 1.0001 1.0001 0 0 0 28.837891 44.025391 C 29.197005 44.628497 29.858008 45 30.556641 45 L 32.5 45 C 33.317063 45 34 44.317063 34 43.5 L 34 38 C 37.65919 38 41.087281 37.135116 43.730469 36.046875 C 45.052062 35.502755 46.17651 34.903698 47.050781 34.306641 C 47.925052 33.709583 48.567086 33.187422 48.914062 32.40625 A 1.0001 1.0001 0 0 0 48.914062 32.404297 C 48.970132 32.277584 49.281008 31.648165 49.53125 30.742188 C 49.781492 29.836257 50 28.591444 50 27 A 1.0001 1.0001 0 0 0 49 26 C 48.148833 26 47.69552 25.828442 47.357422 25.595703 C 47.019324 25.362964 46.758259 25.018233 46.470703 24.529297 C 46.098359 23.896194 45.690529 23.013264 44.960938 22.230469 C 45.457048 21.982224 45.995336 21.690595 46.5625 21.304688 C 48.193328 20.195045 50 18.395493 50 15.832031 C 50 13.809438 48.775391 12.367186 48.775391 12.367188 A 1.0001 1.0001 0 0 0 47.986328 12 A 1.0001 1.0001 0 0 0 47.029297 12.757812 C 47.029297 12.757812 46.994847 12.996335 46.556641 13.529297 C 46.118432 14.062259 45.303367 14.786448 43.759766 15.390625 C 43.203992 15.608116 42.710013 15.840405 42.253906 16.078125 C 39.481781 12.052996 32.34902 7 23 7 C 18.280764 7 13.316076 8.2891919 9.4765625 11.341797 C 8.5396062 12.086724 7.6771906 12.941696 6.9042969 13.902344 C 6.3881063 13.317911 5.7199441 12.37424 5.3320312 10.951172 C 7.506034 10.822908 9 9.5661072 9 8 C 9 7.0360024 8.6276012 6.1847959 8.0136719 5.671875 C 7.3997426 5.1589541 6.6470831 4.9902344 5.953125 4.9902344 z M 5.953125 6.9902344 C 6.3121669 6.9902344 6.584648 7.0852025 6.7304688 7.2070312 C 6.8762894 7.3288604 7 7.4829976 7 8 C 7 8.035283 6.5834079 8.9770704 5.0253906 8.9921875 C 5.0240526 8.9285425 5 8.8890373 5 8.8242188 C 5 7.8050373 5.2602523 7.4065499 5.4550781 7.2148438 C 5.649904 7.0231375 5.8893535 6.9902344 5.953125 6.9902344 z M 23 9 C 23.337999 9 23.66799 9.0204417 24 9.0351562 L 24 23 L 14 23 L 14 10.916016 C 16.784566 9.6171733 19.933594 9 23 9 z M 26 9.203125 C 29.657453 9.6889908 32.868134 11.007634 35.402344 12.574219 C 34.497078 14.184912 33.227613 17.443006 33.070312 23 L 26 23 L 26 9.203125 z M 12 11.998047 L 12 24 L 12 33.53125 C 10.612729 33.01215 7.9774991 31.948086 5.3515625 30.101562 C 5.134628 28.802436 5 27.436422 5 26 C 5 21.884273 6.0153122 18.684477 7.6757812 16.205078 A 1.0001 1.0001 0 0 0 7.9960938 15.744141 C 8.787313 14.658398 9.7044812 13.71615 10.720703 12.908203 C 11.130914 12.582065 11.55874 12.281208 12 11.998047 z M 37.046875 13.693359 C 38.611127 14.860668 39.809063 16.078999 40.556641 17.142578 C 39.821807 17.704594 39.285059 18.273533 38.908203 18.798828 C 38.513881 19.34847 38.288009 19.84502 38.162109 20.220703 C 38.099159 20.408545 38.060345 20.566978 38.037109 20.685547 C 38.025489 20.744827 38.018872 20.794216 38.013672 20.832031 C 38.011072 20.850941 38.009112 20.868226 38.007812 20.878906 C 38.007201 20.884206 38.005759 20.888519 38.005859 20.886719 C 38.006056 20.884919 38.001953 20.925781 38.001953 20.925781 A 1.0001 1.0001 0 1 0 39 22 C 39 22 39.993645 21.11379 39.994141 21.109375 C 39.994636 21.104975 39.994149 21.105369 39.994141 21.105469 C 39.994621 21.101969 39.9961 21.090142 40 21.070312 C 40.0078 21.030652 40.024894 20.958002 40.058594 20.857422 C 40.126004 20.656261 40.260776 20.344577 40.533203 19.964844 C 41.078058 19.205377 42.179727 18.156126 44.490234 17.251953 C 46.126331 16.611573 47.131251 15.803736 47.808594 15.068359 C 47.879675 15.327934 48 15.537402 48 15.832031 C 48 17.43557 46.806672 18.720736 45.4375 19.652344 C 44.072859 20.580868 42.698572 21.045749 42.689453 21.048828 C 42.689423 21.048838 42.683594 21.050781 42.683594 21.050781 A 1.0010817 1.0010817 0 0 0 42.630859 21.070312 A 1.0001 1.0001 0 0 0 42.669922 22.960938 C 43.728283 23.520266 44.085609 24.416614 44.748047 25.542969 C 45.090741 26.125657 45.524895 26.762473 46.224609 27.244141 C 46.650013 27.536979 47.319764 27.578398 47.912109 27.703125 C 47.853089 28.683933 47.762038 29.628003 47.601562 30.208984 C 47.39631 30.952086 47.206888 31.320564 47.085938 31.59375 C 47.064917 31.64108 46.647854 32.158511 45.921875 32.654297 C 45.195896 33.150083 44.180156 33.698511 42.96875 34.197266 C 40.788974 35.094712 37.975342 35.83091 35 35.970703 L 35 24 C 35 18.230477 36.244296 15.117594 37.046875 13.693359 z M 14 25 L 24 25 L 24 35.855469 C 23.500211 35.825805 23.00477 35.797882 22.455078 35.753906 C 19.635654 35.528352 16.300633 35.068678 14 34.292969 L 14 25 z M 26 25 L 33 25 L 33 35.986328 A 1.0001 1.0001 0 0 0 32.984375 35.986328 A 1.0001 1.0001 0 0 0 32.839844 36 L 28 36 C 28 36 27.199448 35.994988 26 35.953125 L 26 25 z M 5.9648438 32.861328 C 8.4939878 34.350943 10.898673 35.305743 12 35.705078 L 12 43 L 10.613281 43 C 10.051732 41.826967 8.7044683 39.880304 7.4296875 36.974609 C 6.8915407 35.747975 6.3820125 34.365233 5.9648438 32.861328 z M 27.646484 37.994141 C 27.70146 37.994455 28 38 28 38 L 32 38 L 32 43 L 30.556641 43 C 30.001086 42.065835 29.12146 40.799766 27.646484 37.994141 z"/></svg>