<svg xmlns="http://www.w3.org/2000/svg" width="50" height="50" fill="#000" viewBox="0 0 50 50"><path d="M 43.955078 4.9882812 A 1.0001 1.0001 0 0 0 43.105469 5.5527344 C 43.105469 5.5527344 43.097669 5.5906414 42.9375 5.71875 C 42.777365 5.8468583 42.527778 6 42 6 C 40.351867 6 39.243262 7.0646891 38.703125 7.9921875 C 38.675488 8.0396453 38.673898 8.072219 38.648438 8.1191406 C 38.463864 7.9282125 38.326972 7.7537903 38.09375 7.5566406 C 37.158419 6.7659783 35.78 6 34 6 A 1.0001 1.0001 0 0 0 33 7 C 33 7.8252409 32.9343 9.473114 33.71875 10.857422 C 33.600916 10.919031 33.574268 11 33 11 C 32.749159 11 31.675913 10.775699 30.480469 10.521484 C 29.285025 10.26727 27.878036 10 26.490234 10 C 21.703278 10 17.555556 12 15 12 C 13.333333 12 11.33138 11 8.9980469 11 C 7.2822413 11 5.8406759 11.583417 4.7539062 12.5 C 3.6671367 13.416583 2.9230357 14.631131 2.3925781 15.904297 C 1.331663 18.450629 1.092215 21.290053 1 22.945312 A 1.0001 1.0001 0 0 0 0.99804688 23 L 0.99804688 23.78125 C 0.41120815 24.790789 0 25.807817 0 27 C 0 28.166667 0.29584027 29.078009 0.60546875 29.697266 C 0.91509723 30.316523 1.2929688 30.707031 1.2929688 30.707031 A 1.0001 1.0001 0 1 0 2.7070312 29.292969 C 2.7070312 29.292969 2.5849029 29.183477 2.3945312 28.802734 C 2.2041597 28.421991 2 27.833333 2 27 C 2 26.118132 2.2475316 25.493126 2.8476562 24.527344 A 1.0001 1.0001 0 0 0 2.9980469 24 L 2.9980469 23.054688 C 3.0806455 21.57204 3.3233863 19.135414 4.0957031 17.064453 C 4.0373683 17.656859 4 18.292748 4 19 C 4 21.75 4.4539063 24.473391 4.7539062 26.275391 C 4.8809063 27.034391 5 27.75 5 28 C 5 29.377 4.7702969 30.291813 4.5292969 31.257812 C 4.2692969 32.299813 4 33.377 4 35 L 4 44 C 4 44.552 4.448 45 5 45 L 10.005859 45 C 10.352859 45 10.675422 44.820391 10.857422 44.525391 C 11.039422 44.230391 11.054437 43.860781 10.898438 43.550781 C 10.536438 42.827781 10 41.518 10 41 C 10 38.969 12.253781 34.900906 13.425781 33.003906 C 15.568781 33.029906 16.390984 33.206156 17.333984 33.410156 L 17.740234 33.498047 C 18.874234 33.741047 21.377 34 25 34 L 28.955078 34 C 29.293078 35.525 30 39.068 30 42 L 30 44 C 30 44.552 30.448 45 31 45 L 36 45 C 36.321 45 36.622547 44.845984 36.810547 44.583984 C 36.998547 44.322984 37.050219 43.988594 36.949219 43.683594 L 36.019531 40.894531 L 36.978516 32.744141 C 37.199516 32.171141 38.106797 29.722859 39.216797 25.505859 C 39.224797 25.476859 39.237188 25.405953 39.242188 25.376953 C 39.318188 24.928953 40.039 21 42 21 L 47.5 21 C 49.555 21 50 18.194 50 17.5 C 50 16.281 49.682172 15.618734 48.826172 15.052734 C 46.065172 13.251734 45.067406 11.867656 44.691406 11.347656 C 44.629406 11.261656 44.580828 11.19425 44.548828 11.15625 C 44.129828 10.61825 43.584953 10.215109 43.001953 9.9121094 C 42.731953 9.9591094 42.451156 9.9900469 42.160156 9.9980469 C 42.093156 10.108047 42.000453 10.326469 41.939453 10.605469 C 41.871453 10.914469 41.754562 11.209469 41.601562 11.480469 C 42.152563 11.690469 42.657516 11.984484 42.978516 12.396484 L 43.070312 12.519531 C 43.506312 13.122531 44.661516 14.725562 47.728516 16.726562 C 47.963516 16.881563 48.000953 16.906031 48.001953 17.457031 C 47.964953 18.014031 47.697 18.883 47.5 19 L 42 19 C 40.65957 19 39.685796 19.704669 38.978516 20.642578 C 36.849728 18.661285 35.390782 15.793721 35.060547 12.513672 C 35.209509 12.421274 35.343483 12.320579 35.457031 12.207031 C 35.699882 11.96418 35.844555 11.692897 35.917969 11.472656 C 35.991382 11.252415 36 11 36 11 A 1.0001 1.0001 0 0 0 35.707031 10.292969 C 35.355494 9.9414313 35.197802 9.0770235 35.105469 8.2207031 C 35.763683 8.4131495 36.346723 8.6985043 36.802734 9.0839844 C 37.151319 9.3786532 37.442138 9.6955122 37.677734 9.9746094 C 37.849773 10.178414 37.977866 10.336272 38.121094 10.503906 A 1.0001 1.0001 0 0 0 38.990234 11.009766 A 1.0001 1.0001 0 0 0 39.019531 11.009766 A 1.0001 1.0001 0 0 0 39.039062 11.007812 A 1.0001 1.0001 0 0 0 40.005859 10.091797 A 1.0001 1.0001 0 0 0 40.005859 10.087891 C 40.021559 10.021551 40.043785 9.9301295 40.078125 9.8183594 C 40.148775 9.5883689 40.265959 9.2825477 40.431641 8.9980469 C 40.762998 8.4290853 41.148133 8 42 8 C 42.972222 8 43.722635 7.6531417 44.1875 7.28125 C 44.652365 6.9093583 44.894531 6.4472656 44.894531 6.4472656 A 1.0001 1.0001 0 0 0 43.955078 4.9882812 z M 26.490234 12 C 26.654772 12 26.828972 12.014124 27 12.023438 L 27 24 L 14 24 L 14 13.9375 C 14.327024 13.974014 14.658791 14 15 14 C 18.444444 14 22.297191 12 26.490234 12 z M 29 12.28125 C 29.358461 12.346003 29.722435 12.405784 30.064453 12.478516 C 31.220259 12.724301 32.145841 13 33 13 C 33.03806 13 33.068178 12.992837 33.105469 12.992188 C 33.557618 16.811456 35.351943 20.160354 37.994141 22.439453 C 37.769764 22.999835 37.616478 23.530444 37.5 24 L 29 24 L 29 12.28125 z M 8.9980469 13 C 9.8980296 13 10.905101 13.28642 12 13.554688 L 12 31 L 6.6328125 31 C 6.8269559 30.159563 7 29.258516 7 28 C 7 27.584 6.8915625 26.933266 6.7265625 25.947266 C 6.4375625 24.209266 6 21.584 6 19 C 6 13.986514 7.5665041 13.172642 8.5175781 13.037109 C 8.6766973 13.023498 8.8259976 13 8.9980469 13 z M 14 26 L 27 26 L 27 32 L 25 32 C 21.53 32 19.146297 31.753016 18.154297 31.541016 L 17.757812 31.455078 C 16.844319 31.258067 15.90722 31.080062 14 31.025391 L 14 26 z M 29 26 L 37.001953 26 C 35.965894 29.769753 35.184605 31.827149 35.117188 32 L 30 32 L 30 32.042969 C 29.918877 32.021758 29.836915 32 29.75 32 L 29 32 L 29 26 z M 6.1933594 33 L 11.097656 33 C 9.893081 35.067704 8 38.679666 8 41 C 8 41.581 8.2265625 42.337 8.4765625 43 L 6 43 L 6 35 C 6 34.210191 6.0836313 33.582348 6.1933594 33 z M 30.998047 34 L 34.818359 34 L 34.007812 40.882812 C 33.990812 41.028813 34.006734 41.176406 34.052734 41.316406 L 34.613281 43 L 32 43 L 32 42 C 32 39.073578 31.374349 35.751734 30.998047 34 z"/></svg>