<svg xmlns="http://www.w3.org/2000/svg" width="50" height="50" fill="#000" viewBox="0 0 50 50"><path d="M 0.992188 -0.0117188 C 0.582031 -0.0078125 0.21875 0.238281 0.0625 0.613281 C -0.0898438 0.992188 0 1.421875 0.292969 1.707031 L 48.292969 49.707031 C 48.542969 49.96875 48.917969 50.074219 49.265625 49.980469 C 49.617188 49.890625 49.890625 49.617188 49.980469 49.265625 C 50.074219 48.917969 49.96875 48.542969 49.707031 48.292969 L 36 34.585938 L 36 21.824219 C 36 19.3125 33.753906 10.84375 31.269531 6.972656 C 32.238281 6.835938 33 6 33 5 L 33 2 C 33 0.90625 32.09375 0 31 0 L 19 0 C 17.90625 0 17 0.90625 17 2 L 17 5 C 17 5.988281 17.746094 6.820313 18.695313 6.96875 C 17.558594 8.753906 16.472656 11.511719 15.632813 14.21875 L 1.707031 0.292969 C 1.519531 0.0976563 1.261719 -0.0078125 0.992188 -0.0078125 Z M 19 2 L 31 2 L 31 5 L 19 5 Z M 21.101563 7 L 28.851563 7 C 30.253906 7.886719 34 18.023438 34 21.824219 L 34 32.585938 L 17.199219 15.785156 C 18.402344 11.769531 20.195313 7.5625 21.101563 7 Z M 14.488281 18.511719 C 14.179688 19.933594 14 21.117188 14 21.824219 L 14 45 C 14 47.757813 16.242188 50 19 50 L 31 50 C 33.757813 50 36 47.757813 36 45 L 36 40.027344 L 34 38.027344 L 34 45 C 34 46.652344 32.652344 48 31 48 L 19 48 C 17.347656 48 16 46.652344 16 45 L 16 21.824219 C 16 21.351563 16.054688 20.789063 16.152344 20.171875 Z"/></svg>