<svg xmlns="http://www.w3.org/2000/svg" width="50" height="50" fill="#000" viewBox="0 0 50 50"><path d="M 13.482422 3 C 8.2757138 3 4 6.9975141 4 12 C 4 17.002486 8.2757138 21 13.482422 21 C 15.781868 21 17.763738 20.169196 19.400391 18.982422 C 19.409391 18.978222 19.418774 18.980863 19.427734 18.976562 L 19.423828 18.96875 C 19.477758 18.92946 19.548436 18.911194 19.601562 18.871094 A 1.0001 1.0001 0 0 0 18.572266 17.167969 C 18.154249 17.365725 17.580568 17.457031 16.955078 17.457031 C 13.66689 17.457063 11 15.085149 11 12 C 11 9.1399904 13.700923 6.5429688 16.955078 6.5429688 C 17.491376 6.5429688 18.116528 6.6993552 18.699219 6.8828125 A 1.0001 1.0001 0 0 0 19.601562 5.1289062 C 17.932128 3.8689351 15.867937 3 13.482422 3 z M 13.482422 5 C 13.689094 5 13.856778 5.086135 14.056641 5.1015625 C 11.134985 6.2079113 9 8.8859801 9 12 C 9 15.2146 11.122459 17.82336 14.007812 18.90625 C 13.824374 18.919199 13.671571 19 13.482422 19 C 9.2871298 19 6 15.865514 6 12 C 6 8.1344859 9.2871298 5 13.482422 5 z M 27.5 6 C 26.672 6 26 6.672 26 7.5 C 26 8.328 26.672 9 27.5 9 C 28.328 9 29 8.328 29 7.5 C 29 6.672 28.328 6 27.5 6 z M 37 6.9863281 A 1.0001 1.0001 0 0 0 36.082031 7.6015625 L 35.443359 9.0722656 C 34.631983 10.9402 34.930508 13.143136 36.246094 14.65625 C 37.007662 15.531431 37.224771 16.977827 36.722656 18.130859 L 36.082031 19.601562 A 1.0007097 1.0007097 0 0 0 37.917969 20.398438 L 38.556641 18.929688 L 38.556641 18.927734 C 39.36953 17.059206 39.069907 14.856074 37.753906 13.34375 C 36.991924 12.46736 36.775714 11.022813 37.277344 9.8691406 L 37.917969 8.3984375 A 1.0001 1.0001 0 0 0 37 6.9863281 z M 43.986328 6.9863281 A 1.0001 1.0001 0 0 0 43.044922 7.7070312 L 42.404297 9.7890625 C 41.659513 12.214994 41.910252 15.007068 43.148438 17.023438 C 43.988402 18.39131 44.253526 20.769467 43.683594 22.623047 L 43.044922 24.707031 A 1.0001 1.0001 0 1 0 44.955078 25.292969 L 45.595703 23.210938 C 46.341771 20.784516 46.089597 17.992689 44.851562 15.976562 C 44.011747 14.608932 43.74719 12.231021 44.316406 10.376953 L 44.955078 8.2929688 A 1.0001 1.0001 0 0 0 43.986328 6.9863281 z M 20 11 C 19.448 11 19 11.448 19 12 C 19 12.552 19.448 13 20 13 C 20.552 13 21 12.552 21 12 C 21 11.448 20.552 11 20 11 z M 25 18 C 24.083334 18 23.268559 18.379756 22.751953 18.960938 C 22.235347 19.542119 22 20.277778 22 21 C 22 21.44479 22.273452 21.840012 22.462891 22.255859 C 12.036511 23.524845 3.9121094 32.322417 3.9121094 43.087891 L 3.9121094 44 L 2 44 A 1.0001 1.0001 0 1 0 2 46 L 4.7460938 46 A 1.0001 1.0001 0 0 0 5.0722656 46 L 44.917969 46 A 1.0001 1.0001 0 0 0 45.246094 46 L 48 46 A 1.0001 1.0001 0 1 0 48 44 L 46.087891 44 L 46.087891 43.087891 C 46.087891 32.322417 37.963489 23.524845 27.537109 22.255859 C 27.726548 21.840012 28 21.44479 28 21 C 28 20.277778 27.764653 19.542119 27.248047 18.960938 C 26.731441 18.379756 25.916666 18 25 18 z M 25 20 C 25.416666 20 25.601893 20.120244 25.751953 20.289062 C 25.902014 20.457881 26 20.722222 26 21 C 26 21.277778 25.90201 21.542119 25.751953 21.710938 C 25.601893 21.879756 25.416666 22 25 22 C 24.583334 22 24.398107 21.879756 24.248047 21.710938 C 24.097986 21.542119 24 21.277778 24 21 C 24 20.722222 24.097986 20.457881 24.248047 20.289062 C 24.398107 20.120244 24.583334 20 25 20 z M 25 24 C 35.553588 24 44.087891 32.534303 44.087891 43.087891 L 44.087891 44 L 5.9121094 44 L 5.9121094 43.087891 C 5.9121094 32.534303 14.446412 24 25 24 z M 18.318359 28.314453 A 1.0001 1.0001 0 0 0 17.865234 28.421875 C 14.589469 30.018198 11.932259 32.67736 10.335938 35.953125 A 1.0001 1.0001 0 1 0 12.132812 36.828125 C 13.53249 33.95589 15.869951 31.62038 18.742188 30.220703 A 1.0001 1.0001 0 0 0 18.318359 28.314453 z"/></svg>