<?xml version="1.0" encoding="UTF-8" standalone="no"?>
<!DOCTYPE svg PUBLIC "-//W3C//DTD SVG 1.1//EN" "http://www.w3.org/Graphics/SVG/1.1/DTD/svg11.dtd">
<svg width="100%" height="100%" viewBox="0 0 50 50" version="1.1" xmlns="http://www.w3.org/2000/svg" xmlns:xlink="http://www.w3.org/1999/xlink" xml:space="preserve" xmlns:serif="http://www.serif.com/" style="fill-rule:evenodd;clip-rule:evenodd;stroke-linejoin:round;stroke-miterlimit:2;">
    <g transform="matrix(1,0,0,1,0,-3)">
        <path d="M27.5,6C26.672,6 26,6.672 26,7.5C26,8.328 26.672,9 27.5,9C28.328,9 29,8.328 29,7.5C29,6.672 28.328,6 27.5,6ZM37,6.986C36.599,6.988 36.236,7.231 36.082,7.602L35.443,9.072C34.632,10.94 34.931,13.143 36.246,14.656C37.008,15.531 37.225,16.978 36.723,18.131L36.082,19.602C36.027,19.727 35.999,19.863 35.999,20C35.999,20.549 36.451,21.001 37,21.001C37.398,21.001 37.76,20.763 37.918,20.398L38.557,18.93L38.557,18.928C39.37,17.059 39.07,14.856 37.754,13.344C36.992,12.467 36.776,11.023 37.277,9.869L37.918,8.398C37.977,8.269 38.007,8.128 38.007,7.986C38.007,7.438 37.555,6.986 37.007,6.986C37.004,6.986 37.002,6.986 37,6.986ZM43.986,6.986C43.55,6.995 43.167,7.288 43.045,7.707L42.404,9.789C41.66,12.215 41.91,15.007 43.148,17.023C43.988,18.391 44.254,20.769 43.684,22.623L43.045,24.707C43.006,24.815 42.986,24.93 42.986,25.045C42.986,25.593 43.438,26.045 43.986,26.045C44.442,26.045 44.842,25.734 44.955,25.293L45.596,23.211C46.342,20.785 46.09,17.993 44.852,15.977C44.012,14.609 43.747,12.231 44.316,10.377L44.955,8.293C44.987,8.194 45.003,8.09 45.003,7.986C45.003,7.438 44.552,6.986 44.003,6.986C43.998,6.986 43.992,6.986 43.986,6.986ZM20,11C19.448,11 19,11.448 19,12C19,12.552 19.448,13 20,13C20.552,13 21,12.552 21,12C21,11.448 20.552,11 20,11ZM25,18C24.083,18 23.269,18.38 22.752,18.961C22.235,19.542 22,20.278 22,21C22,21.445 22.273,21.84 22.463,22.256C12.037,23.525 3.912,32.322 3.912,43.088L3.912,44L2,44C1.995,44 1.991,44 1.986,44C1.437,44 0.986,44.451 0.986,45C0.986,45.549 1.437,46 1.986,46C1.991,46 1.995,46 2,46L4.746,46C4.854,46.018 4.964,46.018 5.072,46L44.918,46C45.027,46.018 45.137,46.018 45.246,46L48,46C48.005,46 48.009,46 48.014,46C48.563,46 49.014,45.549 49.014,45C49.014,44.451 48.563,44 48.014,44C48.009,44 48.005,44 48,44L46.088,44L46.088,43.088C46.088,32.322 37.963,23.525 27.537,22.256C27.727,21.84 28,21.445 28,21C28,20.278 27.765,19.542 27.248,18.961C26.731,18.38 25.917,18 25,18ZM25,20C25.417,20 25.602,20.12 25.752,20.289C25.902,20.458 26,20.722 26,21C26,21.278 25.902,21.542 25.752,21.711C25.602,21.88 25.417,22 25,22C24.583,22 24.398,21.88 24.248,21.711C24.098,21.542 24,21.278 24,21C24,20.722 24.098,20.458 24.248,20.289C24.398,20.12 24.583,20 25,20ZM25,24C35.554,24 44.088,32.534 44.088,43.088L44.088,44L5.912,44L5.912,43.088C5.912,32.534 14.446,24 25,24ZM18.318,28.314C18.161,28.314 18.006,28.351 17.865,28.422C14.589,30.018 11.932,32.677 10.336,35.953C10.258,36.099 10.217,36.261 10.217,36.427C10.217,36.975 10.668,37.427 11.217,37.427C11.613,37.427 11.974,37.191 12.133,36.828C13.532,33.956 15.87,31.62 18.742,30.221C19.094,30.057 19.319,29.702 19.319,29.315C19.319,28.766 18.868,28.314 18.319,28.314C18.319,28.314 18.319,28.314 18.318,28.314Z" style="fill-rule:nonzero;"/>
    </g>
    <g transform="matrix(1,0,0,1,0,-3)">
        <path d="M27.5,6C26.672,6 26,6.672 26,7.5C26,8.328 26.672,9 27.5,9C28.328,9 29,8.328 29,7.5C29,6.672 28.328,6 27.5,6ZM13.039,6.986C13.44,6.988 13.803,7.231 13.957,7.602L14.596,9.072C15.407,10.94 15.109,13.143 13.793,14.656C13.031,15.531 12.814,16.978 13.316,18.131L13.957,19.602C14.012,19.727 14.04,19.863 14.04,20C14.04,20.549 13.588,21.001 13.039,21.001C12.641,21.001 12.28,20.763 12.121,20.398L11.482,18.93L11.482,18.928C10.67,17.059 10.969,14.856 12.285,13.344C13.047,12.467 13.263,11.023 12.762,9.869L12.121,8.398C12.063,8.269 12.032,8.128 12.032,7.986C12.032,7.438 12.484,6.986 13.032,6.986C13.035,6.986 13.037,6.986 13.039,6.986ZM6.053,6.986C6.489,6.995 6.872,7.288 6.994,7.707L7.635,9.789C8.38,12.215 8.129,15.007 6.891,17.023C6.051,18.391 5.786,20.769 6.355,22.623L6.994,24.707C7.033,24.815 7.053,24.93 7.053,25.045C7.053,25.593 6.601,26.045 6.053,26.045C5.598,26.045 5.197,25.734 5.084,25.293L4.443,23.211C3.697,20.785 3.949,17.993 5.188,15.977C6.027,14.609 6.292,12.231 5.723,10.377L5.084,8.293C5.052,8.194 5.036,8.09 5.036,7.986C5.036,7.438 5.487,6.986 6.036,6.986C6.042,6.986 6.047,6.986 6.053,6.986ZM20,11C19.448,11 19,11.448 19,12C19,12.552 19.448,13 20,13C20.552,13 21,12.552 21,12C21,11.448 20.552,11 20,11ZM25,18C24.083,18 23.269,18.38 22.752,18.961C22.235,19.542 22,20.278 22,21C22,21.445 22.273,21.84 22.463,22.256C12.037,23.525 3.912,32.322 3.912,43.088L3.912,44L2,44C1.995,44 1.991,44 1.986,44C1.437,44 0.986,44.451 0.986,45C0.986,45.549 1.437,46 1.986,46C1.991,46 1.995,46 2,46L4.746,46C4.854,46.018 4.964,46.018 5.072,46L44.918,46C45.027,46.018 45.137,46.018 45.246,46L48,46C48.005,46 48.009,46 48.014,46C48.563,46 49.014,45.549 49.014,45C49.014,44.451 48.563,44 48.014,44C48.009,44 48.005,44 48,44L46.088,44L46.088,43.088C46.088,32.322 37.963,23.525 27.537,22.256C27.727,21.84 28,21.445 28,21C28,20.278 27.765,19.542 27.248,18.961C26.731,18.38 25.917,18 25,18ZM25,20C25.417,20 25.602,20.12 25.752,20.289C25.902,20.458 26,20.722 26,21C26,21.278 25.902,21.542 25.752,21.711C25.602,21.88 25.417,22 25,22C24.583,22 24.398,21.88 24.248,21.711C24.098,21.542 24,21.278 24,21C24,20.722 24.098,20.458 24.248,20.289C24.398,20.12 24.583,20 25,20ZM25,24C35.554,24 44.088,32.534 44.088,43.088L44.088,44L5.912,44L5.912,43.088C5.912,32.534 14.446,24 25,24ZM18.318,28.314C18.161,28.314 18.006,28.351 17.865,28.422C14.589,30.018 11.932,32.677 10.336,35.953C10.258,36.099 10.217,36.261 10.217,36.427C10.217,36.975 10.668,37.427 11.217,37.427C11.613,37.427 11.974,37.191 12.133,36.828C13.532,33.956 15.87,31.62 18.742,30.221C19.094,30.057 19.319,29.702 19.319,29.315C19.319,28.766 18.868,28.314 18.319,28.314C18.319,28.314 18.319,28.314 18.318,28.314Z" style="fill-rule:nonzero;"/>
    </g>
</svg>
