<svg fill="#000000" xmlns="http://www.w3.org/2000/svg"  viewBox="0 0 50 50" width="50px" height="50px"><path d="M 32.03125 1 C 29.933594 1 28.105469 1.777344 26.875 3.09375 C 25.644531 4.410156 25 6.226563 25 8.21875 C 25 10.414063 25.886719 11.949219 26.625 13.375 C 27.363281 14.800781 28 16.167969 28 18.5 C 28 21.523438 25.492188 24.386719 21.40625 26.53125 C 17.320313 28.675781 11.789063 30 6.3125 30 C 5.753906 30 5.292969 30.027344 4.84375 30.25 C 4.394531 30.472656 3.96875 31.125 4 31.65625 C 4.011719 31.859375 4.15625 31.9375 4.21875 32.09375 C 4.03125 32.125 3.796875 32.109375 3.625 32.15625 C 3.277344 32.25 2.941406 32.382813 2.625 32.625 C 2.308594 32.867188 2 33.347656 2 33.84375 C 2 34.339844 2.234375 34.710938 2.5 35.03125 C 2.765625 35.351563 3.101563 35.628906 3.53125 35.9375 C 4.390625 36.550781 5.640625 37.234375 7.4375 38.0625 C 7.4375 38.074219 7.4375 38.082031 7.4375 38.09375 C 10.550781 39.527344 15.71875 40.964844 21.1875 41.625 C 21.417969 42.800781 21.257813 43.683594 20.96875 44.46875 C 20.628906 45.390625 20 46.078125 20 47.25 C 20 47.980469 20.5 48.574219 21 48.90625 C 21.5 49.238281 22.050781 49.441406 22.6875 49.59375 C 23.960938 49.902344 25.515625 50 26.96875 50 C 28.726563 50 30.023438 49.914063 30.96875 49.71875 C 31.441406 49.621094 31.828125 49.492188 32.1875 49.28125 C 32.546875 49.070313 32.96875 48.632813 32.96875 48.03125 C 32.96875 47.90625 32.863281 47.890625 32.84375 47.78125 C 33 47.707031 33.144531 47.628906 33.3125 47.5 C 33.578125 47.296875 33.9375 46.945313 33.9375 46.34375 C 33.9375 45.726563 33.554688 45.351563 33.28125 45.15625 C 33.160156 45.070313 33.050781 45.058594 32.9375 45 C 32.945313 44.9375 33 44.90625 33 44.84375 C 33 44.253906 32.601563 43.917969 32.375 43.78125 C 32.148438 43.644531 31.945313 43.59375 31.71875 43.53125 C 31.265625 43.40625 30.726563 43.320313 30.0625 43.25 C 28.734375 43.109375 26.964844 43.03125 25 43.03125 C 24.640625 43.027344 24.304688 43.214844 24.121094 43.527344 C 23.941406 43.839844 23.941406 44.222656 24.121094 44.535156 C 24.304688 44.847656 24.640625 45.035156 25 45.03125 C 26.914063 45.03125 28.632813 45.121094 29.84375 45.25 C 30.082031 45.277344 30.179688 45.3125 30.375 45.34375 C 30.304688 45.75 30.488281 46.160156 30.84375 46.375 C 30.390625 46.679688 30.265625 47.292969 30.5625 47.75 C 29.859375 47.894531 28.652344 48 26.96875 48 C 25.621094 48 24.164063 47.867188 23.15625 47.625 C 22.652344 47.503906 22.273438 47.371094 22.09375 47.25 C 22.03125 47.207031 22.011719 47.226563 22 47.21875 C 22.015625 47.109375 22.425781 46.296875 22.84375 45.15625 C 23.167969 44.277344 23.402344 43.152344 23.25 41.8125 C 24.554688 41.921875 25.867188 42 27.15625 42 C 33.382813 42 37.386719 40.332031 39.8125 38 C 42.238281 35.667969 43 32.761719 43 30.4375 C 43 26.867188 41.078125 24.148438 39.3125 21.8125 C 37.546875 19.476563 36 17.492188 36 15.5 C 36 14.804688 36.121094 14.484375 36.25 14.3125 C 36.378906 14.140625 36.570313 14.015625 36.96875 13.90625 C 37.765625 13.6875 39.242188 13.691406 40.90625 13.28125 C 42.988281 12.769531 44.402344 12.113281 45.375 11.4375 C 46.347656 10.761719 46.898438 10.0625 47.21875 9.65625 C 47.699219 9.042969 48.074219 8.335938 47.96875 7.4375 C 47.917969 6.988281 47.597656 6.429688 47.09375 6.1875 C 46.589844 5.945313 46.089844 5.992188 45.5625 6.125 C 44.648438 6.351563 43.4375 6.5625 42.3125 6.5625 C 41.1875 6.5625 40.160156 6.328125 39.59375 5.9375 C 39.101563 5.597656 38.476563 4.457031 37.40625 3.28125 C 36.335938 2.105469 34.640625 1 32.03125 1 Z M 32.03125 3 C 34.128906 3 35.074219 3.710938 35.90625 4.625 C 36.738281 5.539063 37.273438 6.773438 38.46875 7.59375 C 39.585938 8.363281 40.964844 8.5625 42.3125 8.5625 C 43.570313 8.5625 44.765625 8.332031 45.78125 8.09375 C 45.726563 8.234375 45.730469 8.269531 45.625 8.40625 C 45.296875 8.828125 44.960938 9.269531 44.21875 9.78125 C 43.476563 10.292969 42.335938 10.878906 40.4375 11.34375 C 39.082031 11.675781 37.722656 11.613281 36.4375 11.96875 C 35.792969 12.144531 35.121094 12.476563 34.65625 13.09375 C 34.191406 13.710938 34 14.539063 34 15.5 C 34 18.441406 35.953125 20.703125 37.6875 23 C 39.421875 25.296875 41 27.59375 41 30.4375 C 41 32.324219 40.382813 34.660156 38.40625 36.5625 C 36.429688 38.464844 33.03125 40 27.15625 40 C 20.101563 40 12.058594 38.007813 8.25 36.25 C 6.519531 35.453125 5.367188 34.796875 4.6875 34.3125 C 4.539063 34.207031 4.507813 34.148438 4.40625 34.0625 C 4.8125 33.984375 5.335938 33.9375 6.03125 33.9375 C 6.460938 33.953125 6.851563 33.6875 7.003906 33.285156 C 7.152344 32.878906 7.023438 32.425781 6.6875 32.15625 C 6.601563 32.085938 6.570313 32.035156 6.5 31.96875 C 12.230469 31.9375 17.953125 30.585938 22.34375 28.28125 C 26.785156 25.949219 30 22.59375 30 18.5 C 30 15.773438 29.136719 13.914063 28.375 12.4375 C 27.613281 10.960938 27 9.894531 27 8.21875 C 27 6.660156 27.496094 5.375 28.34375 4.46875 C 29.191406 3.5625 30.414063 3 32.03125 3 Z M 33.5 6 C 32.671875 6 32 6.671875 32 7.5 C 32 8.328125 32.671875 9 33.5 9 C 34.328125 9 35 8.328125 35 7.5 C 35 6.671875 34.328125 6 33.5 6 Z"/></svg>