<svg fill="#000000" xmlns="http://www.w3.org/2000/svg"  viewBox="0 0 50 50" width="50px" height="50px"><path d="M 35.984375 3.9863281 A 1.0001 1.0001 0 0 0 35.779297 4.0117188 C 32.669663 4.0878825 29.949307 5.7485411 28.390625 8.21875 A 1.0001 1.0001 0 0 0 28.060547 8.7734375 C 27.38559 10.035016 27 11.473339 27 13 C 27 14.438955 27.34884 15.795798 27.953125 17.003906 C 27.3526 18.210589 27 19.564453 27 21 C 27 22.438896 27.348821 23.795803 27.953125 25.003906 C 27.3526 26.210589 27 27.564453 27 29 C 27 30.438896 27.348821 31.795803 27.953125 33.003906 C 27.352597 34.210588 27 35.564453 27 37 C 27 41.958516 31.041484 46 36 46 C 40.958516 46 45 41.958516 45 37 C 45 35.808934 44.767886 34.66751 44.345703 33.625 A 1.0001 1.0001 0 0 0 43.972656 33.158203 C 44.625557 31.912756 45 30.499638 45 29 C 45 27.564453 44.6474 26.210589 44.046875 25.003906 C 44.651179 23.795803 45 22.438896 45 21 C 45 19.564453 44.6474 18.210589 44.046875 17.003906 C 44.65116 15.795798 45 14.438955 45 13 C 45 11.473339 44.61441 10.035016 43.939453 8.7734375 A 1.0001 1.0001 0 0 0 43.611328 8.2207031 C 42.051573 5.7471674 39.326737 4.0852932 36.212891 4.0117188 A 1.0001 1.0001 0 0 0 35.984375 3.9863281 z M 18.839844 4 C 18.397844 4.003 17.971266 4.1000625 17.572266 4.2890625 C 14.156143 5.907524 10.285827 8.8379139 8.3125 14.046875 C 7.3137679 14.558453 2.977205 17.054738 2.0136719 22.835938 A 1.0001 1.0001 0 0 0 2.0292969 23.242188 L 4.0292969 31.242188 A 1.0001 1.0001 0 0 0 5.75 31.660156 C 5.75 31.660156 7.0016672 30.276538 9.0703125 30.046875 C 10.728471 33.31496 12.987333 35.676492 14.314453 36.884766 C 12.426453 38.197766 9 41.115 9 45 C 9 45.356 9.1880938 45.684281 9.4960938 45.863281 C 9.8020937 46.042281 10.185141 46.045141 10.494141 45.869141 C 10.527141 45.851141 13.85 44 18.5 44 C 23.037 44 25.357 45.76725 25.375 45.78125 C 25.556 45.92525 25.777 46 26 46 C 26.147 46 26.295594 45.966391 26.433594 45.900391 C 26.778594 45.734391 27 45.384 27 45 C 27 40.294 24.349734 37.841672 22.677734 36.763672 C 23.469734 35.930672 24.607172 34.593078 25.701172 32.830078 C 25.349172 31.886078 25.121969 30.883891 25.042969 29.837891 C 23.095969 33.821891 20.392609 36.205188 20.349609 36.242188 C 20.081609 36.472187 19.953625 36.826828 20.015625 37.173828 C 20.077625 37.521828 20.316484 37.810547 20.646484 37.935547 C 20.685484 37.950547 24.019172 39.256937 24.826172 43.210938 C 23.474172 42.624937 21.363 42 18.5 42 C 15.421 42 12.889688 42.715359 11.304688 43.318359 C 12.449687 40.130359 16.435422 37.901953 16.482422 37.876953 C 16.779422 37.713953 16.972094 37.410266 16.996094 37.072266 C 17.020094 36.734266 16.873563 36.405172 16.601562 36.201172 C 16.525562 36.144172 9 30.371078 9 21.705078 C 9 19.035694 9.4396437 16.785456 10.15625 14.869141 C 10.426508 15.164019 10.739654 15.472973 11.125 15.78125 C 12.527365 16.903142 14.777778 18 18 18 A 1.0001 1.0001 0 1 0 18 16 C 15.222222 16 13.472635 15.096858 12.375 14.21875 C 11.591829 13.592213 11.257986 13.123056 11.082031 12.841797 C 12.971506 9.3943619 15.845832 7.3217144 18.429688 6.0976562 C 18.564687 6.0336563 18.735422 5.984 18.857422 6 C 19.048422 6 19.23925 6.0542969 19.40625 6.1542969 C 21.91225 7.6662969 23.782969 9.6638281 25.042969 12.173828 C 25.117969 11.173828 25.327344 10.213641 25.652344 9.3066406 C 24.312344 7.3546406 22.5725 5.7294062 20.4375 4.4414062 C 19.9525 4.1504062 19.443844 4.024 18.839844 4 z M 35 6.078125 L 35 11.269531 L 30.498047 8.6699219 C 31.582925 7.2915986 33.176014 6.3377447 35 6.078125 z M 37 6.078125 C 38.823986 6.3377447 40.417075 7.2915986 41.501953 8.6699219 L 37 11.269531 L 37 6.078125 z M 16.5 10 A 1.5 1.5 0 0 0 16.5 13 A 1.5 1.5 0 0 0 16.5 10 z M 29.5 10.400391 L 34.001953 13 L 29.5 15.599609 C 29.180069 14.796205 29 13.920102 29 13 C 29 12.079898 29.180069 11.203795 29.5 10.400391 z M 42.5 10.400391 C 42.819931 11.203795 43 12.079898 43 13 C 43 13.920102 42.819931 14.796205 42.5 15.599609 L 37.998047 13 L 42.5 10.400391 z M 35 14.730469 L 35 19.921875 C 33.176014 19.662255 31.582925 18.708401 30.498047 17.330078 L 35 14.730469 z M 37 14.730469 L 41.501953 17.330078 C 40.417075 18.708401 38.823986 19.662255 37 19.921875 L 37 14.730469 z M 7.453125 17.066406 C 7.1696283 18.479145 7 20.011423 7 21.705078 C 7 24.076803 7.485667 26.236953 8.2207031 28.150391 C 7.1333783 28.369926 6.2574339 28.805438 5.59375 29.248047 L 4.0371094 23.023438 C 4.5690675 20.107265 6.1290129 18.213578 7.453125 17.066406 z M 29.304688 18.990234 C 30.907742 20.779803 33.209012 21.92482 35.777344 21.988281 A 1.0001 1.0001 0 0 0 36.21875 21.988281 C 38.788657 21.925892 41.091441 20.780714 42.695312 18.990234 C 42.88655 19.627145 43 20.2981 43 21 C 43 24.835886 39.942638 27.928131 36.123047 27.994141 A 1.0001 1.0001 0 0 0 35.984375 27.986328 A 1.0001 1.0001 0 0 0 35.875 27.994141 C 32.056327 27.927102 29 24.835227 29 21 C 29 20.2981 29.11345 19.627145 29.304688 18.990234 z M 29.304688 26.990234 C 30.326516 28.130944 31.630339 29.009209 33.109375 29.513672 L 29.5 31.597656 C 29.180472 30.794732 29 29.919369 29 29 C 29 28.2981 29.11345 27.627145 29.304688 26.990234 z M 42.695312 26.990234 C 42.88655 27.627145 43 28.2981 43 29 C 43 29.919369 42.819528 30.794732 42.5 31.597656 L 38.890625 29.513672 C 40.369661 29.009209 41.673484 28.130944 42.695312 26.990234 z M 35 30.732422 L 35 35.921875 C 33.17626 35.662247 31.584928 34.708272 30.5 33.330078 L 35 30.732422 z M 37 30.732422 L 41.5 33.330078 C 40.415072 34.708272 38.82374 35.662247 37 35.921875 L 37 30.732422 z M 42.703125 34.980469 C 42.895679 35.619099 43 36.295903 43 37 C 43 40.877484 39.877484 44 36 44 C 32.122516 44 29 40.877484 29 37 C 29 36.300734 29.120504 35.63584 29.316406 35.003906 C 30.918989 36.78582 33.21553 37.924976 35.777344 37.988281 A 1.0001 1.0001 0 0 0 36.21875 37.988281 C 38.793007 37.925781 41.09889 36.776301 42.703125 34.980469 z"/></svg>