<svg fill="#000000" xmlns="http://www.w3.org/2000/svg"  viewBox="0 0 50 50" width="50px" height="50px"><path d="M 36.90625 -0.03125 C 36.863281 -0.0234375 36.820313 -0.0117188 36.78125 0 C 36.316406 0.105469 35.988281 0.523438 36 1 L 36 15 C 35.996094 15.359375 36.183594 15.695313 36.496094 15.878906 C 36.808594 16.058594 37.191406 16.058594 37.503906 15.878906 C 37.816406 15.695313 38.003906 15.359375 38 15 L 38 1 C 38.011719 0.710938 37.894531 0.433594 37.6875 0.238281 C 37.476563 0.0390625 37.191406 -0.0585938 36.90625 -0.03125 Z M 42.90625 -0.03125 C 42.863281 -0.0234375 42.820313 -0.0117188 42.78125 0 C 42.316406 0.105469 41.988281 0.523438 42 1 L 42 15 C 41.996094 15.359375 42.183594 15.695313 42.496094 15.878906 C 42.808594 16.058594 43.191406 16.058594 43.503906 15.878906 C 43.816406 15.695313 44.003906 15.359375 44 15 L 44 1 C 44.011719 0.710938 43.894531 0.433594 43.6875 0.238281 C 43.476563 0.0390625 43.191406 -0.0585938 42.90625 -0.03125 Z M 48.90625 -0.03125 C 48.863281 -0.0234375 48.820313 -0.0117188 48.78125 0 C 48.316406 0.105469 47.988281 0.523438 48 1 L 48 19 C 48 21.773438 45.773438 24 43 24 C 42.449219 24 42 24.449219 42 25 L 42 49 C 41.996094 49.359375 42.183594 49.695313 42.496094 49.878906 C 42.808594 50.058594 43.191406 50.058594 43.503906 49.878906 C 43.816406 49.695313 44.003906 49.359375 44 49 L 44 25.78125 C 47.363281 25.273438 50 22.5 50 19 L 50 1 C 50.011719 0.710938 49.894531 0.433594 49.6875 0.238281 C 49.476563 0.0390625 49.191406 -0.0585938 48.90625 -0.03125 Z M 0.8125 0 C 0.335938 0.0898438 -0.0078125 0.511719 0 1 L 0 18 C 0 25.421875 5.128906 31.574219 12 33.375 L 12 43 C 12 44.761719 11.421875 45.871094 10.3125 46.6875 C 9.203125 47.503906 7.429688 48 5 48 C 4.640625 47.996094 4.304688 48.183594 4.121094 48.496094 C 3.941406 48.808594 3.941406 49.191406 4.121094 49.503906 C 4.304688 49.816406 4.640625 50.003906 5 50 C 7.691406 50 9.890625 49.496094 11.5 48.3125 C 13.109375 47.128906 14 45.238281 14 43 L 14 32.6875 C 13.992188 32.210938 13.652344 31.808594 13.1875 31.71875 C 6.800781 30.421875 2 24.785156 2 18 L 2 2 L 30 2 L 30 18 C 30 24.785156 25.199219 30.421875 18.8125 31.71875 C 18.347656 31.808594 18.007813 32.210938 18 32.6875 L 18 43 C 18 45.238281 18.890625 47.128906 20.5 48.3125 C 22.109375 49.496094 24.308594 50 27 50 C 27.359375 50.003906 27.695313 49.816406 27.878906 49.503906 C 28.058594 49.191406 28.058594 48.808594 27.878906 48.496094 C 27.695313 48.183594 27.359375 47.996094 27 48 C 24.570313 48 22.796875 47.503906 21.6875 46.6875 C 20.578125 45.871094 20 44.761719 20 43 L 20 33.375 C 26.871094 31.574219 32 25.421875 32 18 L 32 1 C 32 0.449219 31.550781 0 31 0 L 1 0 C 0.96875 0 0.9375 0 0.90625 0 C 0.875 0 0.84375 0 0.8125 0 Z"/></svg>