<svg fill="#000000" xmlns="http://www.w3.org/2000/svg"  viewBox="0 0 50 50" width="50px" height="50px"><path d="M 25 8 C 24.1505 8 23.438792 8.1219135 22.833984 8.4121094 C 22.229176 8.7023052 21.760341 9.1820012 21.486328 9.7109375 C 21.044112 10.564561 20.999019 11.461997 20.998047 12.357422 C 16.467296 13.181459 12.580775 15.446927 9.7109375 19.136719 C 6.1651251 23.69562 4.1733655 30.3524 4.0273438 39 L 2 39 L 2 41 L 48 41 L 48 39 L 45.972656 39 C 45.826635 30.3524 43.834876 23.69562 40.289062 19.136719 C 37.419225 15.446927 33.532704 13.181459 29.001953 12.357422 C 29.000982 11.461997 28.955889 10.564561 28.513672 9.7109375 C 28.239659 9.1820012 27.770824 8.7023052 27.166016 8.4121094 C 26.561208 8.1219135 25.8495 8 25 8 z M 25 10 C 25.6505 10 26.063792 10.102149 26.302734 10.216797 C 26.541676 10.331445 26.635341 10.435921 26.736328 10.630859 C 26.874915 10.898379 26.932961 11.446214 26.964844 12.087891 C 26.320106 12.033464 25.666005 12 25 12 C 24.333995 12 23.679894 12.033464 23.035156 12.087891 C 23.06704 11.446214 23.125087 10.898379 23.263672 10.630859 C 23.364659 10.435921 23.458324 10.331445 23.697266 10.216797 C 23.936208 10.102149 24.3495 10 25 10 z M 25 14 C 30.75 14 35.395119 16.100087 38.710938 20.363281 C 41.897669 24.460509 43.823965 30.667014 43.970703 39 L 6.0292969 39 C 6.1760348 30.667014 8.1023307 24.460509 11.289062 20.363281 C 14.604881 16.100087 19.25 14 25 14 z M 25 17.101562 L 22.101562 20 L 18 20 L 18 24.101562 L 15.101562 27 L 18 29.898438 L 18 34 L 22.101562 34 L 25 36.898438 L 27.898438 34 L 32 34 L 32 29.898438 L 34.898438 27 L 32 24.101562 L 32 20 L 27.898438 20 L 25 17.101562 z M 25 19.929688 L 27.070312 22 L 30 22 L 30 24.929688 L 32.070312 27 L 30 29.070312 L 30 29.484375 L 30 32 L 27.070312 32 L 25 34.070312 L 22.929688 32 L 20 32 L 20 29.070312 L 17.929688 27 L 20 24.929688 L 20 22 L 22.929688 22 L 25 19.929688 z"/></svg>