<svg fill="#000000" xmlns="http://www.w3.org/2000/svg"  viewBox="0 0 50 50" width="50px" height="50px"><path d="M 2.9472656 2.0332031 A 1.0001 1.0001 0 0 0 2.25 3.75 L 46.273438 47.773438 A 1.0001 1.0001 0 1 0 47.6875 46.359375 L 42.328125 41 L 48 41 L 48 39 L 45.972656 39 C 45.826635 30.3524 43.834876 23.69562 40.289062 19.136719 C 37.419225 15.446927 33.532704 13.181459 29.001953 12.357422 C 29.000982 11.461997 28.955889 10.564561 28.513672 9.7109375 C 28.239659 9.1820012 27.770824 8.7023052 27.166016 8.4121094 C 26.561208 8.1219135 25.8495 8 25 8 C 24.1505 8 23.438792 8.1219135 22.833984 8.4121094 C 22.229176 8.7023052 21.760341 9.1820012 21.486328 9.7109375 C 21.045721 10.561457 20.999341 11.455466 20.998047 12.347656 C 19.048225 12.69853 17.220668 13.321598 15.539062 14.210938 L 3.6640625 2.3359375 A 1.0001 1.0001 0 0 0 2.9472656 2.0332031 z M 25 10 C 25.6505 10 26.063792 10.102149 26.302734 10.216797 C 26.541676 10.331445 26.635341 10.435921 26.736328 10.630859 C 26.874915 10.898379 26.932961 11.446214 26.964844 12.087891 C 26.320106 12.033464 25.666005 12 25 12 C 24.333215 12 23.680516 12.036068 23.035156 12.089844 C 23.066991 11.447254 23.124951 10.89864 23.263672 10.630859 C 23.364659 10.435921 23.458324 10.331445 23.697266 10.216797 C 23.936208 10.102149 24.3495 10 25 10 z M 25 14 C 30.75 14 35.395119 16.100087 38.710938 20.363281 C 41.897669 24.460509 43.823965 30.667014 43.970703 39 L 40.328125 39 L 32 30.671875 L 32 29.900391 L 34.900391 27 L 32 24.099609 L 32 20 L 27.900391 20 L 25 17.099609 L 22.099609 20 L 21.328125 20 L 17.027344 15.699219 C 19.37061 14.575471 22.037775 14 25 14 z M 12.179688 16.509766 C 6.9779957 21.02371 4.1879632 28.698761 4.0175781 39 L 2 39 L 2 41 L 32 41 L 36.669922 41 L 34.669922 39 L 32 39 L 6.015625 39 C 6.1825122 29.24294 8.7838957 22.039388 13.599609 17.919922 L 12.179688 16.509766 z M 25 19.929688 L 27.070312 22 L 30 22 L 30 24.929688 L 32.070312 27 L 30.199219 28.871094 L 23.128906 21.800781 L 25 19.929688 z M 18 22.320312 L 18 24.099609 L 15.099609 27 L 18 29.900391 L 18 34 L 22.099609 34 L 25 36.900391 L 27.900391 34 L 29.669922 34 L 27.669922 32 L 27.070312 32 L 25 34.070312 L 22.929688 32 L 20 32 L 20 29.070312 L 17.929688 27 L 20 24.929688 L 20 24.320312 L 18 22.320312 z"/></svg>