<svg fill="#000000" xmlns="http://www.w3.org/2000/svg"  viewBox="0 0 50 50" width="50px" height="50px"><path d="M 24.984375 1.9863281 A 1.0001 1.0001 0 0 0 24.785156 2.0097656 A 1.0001 1.0001 0 0 0 24.78125 2.0117188 C 14.959591 2.1291842 7 10.048996 7 19.800781 C 7 21.452823 7.2934142 22.685386 7.8652344 23.583984 C 8.4370545 24.482583 9.3645994 25 10.267578 25 C 11.422302 25 12.14726 24.386442 13.203125 23.912109 C 13.898296 23.599814 14.681878 23.316487 15.558594 23.150391 C 15.2472 24.052347 15 25.08419 15 26.271484 C 15 28.100302 15.591797 29.396266 16.091797 30.478516 C 16.591797 31.560766 17 32.429474 17 33.847656 C 17 35.265839 16.591797 36.132594 16.091797 37.214844 C 15.591797 38.297094 15 39.59501 15 41.423828 C 15 42.498723 15.19582 43.463056 15.462891 44.302734 A 1.0001 1.0001 0 1 0 17.369141 43.697266 C 17.150211 43.008944 17 42.256934 17 41.423828 C 17 40.005646 17.408203 39.136938 17.908203 38.054688 C 18.408203 36.972437 19 35.676474 19 33.847656 C 19 32.018839 18.408203 30.720922 17.908203 29.638672 C 17.408203 28.556422 17 27.689667 17 26.271484 C 17 25.036284 17.330872 23.980121 17.728516 23.050781 C 18.82588 23.163411 19.653897 23.50594 20.601562 23.917969 C 21.330017 24.234688 22.159112 24.567482 23.136719 24.78125 C 23.056527 25.257517 23 25.753774 23 26.285156 C 23 28.118344 23.591797 29.418156 24.091797 30.503906 C 24.591797 31.589656 25 32.460953 25 33.884766 C 25 35.308578 24.591809 36.179974 24.091797 37.265625 C 23.591785 38.351276 23 39.65075 23 41.484375 C 23 43.318 23.565431 44.827345 24.091797 45.966797 C 24.35498 46.536523 24.609978 47.019852 24.779297 47.388672 C 24.948616 47.757492 25 48.021241 25 48 A 1.0001 1.0001 0 1 0 27 48 C 27 47.422259 26.801384 47.000758 26.595703 46.552734 C 26.390022 46.104711 26.14502 45.639602 25.908203 45.126953 C 25.434569 44.101655 25 42.90875 25 41.484375 C 25 40.06 25.408215 39.189114 25.908203 38.103516 C 26.408191 37.017917 27 35.717953 27 33.884766 C 27 32.051578 26.408203 30.751766 25.908203 29.666016 C 25.408203 28.580266 25 27.708969 25 26.285156 C 25 25.829706 25.054803 25.406035 25.130859 24.996094 C 26.956577 24.969357 28.27587 24.406042 29.398438 23.917969 C 30.129629 23.600059 30.792108 23.329298 31.554688 23.164062 C 31.24512 24.065267 31 25.095134 31 26.279297 C 31 28.110299 31.591797 29.407936 32.091797 30.492188 C 32.591797 31.576436 33 32.44619 33 33.867188 C 33 35.288184 32.591809 36.159989 32.091797 37.244141 C 31.591785 38.328292 31 39.625592 31 41.457031 C 31 42.515471 31.189164 43.468521 31.451172 44.300781 A 1.0003894 1.0003894 0 1 0 33.359375 43.699219 C 33.145383 43.019479 33 42.278592 33 41.457031 C 33 40.03547 33.408215 39.164177 33.908203 38.080078 C 34.408191 36.99598 35 35.698189 35 33.867188 C 35 32.036185 34.408203 30.738547 33.908203 29.654297 C 33.408203 28.570047 33 27.700295 33 26.279297 C 33 25.040276 33.332406 23.98159 33.730469 23.050781 C 34.9071 23.164256 35.919158 23.517985 36.796875 23.912109 C 37.853176 24.386425 38.577717 25 39.732422 25 C 40.635401 25 41.562945 24.482583 42.134766 23.583984 C 42.706586 22.685386 43 21.452823 43 19.800781 C 43 10.048996 35.040409 2.1291842 25.21875 2.0117188 A 1.0001 1.0001 0 0 0 25.212891 2.0097656 A 1.0001 1.0001 0 0 0 24.984375 1.9863281 z M 24 4.5800781 L 24 11 A 1.0001 1.0001 0 1 0 26 11 L 26 4.5800781 C 27.349486 5.1424331 29.680717 6.3990655 31.056641 10.330078 A 1.0001 1.0001 0 1 0 32.943359 9.6699219 C 32.159081 7.4292399 30.979815 5.8426157 29.792969 4.7207031 C 36.296903 6.7288045 41 12.716887 41 19.800781 C 41 21.20574 40.725445 22.072614 40.447266 22.509766 C 40.169086 22.946917 39.963443 23 39.732422 23 C 39.729127 23 38.787886 22.613575 37.617188 22.087891 C 36.515545 21.593214 35.073873 21.072172 33.328125 21.011719 A 1.0001 1.0001 0 0 0 33.140625 20.988281 A 1.0001 1.0001 0 0 0 32.941406 21.001953 C 32.940736 21.001958 32.940123 21.001949 32.939453 21.001953 C 31.076133 21.01458 29.738869 21.58755 28.601562 22.082031 C 27.451563 22.582031 26.503922 23 25 23 C 23.496078 23 22.548437 22.582031 21.398438 22.082031 C 20.316829 21.611766 19.0498 21.07462 17.326172 21.011719 A 1.0001 1.0001 0 0 0 17.140625 20.988281 A 1.0001 1.0001 0 0 0 16.941406 21.001953 C 16.940744 21.001957 16.940115 21.001949 16.939453 21.001953 C 15.071486 21.013987 13.542166 21.567944 12.384766 22.087891 C 11.214631 22.613558 10.274855 23 10.267578 23 C 10.036557 23 9.8309142 22.946917 9.5527344 22.509766 C 9.2745545 22.072614 9 21.20574 9 19.800781 C 9 12.716887 13.703097 6.7288045 20.207031 4.7207031 C 19.020687 5.8423024 17.840936 7.4291896 17.056641 9.6699219 A 1.0001 1.0001 0 1 0 18.943359 10.330078 C 20.319315 6.3990722 22.650514 5.1424331 24 4.5800781 z"/></svg>