<?xml version="1.0" encoding="UTF-8" standalone="no"?>
<!DOCTYPE svg PUBLIC "-//W3C//DTD SVG 1.1//EN" "http://www.w3.org/Graphics/SVG/1.1/DTD/svg11.dtd">
<svg width="100%" height="100%" viewBox="0 0 50 50" version="1.1" xmlns="http://www.w3.org/2000/svg" xmlns:xlink="http://www.w3.org/1999/xlink" xml:space="preserve" xmlns:serif="http://www.serif.com/" style="fill-rule:evenodd;clip-rule:evenodd;stroke-linejoin:round;stroke-miterlimit:2;">
    <path d="M12,2C8.698,2 6,4.698 6,8L6,42.418C6,45.592 8.832,48 12,48L44,48L44,46L12,46C9.842,46 8,44.378 8,42.418C8,40.458 9.8,39 12,39L44,39L44,2L12,2ZM12,4L42,4L42,37L12,37C10.507,37 9.092,37.538 8,38.418L8,8C8,5.78 9.78,4 12,4Z" style="fill-rule:nonzero;"/>
    <g transform="matrix(0.41494,0,0,0.41494,15.1069,10.6778)">
        <path d="M7.406,0C7.066,0.063 6.781,0.301 6.656,0.625C5.594,3.324 5,6.309 5,9.438C5,18.805 10.293,26.867 17.813,30.063C17.898,30.129 17.992,30.184 18.094,30.219C18.832,30.508 19.891,31.004 20.688,31.688C21.484,32.371 22,33.145 22,34.156L22,41.625C22,42.012 21.594,42.602 20.625,43.25C19.656,43.898 18.273,44.52 16.938,45.094C15.602,45.668 14.313,46.18 13.375,46.75C12.906,47.035 12.473,47.293 12.188,47.875C12.047,48.164 11.984,48.574 12.094,48.938C12.203,49.301 12.449,49.586 12.688,49.781C12.863,49.922 13.086,50 13.313,50L36.688,50C36.914,50 37.137,49.922 37.313,49.781C37.555,49.59 37.793,49.336 37.906,48.969C38.02,48.602 37.957,48.164 37.813,47.875C37.523,47.297 37.094,47.063 36.625,46.781C35.691,46.215 34.398,45.703 33.063,45.125C31.727,44.547 30.344,43.902 29.375,43.25C28.406,42.598 28,42.012 28,41.625L28,34.156C28,33.148 28.523,32.367 29.313,31.688C30.102,31.008 31.133,30.508 31.875,30.219C31.941,30.195 32.004,30.164 32.063,30.125C38.879,27.285 43.898,20.441 44.844,12.25L44.844,12.156C44.945,11.262 45,10.359 45,9.438C45,6.309 44.406,3.324 43.344,0.625C43.191,0.242 42.816,-0.004 42.406,0L7.406,0ZM8.344,2L41.656,2C42.488,4.309 43,6.797 43,9.438C43,9.988 42.977,10.523 42.938,11.063L7.063,11.063C7.023,10.523 7,9.988 7,9.438C7,6.797 7.512,4.309 8.344,2ZM7.313,13.063L42.688,13.063C41.152,22.469 33.793,29.531 25,29.531C16.207,29.531 8.848,22.469 7.313,13.063ZM26.906,31.406C26.371,32.172 26,33.082 26,34.156L26,41.625C26,43.086 27.059,44.105 28.25,44.906C29.441,45.707 30.922,46.352 32.281,46.938C33.23,47.348 33.902,47.668 34.594,48L15.406,48C16.098,47.668 16.77,47.344 17.719,46.938C19.078,46.355 20.527,45.703 21.719,44.906C22.91,44.109 24,43.086 24,41.625L24,34.156C24,33.105 23.645,32.199 23.125,31.438C23.738,31.5 24.371,31.531 25,31.531C25.641,31.531 26.281,31.473 26.906,31.406Z" style="fill-rule:nonzero;stroke:black;stroke-width:1.81px;"/>
    </g>
</svg>
