<svg xmlns="http://www.w3.org/2000/svg" width="50" height="50" fill="#000" viewBox="0 0 50 50"><path d="M 25 1 C 22.988281 1 21.339844 2.117188 20.257813 3.640625 C 19.546875 3.332031 18.832031 3 18 3 C 15.753906 3 13.847656 4.285156 12.824219 6.125 C 12.550781 6.078125 12.300781 6 12 6 C 8.699219 6 6 8.699219 6 12 C 6 12.152344 6.039063 12.285156 6.050781 12.433594 C 3.714844 13.253906 2 15.394531 2 18 C 2 19.070313 2.351563 20.027344 2.84375 20.890625 C 1.773438 21.96875 1 23.359375 1 25 C 1 26.859375 1.953125 28.417969 3.28125 29.515625 C 3.152344 29.996094 3 30.46875 3 31 C 3 33.605469 4.714844 35.746094 7.050781 36.566406 C 7.039063 36.714844 7 36.847656 7 37 C 7 40.300781 9.699219 43 13 43 C 13.007813 43 13.007813 43 13.015625 43 C 14.070313 44.730469 15.832031 46 18 46 C 18.617188 46 19.140625 45.761719 19.691406 45.582031 C 20.664063 47.578125 22.636719 49 25 49 C 27.363281 49 29.335938 47.578125 30.308594 45.582031 C 30.859375 45.761719 31.382813 46 32 46 C 34.167969 46 35.929688 44.730469 36.984375 43 C 36.992188 43 36.992188 43 37 43 C 40.300781 43 43 40.300781 43 37 C 43 36.847656 42.960938 36.714844 42.949219 36.566406 C 45.285156 35.746094 47 33.605469 47 31 C 47 30.46875 46.847656 29.996094 46.71875 29.515625 C 48.046875 28.417969 49 26.859375 49 25 C 49 23.359375 48.226563 21.96875 47.15625 20.890625 C 47.648438 20.027344 48 19.070313 48 18 C 48 15.753906 46.714844 13.847656 44.875 12.824219 C 44.921875 12.550781 45 12.300781 45 12 C 45 8.699219 42.300781 6 39 6 C 38.699219 6 38.449219 6.078125 38.175781 6.125 C 37.152344 4.285156 35.246094 3 33 3 C 31.898438 3 30.925781 3.382813 30.046875 3.898438 C 28.992188 2.183594 27.15625 1 25 1 Z M 25 3 C 26.734375 3 28.175781 4.097656 28.738281 5.632813 L 29.25 7.015625 L 30.347656 6.03125 C 31.0625 5.390625 31.976563 5 33 5 C 34.707031 5 36.144531 6.066406 36.71875 7.566406 L 37.046875 8.414063 L 37.921875 8.171875 C 38.300781 8.066406 38.652344 8 39 8 C 41.21875 8 43 9.78125 43 12 C 43 12.347656 42.933594 12.699219 42.828125 13.078125 L 42.589844 13.953125 L 43.433594 14.28125 C 44.933594 14.855469 46 16.292969 46 18 C 46 18.902344 45.691406 19.71875 45.175781 20.398438 L 44.570313 21.203125 L 45.375 21.800781 C 46.363281 22.539063 47 23.683594 47 25 C 47 26.429688 46.25 27.664063 45.125 28.375 L 44.433594 28.8125 L 44.722656 29.578125 C 44.898438 30.035156 45 30.507813 45 31 C 45 32.980469 43.578125 34.59375 41.699219 34.925781 L 40.667969 35.109375 L 40.894531 36.128906 C 40.960938 36.421875 41 36.710938 41 37 C 41 39.21875 39.21875 41 37 41 C 37.007813 41 36.910156 40.980469 36.671875 40.964844 L 35.960938 40.910156 L 35.679688 41.566406 C 35.070313 42.996094 33.660156 44 32 44 C 31.363281 44 30.769531 43.839844 30.214844 43.558594 L 29.152344 43.019531 L 28.804688 44.15625 C 28.304688 45.800781 26.808594 47 25 47 C 23.191406 47 21.695313 45.800781 21.195313 44.15625 L 20.847656 43.019531 L 19.785156 43.558594 C 19.230469 43.839844 18.636719 44 18 44 C 16.339844 44 14.929688 42.996094 14.320313 41.566406 L 14.039063 40.910156 L 13.328125 40.964844 C 13.089844 40.980469 12.992188 41 13 41 C 10.78125 41 9 39.21875 9 37 C 9 36.710938 9.039063 36.421875 9.101563 36.128906 L 9.332031 35.109375 L 8.300781 34.925781 C 6.421875 34.59375 5 32.980469 5 31 C 5 30.507813 5.101563 30.035156 5.273438 29.578125 L 5.570313 28.8125 L 4.875 28.375 C 3.75 27.664063 3 26.429688 3 25 C 3 23.683594 3.636719 22.539063 4.625 21.800781 L 5.429688 21.203125 L 4.820313 20.398438 C 4.308594 19.71875 4 18.902344 4 18 C 4 16.019531 5.421875 14.40625 7.300781 14.074219 L 8.332031 13.890625 L 8.101563 12.871094 C 8.039063 12.578125 8 12.289063 8 12 C 8 9.78125 9.78125 8 12 8 C 12.347656 8 12.699219 8.066406 13.078125 8.171875 L 13.953125 8.414063 L 14.28125 7.566406 C 14.855469 6.066406 16.292969 5 18 5 C 18.746094 5 19.4375 5.21875 20.050781 5.585938 L 20.96875 6.140625 L 21.457031 5.1875 C 22.125 3.890625 23.445313 3 25 3 Z M 18.03125 15 C 17.730469 14.992188 17.441406 15.117188 17.246094 15.34375 C 17.050781 15.566406 16.964844 15.867188 17.015625 16.164063 C 17.015625 16.164063 17.074219 16.566406 16.824219 16.996094 C 16.574219 17.425781 16.027344 18 14 18 C 13.996094 18 13.992188 18 13.988281 18 C 13.082031 18.007813 11.8125 18.097656 10.703125 18.277344 C 10.152344 18.367188 9.644531 18.472656 9.199219 18.636719 C 8.976563 18.714844 8.765625 18.804688 8.539063 18.976563 C 8.316406 19.148438 8 19.492188 8 20 C 8 21.734375 8.808594 23.152344 10.078125 23.9375 C 11.160156 24.605469 12.53125 24.84375 14.03125 24.925781 C 14.921875 28.234375 16.308594 31.960938 18.0625 35.027344 C 18.996094 36.660156 20.019531 38.097656 21.152344 39.171875 C 22.285156 40.25 23.570313 41 25 41 C 26.433594 41 27.722656 40.246094 28.859375 39.167969 C 29.992188 38.085938 31.019531 36.640625 31.953125 35 C 33.691406 31.960938 35.050781 28.277344 35.941406 24.996094 C 35.960938 24.996094 35.980469 25 36 25 C 37.875 25 39.535156 24.761719 40.84375 23.984375 C 42.15625 23.207031 43 21.769531 43 20 C 43 19.492188 42.6875 19.148438 42.460938 18.976563 C 42.234375 18.804688 42.027344 18.71875 41.800781 18.636719 C 41.355469 18.46875 40.851563 18.363281 40.296875 18.269531 C 39.1875 18.089844 37.917969 18 37 18 C 36.699219 18 36.410156 18.003906 36.125 18.007813 C 36.082031 18.003906 36.042969 18 36 18 C 34.320313 18 33.722656 17.441406 33.371094 16.933594 C 33.019531 16.425781 33 15.957031 33 15.957031 C 32.980469 15.515625 32.675781 15.140625 32.246094 15.03125 C 31.820313 14.921875 31.371094 15.105469 31.140625 15.484375 C 31.140625 15.484375 30.46875 16.523438 29.550781 16.980469 C 29.09375 17.210938 28.636719 17.308594 28.046875 17.144531 C 27.460938 16.984375 26.691406 16.515625 25.78125 15.375 C 25.589844 15.136719 25.304688 15 25 15 C 24.695313 15 24.410156 15.136719 24.21875 15.375 C 23.308594 16.515625 22.539063 16.984375 21.953125 17.144531 C 21.363281 17.308594 20.90625 17.210938 20.449219 16.980469 C 19.53125 16.523438 18.859375 15.484375 18.859375 15.484375 C 18.683594 15.195313 18.371094 15.011719 18.03125 15 Z M 25 17.394531 C 25.835938 18.226563 26.675781 18.839844 27.515625 19.074219 C 28.613281 19.378906 29.65625 19.164063 30.449219 18.769531 C 30.972656 18.507813 31.28125 18.160156 31.636719 17.828125 C 31.699219 17.945313 31.640625 17.949219 31.722656 18.066406 C 32.347656 18.972656 33.65625 19.761719 35.546875 19.902344 C 35.691406 19.976563 35.855469 20.011719 36.015625 20.011719 C 36.339844 20.003906 36.664063 20 37 20 C 37.777344 20 39.007813 20.089844 39.972656 20.246094 C 40.371094 20.3125 40.664063 20.390625 40.90625 20.464844 C 40.800781 21.320313 40.492188 21.871094 39.828125 22.265625 C 39.027344 22.738281 37.6875 23 36 23 C 35.8125 23 35.601563 22.984375 35.367188 22.953125 C 34.863281 22.882813 34.386719 23.203125 34.261719 23.699219 C 33.4375 26.988281 31.964844 30.949219 30.21875 34.007813 C 29.34375 35.539063 28.398438 36.839844 27.480469 37.71875 C 26.558594 38.59375 25.707031 39 25 39 C 24.292969 39 23.445313 38.59375 22.53125 37.722656 C 21.613281 36.851563 20.667969 35.554688 19.796875 34.03125 C 18.054688 30.988281 16.582031 27.042969 15.75 23.75 C 15.640625 23.3125 15.25 23 14.796875 22.996094 C 13.167969 22.976563 11.886719 22.703125 11.125 22.234375 C 10.492188 21.839844 10.195313 21.300781 10.09375 20.46875 C 10.335938 20.394531 10.628906 20.316406 11.023438 20.25 C 11.988281 20.097656 13.210938 20.007813 14 20 C 16.472656 20 17.925781 19.074219 18.550781 18.003906 C 18.554688 17.996094 18.550781 17.988281 18.558594 17.984375 C 18.878906 18.257813 19.113281 18.550781 19.550781 18.769531 C 20.34375 19.164063 21.386719 19.378906 22.484375 19.074219 C 23.324219 18.839844 24.164063 18.226563 25 17.394531 Z M 19.003906 23.015625 C 18.40625 23.066406 18 23.261719 18 24 C 18 25.105469 18.894531 26 20 26 C 21.105469 26 22 25.105469 22 24 C 22 23.261719 21.59375 23.066406 20.996094 23.015625 C 20.984375 23.5625 20.546875 24 20 24 C 19.453125 24 19.015625 23.5625 19.003906 23.015625 Z M 29.003906 23.015625 C 28.40625 23.066406 28 23.261719 28 24 C 28 25.105469 28.894531 26 30 26 C 31.105469 26 32 25.105469 32 24 C 32 23.261719 31.59375 23.066406 30.996094 23.015625 C 30.984375 23.5625 30.546875 24 30 24 C 29.453125 24 29.015625 23.5625 29.003906 23.015625 Z M 24 34 C 23.640625 33.996094 23.304688 34.183594 23.121094 34.496094 C 22.941406 34.808594 22.941406 35.191406 23.121094 35.503906 C 23.304688 35.816406 23.640625 36.003906 24 36 L 26 36 C 26.359375 36.003906 26.695313 35.816406 26.878906 35.503906 C 27.058594 35.191406 27.058594 34.808594 26.878906 34.496094 C 26.695313 34.183594 26.359375 33.996094 26 34 Z"/></svg>