<svg xmlns="http://www.w3.org/2000/svg" width="50" height="50" fill="#000" viewBox="0 0 50 50"><path d="M 22.847656 5.0195312 C 17.734586 5.0468784 12.548276 7.0800158 8.5644531 11.064453 C 1.9582528 17.671673 0.76849982 27.562178 5.1386719 34.964844 C 3.6385232 36.75409 3.6943639 39.428739 5.3828125 41.117188 C 7.0701917 42.804566 9.7418993 42.859464 11.53125 41.363281 C 14.859427 43.328585 18.679211 44.187869 22.490234 43.912109 C 25.206322 45.86035 28.479399 47 32 47 C 41.374 47 49 38.925 49 29 L 49 28 L 40.964844 28 C 42.049803 23.248739 41.328824 18.255978 38.849609 14.050781 C 40.363235 12.261673 40.310443 9.5760683 38.617188 7.8828125 C 36.928455 6.195281 34.253623 6.1390044 32.464844 7.6386719 C 29.823812 6.0792013 26.884951 5.1831838 23.869141 5.0410156 C 23.5293 5.0249952 23.188528 5.0177081 22.847656 5.0195312 z M 22.300781 7.03125 C 25.729978 6.905478 29.136422 7.7819056 32.041016 9.6640625 L 32.71875 10.103516 L 33.558594 9.2636719 C 34.558138 8.2641276 36.174448 8.2689297 37.203125 9.296875 C 38.232102 10.325852 38.237324 11.940413 37.236328 12.941406 L 36.396484 13.78125 L 36.835938 14.458984 C 39.416963 18.442957 40.082714 23.363266 38.888672 28 L 15 28 L 15 29 C 15 34.085645 17.010838 38.67646 20.224609 41.953125 C 17.301269 41.814766 14.446843 40.947554 11.958984 39.335938 L 11.28125 38.896484 L 10.441406 39.736328 C 9.4405544 40.736459 7.825852 40.732102 6.796875 39.703125 C 5.767898 38.674148 5.7626787 37.059587 6.7636719 36.058594 L 7.6035156 35.21875 L 7.1640625 34.541016 C 2.8629092 27.901911 3.8154761 18.642506 9.9785156 12.478516 C 13.445171 9.0113254 17.891813 7.1929569 22.300781 7.03125 z M 18.117188 30 L 28.478516 30 L 19.191406 34.871094 C 18.680406 35.139094 18.055094 34.879031 17.871094 34.332031 C 17.527094 33.309031 17.276766 32.240766 17.134766 31.134766 C 17.057766 30.535766 17.514188 30 18.117188 30 z M 35.386719 30 L 45.980469 30 C 46.533469 30 46.945906 30.488109 46.878906 31.037109 C 46.734906 32.223109 46.464844 33.368984 46.089844 34.458984 C 45.898844 35.011984 45.264047 35.271094 44.748047 34.996094 L 35.386719 30 z M 34.029297 30.976562 L 44.189453 36.398438 C 44.679453 36.660438 44.828109 37.278953 44.537109 37.751953 C 43.766109 39.004953 42.834438 40.132422 41.773438 41.107422 C 41.293438 41.547422 40.5305 41.447531 40.1875 40.894531 L 34.029297 30.976562 z M 29.830078 30.984375 L 23.466797 40.876953 C 23.170797 41.336953 22.533766 41.402297 22.134766 41.029297 C 21.080766 40.042297 20.158484 38.900719 19.396484 37.636719 C 19.104484 37.153719 19.260766 36.529578 19.759766 36.267578 L 29.830078 30.984375 z M 31.25 31.552734 L 31.25 43.919922 C 31.25 44.502922 30.731297 44.935375 30.154297 44.859375 C 28.325297 44.620375 26.59625 44.031344 25.03125 43.152344 C 24.53825 42.875344 24.367828 42.250391 24.673828 41.775391 L 31.25 31.552734 z M 32.75 31.759766 L 39 41.824219 C 39.334 42.362219 39.135219 43.068328 38.574219 43.361328 C 37.131219 44.115328 35.559344 44.627563 33.902344 44.851562 C 33.295344 44.933563 32.75 44.469422 32.75 43.857422 L 32.75 31.759766 z"/></svg>