<svg xmlns="http://www.w3.org/2000/svg" width="50" height="50" fill="#000" viewBox="0 0 50 50"><path d="M 0.90625 -0.03125 C 0.863281 -0.0234375 0.820313 -0.0117188 0.78125 0 C 0.40625 0.0664063 0.105469 0.339844 0 0.703125 C -0.105469 1.070313 0.00390625 1.460938 0.28125 1.71875 L 48.28125 49.71875 C 48.679688 50.117188 49.320313 50.117188 49.71875 49.71875 C 50.117188 49.320313 50.117188 48.679688 49.71875 48.28125 L 41.59375 40.1875 C 41.59375 40.175781 41.59375 40.167969 41.59375 40.15625 C 43.179688 37.09375 44 33.425781 44 29 C 44 22.125 41.699219 14.96875 38.21875 9.46875 C 34.738281 3.96875 30.042969 0 25 0 C 19.78125 0 14.921875 4.183594 11.4375 10 L 1.71875 0.28125 C 1.511719 0.0585938 1.210938 -0.0546875 0.90625 -0.03125 Z M 25 2 C 28.957031 2 33.261719 5.390625 36.53125 10.5625 C 39.800781 15.734375 42 22.574219 42 29 C 42 32.882813 41.328125 36.03125 40.09375 38.65625 L 12.90625 11.46875 C 16.203125 5.769531 20.777344 2 25 2 Z M 9.78125 14.28125 C 9.417969 14.324219 9.105469 14.5625 8.96875 14.90625 C 7.121094 19.316406 6 24.242188 6 29 C 6 35.851563 8.09375 41.140625 11.5625 44.6875 C 15.03125 48.234375 19.824219 50 25 50 C 30.347656 50 35.34375 48.007813 38.84375 44.1875 C 39.222656 43.78125 39.203125 43.144531 38.796875 42.765625 C 38.390625 42.386719 37.753906 42.40625 37.375 42.8125 C 34.277344 46.191406 29.851563 48 25 48 C 20.277344 48 16.058594 46.410156 13 43.28125 C 9.941406 40.152344 8 35.445313 8 29 C 8 24.558594 9.058594 19.875 10.8125 15.6875 C 10.960938 15.359375 10.921875 14.972656 10.707031 14.683594 C 10.496094 14.390625 10.140625 14.238281 9.78125 14.28125 Z"/></svg>