<svg xmlns="http://www.w3.org/2000/svg" width="50" height="50" fill="#000" viewBox="0 0 50 50"><path d="M 0.90625 -0.03125 C 0.863281 -0.0234375 0.820313 -0.0117188 0.78125 0 C 0.40625 0.0664063 0.105469 0.339844 0 0.703125 C -0.105469 1.070313 0.00390625 1.460938 0.28125 1.71875 L 16.53125 17.96875 C 16.519531 17.976563 16.511719 17.992188 16.5 18 L 18.09375 19.5 L 35.1875 36.59375 L 48.28125 49.71875 C 48.679688 50.117188 49.320313 50.117188 49.71875 49.71875 C 50.117188 49.320313 50.117188 48.679688 49.71875 48.28125 L 37.53125 36.09375 C 42.0625 34.871094 45.492188 32.519531 47.8125 29 C 48.511719 28 49.394531 26.699219 48.09375 24.5 C 45.472656 19.796875 41.621094 16.636719 36.65625 15.0625 C 36.261719 13.472656 34.5625 8.085938 29.1875 7.03125 C 29.097656 7.007813 29 6.996094 28.90625 7 C 28.851563 7.007813 28.800781 7.015625 28.75 7.03125 L 16.75 10.125 C 16.304688 10.230469 15.988281 10.625 15.980469 11.082031 C 15.976563 11.539063 16.277344 11.941406 16.71875 12.0625 C 16.839844 12.097656 17.691406 12.574219 18.15625 13.40625 C 18.585938 14.171875 18.804688 15.25 18.28125 16.84375 L 1.71875 0.28125 C 1.511719 0.0585938 1.210938 -0.0546875 0.90625 -0.03125 Z M 28.96875 9.03125 C 32.210938 9.761719 33.722656 12.6875 34.375 14.46875 C 32.578125 14.097656 30.644531 13.90625 28.59375 13.90625 C 25.808594 13.90625 23.035156 14.691406 20.53125 15.8125 C 20.65625 14.464844 20.398438 13.316406 19.90625 12.4375 C 19.695313 12.058594 19.433594 11.84375 19.1875 11.5625 Z M 28.6875 15.90625 C 41.085938 15.90625 45.105469 23.101563 46.40625 25.5 C 47.007813 26.601563 46.789063 27.007813 46.1875 27.90625 C 43.871094 31.25 40.53125 33.414063 35.90625 34.46875 L 19.90625 18.46875 C 22.558594 17.035156 25.609375 15.90625 28.6875 15.90625 Z M 2.8125 16.40625 C 2.414063 16.40625 1.800781 16.59375 1.5 17.09375 C 1.199219 17.59375 1.289063 18.300781 1.6875 19 C 3.289063 21.699219 4.09375 24.011719 4.09375 25.8125 C 4.09375 28.210938 2.601563 31.6875 1.5 33.1875 C 1.101563 33.789063 1.011719 34.398438 1.3125 35 C 1.613281 35.5 2.113281 35.8125 2.8125 35.8125 C 8.3125 35.8125 10.8125 32.199219 11.8125 30 C 13.8125 31.800781 18.394531 35.292969 24.09375 36.59375 C 24.695313 37.695313 24.394531 38.992188 24.09375 40.09375 C 23.894531 40.992188 23.6875 41.800781 24.1875 42.5 C 24.386719 42.699219 24.804688 43 25.40625 43 L 29 43 C 29.199219 43 29.398438 42.90625 29.5 42.90625 C 29.5 42.90625 29.585938 42.8125 29.6875 42.8125 C 31.988281 41.710938 33.507813 40.292969 34.40625 38.59375 L 32.8125 37.09375 C 32.011719 39.394531 29.710938 40.601563 28.8125 41 L 25.8125 41 C 25.8125 40.898438 25.90625 40.695313 25.90625 40.59375 C 26.105469 39.695313 26.386719 38.398438 26.1875 37 C 26.988281 37.101563 27.789063 37.1875 28.6875 37.1875 C 30.085938 37.1875 31.511719 37.09375 32.8125 37.09375 L 30.90625 35.1875 C 30.207031 35.1875 29.488281 35.3125 28.6875 35.3125 C 19.585938 35.3125 12.101563 27.695313 12 27.59375 C 11.800781 27.394531 11.613281 27.3125 11.3125 27.3125 L 11 27.3125 C 10.601563 27.414063 10.414063 27.699219 10.3125 28 C 10.210938 28.199219 9 33.289063 3.5 33.6875 C 4.699219 31.789063 6 28.511719 6 25.8125 C 6 23.710938 5.199219 21.304688 3.5 18.40625 C 7.699219 19.007813 10.210938 23.90625 10.3125 23.90625 C 10.414063 24.207031 10.699219 24.40625 11 24.40625 C 11.300781 24.40625 11.605469 24.292969 11.90625 24.09375 C 11.90625 24.09375 13.710938 22.394531 16.3125 20.59375 L 14.90625 19.1875 C 13.40625 20.1875 12.199219 21.207031 11.5 21.90625 C 10.199219 20.007813 7.3125 16.40625 2.8125 16.40625 Z M 38 23 C 36.894531 23 36 23.894531 36 25 C 36 26.105469 36.894531 27 38 27 C 39.105469 27 40 26.105469 40 25 C 40 23.894531 39.105469 23 38 23 Z"/></svg>