<svg fill="#000000" xmlns="http://www.w3.org/2000/svg"  viewBox="0 0 50 50" width="50px" height="50px"><path d="M 1 0 C 0.746094 0 0.488281 0.0976563 0.292969 0.292969 C -0.0976563 0.683594 -0.0976563 1.316406 0.292969 1.707031 L 48.292969 49.707031 C 48.488281 49.902344 48.742188 50 49 50 C 49.257813 50 49.511719 49.902344 49.707031 49.707031 C 50.097656 49.316406 50.097656 48.683594 49.707031 48.292969 L 37.507813 36.09375 C 41.898438 33.886719 46.308594 31.515625 46.308594 25.542969 C 46.308594 19.601563 40.164063 14.769531 32.613281 14.769531 C 30.886719 14.769531 29.191406 15.03125 27.597656 15.535156 C 27.722656 15.066406 27.859375 14.558594 28.089844 13.816406 C 28.089844 13.816406 28.089844 13.816406 28.089844 13.8125 C 28.300781 13.136719 28.527344 12.460938 28.820313 11.992188 C 29.113281 11.523438 29.382813 11.277344 29.886719 11.1875 C 29.847656 11.191406 30.96875 11.386719 31.796875 10.5625 C 31.796875 10.558594 31.800781 10.554688 31.804688 10.550781 C 31.859375 10.566406 31.855469 10.609375 31.917969 10.617188 C 32.363281 10.683594 32.773438 10.398438 33.15625 10.148438 C 33.535156 10.390625 33.957031 10.542969 34.398438 10.621094 C 34.980469 10.71875 35.601563 10.546875 36.015625 10.078125 C 36.269531 10.183594 36.402344 10.320313 36.699219 10.386719 C 37.128906 10.480469 37.632813 10.546875 38.1875 10.277344 C 38.742188 10.003906 39.109375 9.308594 39.125 8.679688 C 39.128906 8.679688 39.128906 8.679688 39.125 8.679688 C 39.140625 8.210938 38.90625 7.835938 38.742188 7.433594 C 38.789063 7.429688 38.820313 7.449219 38.871094 7.445313 C 39.824219 7.339844 40.71875 6.601563 40.96875 5.597656 C 41.144531 4.898438 40.984375 4.191406 40.699219 3.699219 C 40.496094 3.34375 40.253906 3.128906 40.027344 2.898438 C 40.058594 2.53125 40.09375 2.097656 39.890625 1.882813 C 39.613281 1.589844 39.382813 1.53125 39.1875 1.46875 C 39.089844 1.441406 39.042969 1.449219 38.953125 1.429688 C 38.953125 1.402344 38.980469 1.402344 38.972656 1.375 C 38.894531 0.855469 38.46875 0.480469 38.160156 0.34375 C 37.851563 0.203125 37.59375 0.167969 37.351563 0.148438 C 36.867188 0.113281 36.421875 0.164063 36.277344 0.175781 C 36.269531 0.175781 36.265625 0.175781 36.261719 0.179688 C 36.039063 0.199219 35.824219 0.367188 35.597656 0.421875 C 35.578125 0.394531 35.589844 0.351563 35.5625 0.332031 C 35.5625 0.328125 35.5625 0.328125 35.5625 0.328125 C 35.214844 0.0195313 34.890625 0.0078125 34.660156 0 C 34.429688 -0.0078125 34.246094 0.0234375 34.074219 0.0585938 C 33.734375 0.121094 33.4375 0.222656 33.355469 0.246094 C 32.753906 0.410156 32.105469 0.621094 31.46875 0.984375 C 31.335938 1.058594 31.324219 1.113281 31.214844 1.191406 C 31.210938 1.191406 31.207031 1.191406 31.203125 1.1875 C 30.597656 1.058594 30.089844 1.273438 29.699219 1.515625 C 29.304688 1.761719 28.980469 2.078125 28.695313 2.421875 C 28.523438 2.628906 28.402344 2.855469 28.265625 3.078125 C 27.984375 3.140625 27.652344 3.171875 27.519531 3.296875 C 27.519531 3.296875 27.519531 3.296875 27.515625 3.296875 C 27.214844 3.582031 26.414063 4.449219 25.589844 6.195313 C 25.390625 6.613281 25.199219 7.089844 25.015625 7.605469 C 24.722656 6.957031 24.417969 6.339844 24.125 5.808594 C 23.75 5.132813 23.398438 4.566406 23.125 4.152344 C 22.984375 3.945313 22.867188 3.777344 22.769531 3.644531 C 22.675781 3.515625 22.695313 3.496094 22.480469 3.296875 C 22.347656 3.171875 22.015625 3.144531 21.734375 3.078125 C 21.597656 2.855469 21.476563 2.628906 21.304688 2.421875 C 21.019531 2.078125 20.691406 1.761719 20.300781 1.515625 C 19.910156 1.273438 19.402344 1.058594 18.792969 1.1875 C 18.789063 1.191406 18.785156 1.191406 18.78125 1.191406 C 18.671875 1.113281 18.664063 1.058594 18.527344 0.984375 C 17.894531 0.621094 17.246094 0.410156 16.640625 0.246094 C 16.5625 0.222656 16.261719 0.121094 15.921875 0.0585938 C 15.753906 0.0234375 15.566406 -0.0078125 15.339844 0 C 15.109375 0.0078125 14.785156 0.0195313 14.4375 0.328125 C 14.414063 0.351563 14.421875 0.394531 14.402344 0.421875 C 14.175781 0.367188 13.960938 0.199219 13.738281 0.179688 C 13.734375 0.175781 13.730469 0.175781 13.726563 0.179688 C 13.574219 0.164063 13.132813 0.113281 12.648438 0.148438 C 12.40625 0.167969 12.144531 0.203125 11.835938 0.34375 C 11.527344 0.480469 11.101563 0.855469 11.019531 1.375 C 11.015625 1.402344 11.046875 1.40625 11.042969 1.433594 C 10.957031 1.453125 10.90625 1.441406 10.8125 1.46875 C 10.617188 1.53125 10.386719 1.589844 10.109375 1.882813 C 9.90625 2.09375 9.941406 2.527344 9.976563 2.894531 C 9.746094 3.128906 9.507813 3.34375 9.300781 3.699219 C 9.015625 4.191406 8.855469 4.898438 9.03125 5.597656 C 9.28125 6.605469 10.175781 7.34375 11.132813 7.445313 C 11.132813 7.445313 11.136719 7.445313 11.136719 7.445313 C 11.183594 7.453125 11.210938 7.433594 11.257813 7.4375 C 11.09375 7.839844 10.859375 8.210938 10.875 8.679688 C 10.871094 8.679688 10.871094 8.679688 10.875 8.679688 C 10.890625 9.308594 11.257813 10.003906 11.8125 10.277344 C 12.367188 10.546875 12.871094 10.480469 13.300781 10.386719 C 13.597656 10.320313 13.730469 10.179688 13.984375 10.078125 C 14.398438 10.546875 15.023438 10.722656 15.605469 10.621094 C 16.042969 10.546875 16.46875 10.390625 16.84375 10.148438 C 17.230469 10.398438 17.636719 10.683594 18.082031 10.617188 C 18.085938 10.617188 18.085938 10.617188 18.085938 10.617188 C 18.144531 10.609375 18.140625 10.566406 18.199219 10.550781 C 18.199219 10.558594 18.203125 10.5625 18.207031 10.5625 C 19.03125 11.390625 20.152344 11.191406 20.121094 11.1875 C 20.359375 11.234375 21.332031 11.921875 22.046875 13.097656 C 22.511719 13.859375 22.886719 14.796875 23.121094 15.785156 C 21.320313 15.117188 19.378906 14.769531 17.386719 14.769531 C 16.996094 14.769531 16.609375 14.789063 16.230469 14.8125 L 1.707031 0.292969 C 1.511719 0.0976563 1.253906 0 1 0 Z M 38.222656 1.3125 L 38.253906 1.3125 C 38.242188 1.3125 38.253906 1.316406 38.246094 1.3125 C 38.238281 1.3125 38.230469 1.3125 38.222656 1.3125 Z M 13.472656 2.167969 C 13.492188 2.167969 13.527344 2.167969 13.546875 2.171875 C 13.988281 2.214844 14.519531 2.394531 14.8125 2.613281 C 15.054688 2.789063 15.355469 2.847656 15.644531 2.777344 C 15.933594 2.707031 16.175781 2.515625 16.304688 2.25 C 16.753906 2.378906 17.183594 2.515625 17.535156 2.71875 C 17.539063 2.722656 17.542969 2.722656 17.546875 2.726563 C 17.769531 2.847656 18.011719 3.152344 18.503906 3.546875 C 18.835938 3.8125 19.304688 3.835938 19.664063 3.609375 C 19.703125 3.648438 19.734375 3.660156 19.769531 3.703125 C 19.957031 3.925781 20.125 4.183594 20.230469 4.398438 C 20.332031 4.609375 20.34375 4.792969 20.347656 4.699219 C 20.339844 5.03125 20.496094 5.347656 20.769531 5.542969 C 21.039063 5.734375 21.390625 5.78125 21.703125 5.664063 C 21.910156 5.992188 22.121094 6.316406 22.375 6.773438 C 23.042969 7.984375 23.773438 9.582031 24.175781 11.191406 C 24.117188 11.644531 24.070313 12.109375 24.042969 12.597656 C 23.945313 12.421875 23.859375 12.226563 23.753906 12.058594 C 22.871094 10.601563 21.855469 9.476563 20.484375 9.21875 C 20.480469 9.21875 20.480469 9.21875 20.480469 9.21875 C 20.3125 9.1875 20.410156 9.214844 20.304688 9.203125 C 20.558594 8.882813 20.589844 8.4375 20.378906 8.082031 C 20.171875 7.726563 19.769531 7.535156 19.363281 7.601563 C 19.109375 7.640625 19.085938 7.773438 18.921875 7.867188 L 18.894531 7.804688 C 18.785156 7.894531 18.804688 7.910156 18.765625 7.957031 C 18.539063 8.117188 18.199219 8.25 18.0625 8.375 C 17.957031 8.476563 18 8.449219 17.941406 8.492188 C 17.941406 8.476563 17.941406 8.488281 17.9375 8.476563 C 17.882813 8.039063 17.550781 7.6875 17.117188 7.613281 C 16.683594 7.539063 16.253906 7.757813 16.054688 8.148438 C 16.03125 8.191406 15.824219 8.289063 15.660156 8.398438 C 15.570313 8.089844 15.339844 7.84375 15.035156 7.734375 C 14.730469 7.625 14.394531 7.671875 14.128906 7.851563 C 13.964844 7.96875 13.359375 8.273438 12.953125 8.390625 C 12.996094 8.191406 13.035156 7.957031 13.203125 7.695313 C 13.421875 7.34375 13.75 7.070313 13.835938 7.03125 C 14.285156 6.839844 14.527344 6.351563 14.414063 5.875 C 14.296875 5.402344 13.851563 5.082031 13.363281 5.117188 C 12.902344 5.152344 12.511719 5.273438 12.152344 5.355469 C 11.789063 5.4375 11.464844 5.472656 11.359375 5.460938 C 11.355469 5.460938 11.351563 5.460938 11.347656 5.460938 C 11.085938 5.429688 11.046875 5.421875 10.96875 5.117188 C 10.96875 5.113281 10.96875 5.109375 10.96875 5.105469 C 10.917969 4.90625 10.933594 4.867188 11.03125 4.699219 C 11.132813 4.53125 11.355469 4.285156 11.640625 4.003906 C 11.644531 4.003906 11.644531 4 11.644531 4 C 11.773438 3.875 11.902344 3.789063 12.03125 3.4375 C 12.042969 3.402344 12.019531 3.335938 12.03125 3.296875 C 12.054688 3.292969 12.085938 3.292969 12.160156 3.28125 C 12.308594 3.265625 12.441406 3.246094 12.578125 3.210938 C 12.726563 3.175781 12.90625 3.167969 13.183594 2.890625 C 13.320313 2.75 13.464844 2.492188 13.484375 2.226563 C 13.488281 2.203125 13.472656 2.195313 13.472656 2.167969 Z M 36.527344 2.167969 C 36.527344 2.195313 36.511719 2.203125 36.515625 2.226563 C 36.535156 2.492188 36.679688 2.75 36.816406 2.890625 C 37.09375 3.167969 37.273438 3.175781 37.421875 3.210938 C 37.554688 3.246094 37.679688 3.261719 37.824219 3.28125 C 37.914063 3.292969 37.945313 3.296875 37.96875 3.296875 C 37.976563 3.335938 37.957031 3.402344 37.96875 3.4375 C 38.09375 3.789063 38.226563 3.875 38.351563 4 C 38.351563 4.003906 38.355469 4.003906 38.359375 4.007813 C 38.644531 4.289063 38.871094 4.53125 38.96875 4.699219 C 39.0625 4.867188 39.082031 4.90625 39.03125 5.105469 C 39.03125 5.109375 39.03125 5.113281 39.03125 5.117188 C 38.953125 5.421875 38.910156 5.429688 38.652344 5.460938 C 38.648438 5.457031 38.644531 5.457031 38.640625 5.460938 C 38.535156 5.472656 38.210938 5.4375 37.847656 5.355469 C 37.488281 5.273438 37.101563 5.152344 36.636719 5.117188 C 36.148438 5.082031 35.703125 5.402344 35.585938 5.875 C 35.472656 6.351563 35.714844 6.839844 36.164063 7.03125 C 36.25 7.070313 36.578125 7.339844 36.796875 7.691406 C 36.964844 7.957031 37.003906 8.191406 37.046875 8.390625 C 36.640625 8.273438 36.035156 7.96875 35.871094 7.851563 C 35.605469 7.671875 35.269531 7.625 34.964844 7.734375 C 34.660156 7.84375 34.429688 8.089844 34.339844 8.398438 C 34.175781 8.289063 33.96875 8.191406 33.945313 8.148438 C 33.746094 7.757813 33.316406 7.539063 32.882813 7.613281 C 32.449219 7.6875 32.117188 8.039063 32.0625 8.476563 C 32.058594 8.488281 32.058594 8.476563 32.058594 8.492188 C 32 8.449219 32.042969 8.476563 31.9375 8.375 C 31.800781 8.25 31.460938 8.113281 31.230469 7.953125 C 31.191406 7.90625 31.210938 7.890625 31.101563 7.804688 L 31.078125 7.859375 C 30.910156 7.769531 30.886719 7.640625 30.640625 7.601563 C 30.230469 7.535156 29.828125 7.722656 29.617188 8.078125 C 29.410156 8.433594 29.4375 8.882813 29.691406 9.203125 C 29.585938 9.21875 29.683594 9.1875 29.515625 9.21875 C 28.40625 9.425781 27.601563 10.160156 27.121094 10.933594 C 26.640625 11.707031 26.390625 12.539063 26.179688 13.222656 C 26.085938 13.527344 26.082031 13.5625 26.011719 13.8125 C 26.03125 10.753906 26.703125 8.523438 27.398438 7.046875 C 27.824219 6.140625 28.003906 6.03125 28.296875 5.664063 C 28.609375 5.78125 28.957031 5.734375 29.230469 5.542969 C 29.503906 5.347656 29.660156 5.03125 29.652344 4.699219 C 29.652344 4.792969 29.667969 4.609375 29.769531 4.398438 C 29.875 4.183594 30.042969 3.925781 30.226563 3.703125 C 30.265625 3.660156 30.296875 3.648438 30.332031 3.605469 C 30.695313 3.835938 31.160156 3.8125 31.496094 3.546875 C 31.984375 3.15625 32.230469 2.851563 32.453125 2.726563 C 32.457031 2.722656 32.460938 2.722656 32.464844 2.71875 C 32.816406 2.515625 33.242188 2.378906 33.695313 2.246094 C 33.824219 2.511719 34.066406 2.707031 34.355469 2.777344 C 34.640625 2.847656 34.945313 2.789063 35.183594 2.613281 C 35.476563 2.394531 36.011719 2.214844 36.457031 2.171875 C 36.476563 2.167969 36.507813 2.167969 36.527344 2.167969 Z M 9.921875 3.25 C 9.921875 3.25 9.925781 3.25 9.925781 3.25 C 9.925781 3.253906 9.925781 3.257813 9.925781 3.257813 Z M 11.667969 15.765625 C 6.96875 17.476563 3.691406 21.210938 3.691406 25.546875 C 3.691406 31.730469 8.355469 34.050781 12.863281 36.296875 C 17.851563 38.773438 23.007813 41.335938 24.011719 49.019531 C 24.074219 49.519531 24.496094 49.890625 25 49.890625 C 25.503906 49.890625 25.925781 49.519531 25.988281 49.023438 C 26.773438 43.050781 30.097656 40.164063 33.890625 37.992188 L 32.425781 36.527344 C 29.375 38.335938 26.539063 40.707031 25.003906 44.722656 C 22.835938 39.019531 18.0625 36.640625 13.757813 34.5 C 9.25 32.261719 5.695313 30.492188 5.695313 25.546875 C 5.695313 21.800781 8.839844 18.605469 13.25 17.347656 Z M 32.613281 16.769531 C 39.058594 16.769531 44.308594 20.707031 44.308594 25.542969 C 44.308594 30.445313 40.75 32.230469 36.246094 34.488281 C 36.171875 34.527344 36.09375 34.566406 36.019531 34.605469 L 18.207031 16.796875 C 20.46875 16.917969 22.628906 17.546875 24.496094 18.632813 C 24.808594 18.8125 25.191406 18.8125 25.5 18.632813 C 27.597656 17.414063 30.054688 16.769531 32.613281 16.769531 Z"/></svg>