<svg fill="#000000" xmlns="http://www.w3.org/2000/svg"  viewBox="0 0 50 50" width="50px" height="50px"><path d="M 1 0 C 0.74425 0 0.48846875 0.09746875 0.29296875 0.29296875 C -0.09803125 0.68396875 -0.09803125 1.3160312 0.29296875 1.7070312 L 48.292969 49.707031 C 48.487969 49.902031 48.744 50 49 50 C 49.256 50 49.512031 49.902031 49.707031 49.707031 C 50.098031 49.316031 50.098031 48.683969 49.707031 48.292969 L 39.998047 38.583984 C 44.785917 36.872126 48 34.077425 48 30 L 48 23 C 48 17.5 42 13 34.5 13 C 30.4 13 26.699219 14.4 24.199219 16.5 C 23.94904 16.812942 22.439943 18.102505 20.439453 19.025391 L 1.7070312 0.29296875 C 1.5115312 0.09746875 1.25575 0 1 0 z M 34.5 15 C 35.204166 15 35.891544 15.052632 36.5625 15.138672 C 36.244315 17.79311 34.384361 19.271873 32.40625 20.814453 C 30.510709 22.291883 28.426202 23.928799 28.089844 26.675781 L 21.939453 20.525391 C 23.63541 19.657667 24.978236 18.621373 25.599609 18 C 27.799609 16.1 31 15 34.5 15 z M 38.544922 15.525391 C 42.19659 16.492908 44.987513 18.71767 45.773438 21.435547 C 43.830944 21.171845 42.250786 21.743365 40.832031 22.271484 C 38.751704 23.046615 36.916008 23.701517 33.853516 22.220703 C 35.901653 20.620508 38.10831 18.78909 38.544922 15.525391 z M 10.5 19 C 5.3 19 1 22.1 1 26 L 1 33 C 1 36.9 5 39.1 10.5 40 C 10.6 40 18 41 22.5 41 C 27 41 34.4 40 34.5 40 C 34.859 39.939 35.208594 39.870734 35.558594 39.802734 L 33.806641 38.050781 C 32.118641 38.262781 26.126 39 22.5 39 C 18.1 39 10.900781 38 10.800781 38 C 7.9007812 37.5 3 36.2 3 33 L 3 30.099609 C 3.0090929 30.107403 3.0201279 30.115262 3.0292969 30.123047 C 3.1159515 30.195993 3.2092496 30.265562 3.3007812 30.335938 C 3.4171835 30.426576 3.5344428 30.516489 3.6621094 30.605469 C 3.7003126 30.631709 3.7403847 30.657741 3.7792969 30.683594 C 5.2099289 31.64886 7.3272276 32.499036 10.5 33 C 10.587784 33 16.299643 33.76876 20.738281 33.957031 C 21.356836 33.984375 21.95 34 22.5 34 C 22.9865 34 23.513687 33.987375 24.066406 33.964844 C 25.751645 33.899274 27.637572 33.746153 29.339844 33.580078 L 29.330078 33.572266 L 27.490234 31.732422 C 25.730234 31.884422 23.93 32 22.5 32 C 18.1 32 10.900781 31 10.800781 31 C 9.9415826 30.851862 8.9156457 30.621232 7.8945312 30.306641 C 13.656157 27.224714 18.349066 25.897368 22.082031 26.322266 L 20.023438 24.265625 C 15.98282 24.43738 11.170326 26.126576 5.5019531 29.337891 C 4.7043837 28.90406 4.0217592 28.379112 3.5722656 27.742188 C 3.5499359 27.710332 3.5231049 27.680855 3.5019531 27.648438 C 3.4438075 27.55997 3.3985046 27.465718 3.3496094 27.373047 C 3.3096213 27.296616 3.2657916 27.221957 3.2324219 27.142578 C 3.2051447 27.078288 3.1887099 27.009595 3.1660156 26.943359 C 3.1286057 26.833096 3.0905688 26.723236 3.0664062 26.607422 C 3.0532255 26.544896 3.050106 26.47822 3.0410156 26.414062 C 3.0219936 26.278321 3 26.143258 3 26 C 3 23.3 6.4 21 10.5 21 C 11 21 11.499219 21.100781 12.199219 21.300781 C 13.299219 21.600781 14.7 22 16.5 22 C 16.896 22 17.287781 21.967922 17.675781 21.919922 L 15.724609 19.966797 C 13.414609 19.806797 12.034 19 10.5 19 z M 44.492188 23.363281 C 44.951973 23.336483 45.434361 23.376712 45.947266 23.490234 C 45.412881 28.34369 38.429361 30.230883 34.199219 31 C 34.037364 31.020092 33.194659 31.119532 32.605469 31.191406 L 30.199219 28.785156 C 29.643078 26.35145 30.624386 24.942605 32.164062 23.59375 C 34.174153 24.715419 35.838921 25.119141 37.271484 25.119141 C 38.915484 25.119141 40.267297 24.616484 41.529297 24.146484 C 42.544922 23.768984 43.473291 23.422666 44.492188 23.363281 z M 46 28 L 46 30 C 46 33.727572 42.201416 35.84647 38.427734 37.013672 L 34.423828 33.009766 C 34.436582 33.008293 34.489101 33.001236 34.5 33 L 34.599609 33 C 36.044012 32.754724 37.3751 32.437275 38.605469 32.066406 C 39.044272 31.936594 39.470533 31.796515 39.886719 31.650391 C 39.970707 31.620343 40.050022 31.589233 40.132812 31.558594 C 40.592396 31.391629 41.034764 31.213047 41.462891 31.025391 C 41.465643 31.024167 41.467952 31.022708 41.470703 31.021484 C 43.235169 30.247177 44.723289 29.299058 45.828125 28.160156 C 45.882455 28.105942 45.947595 28.054787 46 28 z"/></svg>