<svg xmlns="http://www.w3.org/2000/svg" width="50" height="50" fill="#000" viewBox="0 0 50 50"><path d="M 0.992188 -0.0117188 C 0.582031 -0.0078125 0.21875 0.238281 0.0625 0.613281 C -0.0898438 0.992188 0 1.421875 0.292969 1.707031 L 48.292969 49.707031 C 48.542969 49.96875 48.917969 50.074219 49.265625 49.980469 C 49.617188 49.890625 49.890625 49.617188 49.980469 49.265625 C 50.074219 48.917969 49.96875 48.542969 49.707031 48.292969 L 39.324219 37.910156 C 40.757813 36.585938 42.15625 35.082031 43.515625 33.417969 C 44.253906 33.601563 44.847656 33.628906 45.3125 33.550781 C 45.636719 33.5 45.902344 33.398438 46.09375 33.292969 C 46.285156 33.1875 46.453125 33.019531 46.464844 33.003906 C 48.890625 30.492188 49.945313 27.738281 50.078125 25.109375 C 50.207031 22.476563 49.449219 19.996094 48.417969 17.863281 C 47.09375 15.125 45.371094 13.035156 44.253906 11.816406 C 49.117188 8.679688 47.949219 3.183594 47.5 2.148438 C 47.191406 1.445313 46.382813 0.742188 45.171875 1.15625 C 44.296875 1.457031 43.492188 2.707031 44.449219 3.835938 C 45.144531 4.664063 47.199219 8.375 43.617188 11.117188 C 43.371094 10.867188 43.164063 10.664063 43.15625 10.65625 C 43.121094 10.625 40.085938 7.421875 35.796875 5.359375 C 33.644531 4.320313 31.148438 3.558594 28.53125 3.695313 C 25.925781 3.835938 23.21875 4.914063 20.8125 7.363281 C 20.792969 7.378906 20.632813 7.542969 20.53125 7.726563 C 20.421875 7.921875 20.320313 8.183594 20.265625 8.507813 C 20.203125 8.886719 20.214844 9.347656 20.316406 9.898438 C 18.730469 11.179688 17.140625 12.628906 15.648438 14.234375 L 1.707031 0.292969 C 1.519531 0.0976563 1.261719 -0.0078125 0.992188 -0.0078125 Z M 29.449219 5.6875 C 31.339844 5.746094 33.222656 6.339844 34.933594 7.160156 C 38.839844 9.039063 41.726563 12.058594 41.726563 12.058594 L 41.75 12.078125 L 41.769531 12.101563 C 41.769531 12.101563 44.753906 14.882813 46.617188 18.734375 C 47.550781 20.660156 48.1875 22.824219 48.078125 25.011719 C 47.972656 27.171875 47.152344 29.371094 45.066406 31.558594 C 45.050781 31.566406 45.054688 31.570313 44.988281 31.578125 C 44.78125 31.613281 44.261719 31.625 43.296875 31.253906 C 41.363281 30.511719 37.726563 28.230469 31.65625 22.160156 C 25.589844 16.089844 23.308594 12.457031 22.566406 10.527344 C 22.195313 9.558594 22.207031 9.039063 22.238281 8.832031 C 22.25 8.761719 22.257813 8.761719 22.265625 8.746094 C 24.351563 6.632813 26.496094 5.808594 28.636719 5.695313 C 28.90625 5.679688 29.175781 5.679688 29.449219 5.6875 Z M 21 11.933594 C 22.105469 14.347656 24.621094 17.953125 30.246094 23.574219 C 35.597656 28.929688 39.132813 31.472656 41.542969 32.660156 C 40.355469 34.070313 39.144531 35.351563 37.902344 36.488281 L 17.066406 15.652344 C 18.324219 14.289063 19.65625 13.054688 21 11.933594 Z M 13.183594 17.167969 C 8.769531 23.082031 6.25 30.667969 9.914063 39.644531 L 9.933594 39.699219 C 9.871094 39.839844 9.714844 40.082031 9.609375 40.25 C 9.078125 41.085938 8.09375 42.644531 9.320313 44.296875 C 10.566406 45.976563 12.304688 45.285156 13.34375 44.875 C 13.753906 44.710938 14.324219 44.484375 14.53125 44.546875 C 16.902344 45.261719 19.253906 45.613281 21.5625 45.613281 C 26.726563 45.613281 31.710938 43.839844 36.386719 40.363281 L 34.941406 38.921875 C 28.75 43.417969 22.019531 44.710938 15.109375 42.636719 C 14.230469 42.367188 13.363281 42.710938 12.601563 43.015625 C 11.390625 43.496094 11.191406 43.460938 10.925781 43.109375 C 10.574219 42.628906 10.703125 42.261719 11.296875 41.324219 C 11.695313 40.699219 12.183594 39.925781 11.84375 39.085938 L 11.765625 38.890625 C 8.5 30.882813 10.679688 24.023438 14.621094 18.605469 Z"/></svg>