<svg xmlns="http://www.w3.org/2000/svg" width="50" height="50" fill="#000" viewBox="0 0 50 50"><path d="M39.08,43.01l-0.36,0.01c-0.26-0.12-0.61-0.66-0.99-1.47L35,39c1.56,5.58,2.52,6,3.63,6h1.12c0.38,0,0.75-0.15,1.03-0.4 C40.78,44.6,39.12,43.01,39.08,43.01z M5.11,8.93L3.5,8.01c-0.48-0.27-1.1-0.1-1.37,0.38C1.86,8.87,2.02,9.48,2.5,9.75l1.79,1.02 c1.04,0.56,2.45,1.05,3.84,1.18L5.11,8.93z M34.17,43.75c-0.65-2.59-0.87-5-0.94-6.29c0.13,0,0.26-0.01,0.39-0.02l-1.87-1.87 c-0.06,0.03-0.11,0.06-0.16,0.1c-0.636,0.484-0.367,1.746-0.32,2.419c0.117,1.649,0.343,3.292,0.68,4.911h-0.42 c-0.41,0-0.77-0.24-0.93-0.62l-2.2-5.29c-0.06-0.16-0.15-0.3-0.28-0.42c-0.22-0.2-0.52-0.29-0.81-0.25 c-0.06,0.01-6.37,0.84-11.54-1.74c-0.2-0.12-0.43-0.17-0.67-0.14c-0.31,0.04-0.58,0.23-0.74,0.5c-0.08,0.15-1.92,3.52-2.17,7.96 h-0.85c-0.84-2.14-3.335-9.845-3.215-19.595c0.03-2.09,0.485-4.195,1.715-5.865c0.52-0.7,1.12-1.41,1.81-2.07l-0.48-0.48l-0.93-0.93 l-0.07,0.07c-0.77,0.76-1.41,1.52-1.93,2.22c-1.49,2-2.085,4.525-2.115,7.025C5.995,33.495,8.6,41.5,9.48,43.73 C9.78,44.5,10.51,45,11.34,45h1.33c0.81,0,1.47-0.64,1.5-1.46c0.09-2.92,1-5.43,1.54-6.68c0.36,0.15,0.72,0.3,1.08,0.43 C18.4,43.64,20.11,45,21.27,45h1.12c0.48,0,0.93-0.23,1.21-0.61c0.28-0.38,0.37-0.86,0.23-1.32c-0.21-0.69-0.54-2.15-0.62-4.56 c1.55,0.09,2.83,0.03,3.6-0.03l1.95,4.67c0.46,1.12,1.55,1.85,2.77,1.85h1.66c0.32,0,0.63-0.16,0.82-0.42 C34.18,44.34,34.24,44.04,34.17,43.75z M21.36,43.02c-0.56-0.26-1.55-2.47-2.33-5.09c0.74,0.18,1.47,0.31,2.17,0.4 c0.06,2.14,0.29,3.65,0.54,4.68L21.36,43.02z M39.98,26c-1.287,0-1.284,2,0,2C41.262,28,41.275,26,39.98,26z M11.74,12.72 c0,0.01,0,0.02,0.01,0.03l0.01-0.01L11.74,12.72z M11.74,12.72c0,0.01,0,0.02,0.01,0.03l0.01-0.01L11.74,12.72z M39.98,26 c-1.287,0-1.284,2,0,2C41.262,28,41.275,26,39.98,26z M11.74,12.72c0,0.01,0,0.02,0.01,0.03l0.01-0.01L11.74,12.72z M39.98,26 c-1.287,0-1.284,2,0,2C41.262,28,41.275,26,39.98,26z M47.71,45.89l-7.56-7.56c-0.08-0.6-0.13-1.17-0.15-1.72 c3.75-0.86,6.12-2.21,6.88-3.01c0.24-0.25,0.4-0.55,0.48-0.89l0.58-2.37c0.14-0.56,0.03-1.15-0.3-1.62 c-0.31-0.46-0.81-0.77-1.35-0.84c-1.55-0.2-1.69-0.83-1.7-0.83c0-1.59-0.3-2.8-0.89-3.63c5.53-3.25,3.97-8.57,3.88-8.79 c-0.293-0.816-1.436-0.831-1.83-0.09c-0.01,0.01-0.6,1.09-2.25,1.37c-0.89,0.15-2.16,0.45-2.94,0.82c-0.38-0.57-0.98-1.2-1.8-1.9 c-2.29-1.96-5.04-3.46-8.18-4.44c-7.8-2.45-13.37-1.11-17.17,1.2l-0.67-0.67c0.79-0.44,1.505-0.965,1.915-1.795 c0.32-0.63,0.57-1.67-0.03-3c-0.491-1.074-1.192-1.801-2.434-2.029c-0.903-0.165-1.874-0.056-2.604,0.502 C9.275,4.838,9.009,5.139,8.82,5.49c-0.18,0.34-0.3,0.73-0.36,1.15L4.11,2.29C3.197,1.377,1.775,2.796,2.69,3.71l43.6,43.6 c0.396,0.376,1.023,0.377,1.42,0C48.1,46.92,48.1,46.28,47.71,45.89z M11.75,12.75c-0.01-0.01-0.01-0.02-0.01-0.03l0.02,0.02 L11.75,12.75z M11.24,9.42l-0.75-0.75c-0.17-0.94-0.17-1.75,0.09-2.23c0.1-0.18,0.25-0.37,0.7-0.43 c0.616-0.103,1.291,0.295,1.55,0.85c0.3,0.66,0.18,1.05,0.06,1.28C12.65,8.62,12.06,9.08,11.24,9.42z M14.86,13.04 c4.635-2.629,10.19-2.293,15.12-0.74c2.88,0.9,5.4,2.26,7.47,4.04c0.8,0.68,1.2,1.16,1.42,1.46c-0.97,0.78-1.74,1.76-2.24,2.88 c-0.27,0.61-0.38,1.03-0.39,1.08c-0.14,0.53,0.19,1.07,0.72,1.21c0.53,0.13,1.08-0.19,1.22-0.72c0-0.01,0.08-0.31,0.27-0.75 c0.83-1.86,3.11-3.23,5.39-3.62c0.9-0.15,1.62-0.47,2.18-0.84c0.01,1.43-0.98,3.47-3.83,4.93c-0.917,0.469-1.082,1.763-0.29,2.43 c0.88,0.713,0.519,2.132,0.755,3.096c0.368,1.504,1.946,2.181,3.345,2.364l-0.57,2.36c-0.39,0.42-3.19,2.2-8.47,2.92L14.86,13.04z"/></svg>