<svg xmlns="http://www.w3.org/2000/svg" width="50" height="50" fill="#000" viewBox="0 0 50 50"><path d="M 0.992188 -0.0117188 C 0.582031 -0.0078125 0.21875 0.238281 0.0625 0.613281 C -0.0898438 0.992188 0 1.421875 0.292969 1.707031 L 48.292969 49.707031 C 48.542969 49.96875 48.917969 50.074219 49.265625 49.980469 C 49.617188 49.890625 49.890625 49.617188 49.980469 49.265625 C 50.074219 48.917969 49.96875 48.542969 49.707031 48.292969 L 39.140625 37.726563 C 39.667969 37.515625 40.195313 37.316406 40.71875 37.121094 C 45.492188 35.339844 49.996094 33.65625 49.996094 24.863281 C 49.996094 24.835938 49.925781 22.042969 48.375 20.875 C 48.363281 20.871094 48.355469 20.867188 48.347656 20.859375 C 49.175781 19.550781 49.285156 18.101563 48.386719 15.550781 C 47.574219 13.257813 46.445313 11.570313 44.988281 9.734375 C 44.265625 8.820313 43.097656 8.238281 41.863281 8.171875 C 41.480469 8.152344 41.105469 8.179688 40.746094 8.257813 C 40.714844 7.9375 40.648438 7.617188 40.546875 7.296875 C 40.105469 5.957031 39.011719 4.816406 37.546875 4.171875 C 35.898438 3.449219 33.582031 2.925781 31.34375 2.421875 C 30.648438 2.261719 29.957031 2.105469 29.296875 1.945313 C 28.21875 1.683594 27.089844 1.875 26.117188 2.492188 C 25.664063 2.777344 25.265625 3.140625 24.933594 3.558594 C 23.855469 2.382813 22.097656 1.648438 20.117188 2.0625 C 17.535156 2.417969 15.03125 3.109375 12.671875 4.121094 C 10.492188 5.054688 9.449219 6.414063 9.085938 7.671875 L 1.707031 0.292969 C 1.519531 0.0976563 1.261719 -0.0078125 0.992188 -0.0078125 Z M 28.324219 3.828125 C 28.484375 3.828125 28.652344 3.847656 28.828125 3.890625 C 29.496094 4.050781 30.195313 4.210938 30.90625 4.367188 C 33.050781 4.855469 35.269531 5.359375 36.742188 6.003906 C 37.6875 6.417969 38.382813 7.117188 38.644531 7.921875 C 38.789063 8.347656 38.796875 8.773438 38.675781 9.171875 L 38.503906 9.578125 C 38.5 9.585938 38.496094 9.59375 38.488281 9.601563 C 38.445313 9.679688 38.410156 9.765625 38.390625 9.851563 L 30.285156 28.871094 L 26 24.585938 L 26 5.773438 C 26.164063 5.148438 26.609375 4.542969 27.1875 4.179688 C 27.457031 4.007813 27.847656 3.835938 28.324219 3.828125 Z M 21.140625 3.953125 C 22.660156 3.929688 23.734375 4.933594 24 5.835938 L 24 22.585938 L 11.339844 9.925781 L 11.015625 9.222656 C 11.015625 9.21875 11.011719 9.21875 11.011719 9.214844 C 10.703125 8.460938 11.097656 6.972656 13.464844 5.960938 C 15.65625 5.019531 17.988281 4.375 20.460938 4.03125 C 20.695313 3.984375 20.921875 3.957031 21.140625 3.953125 Z M 5.328125 9.53125 C 5.179688 9.667969 5.039063 9.808594 4.898438 9.96875 C 3.476563 11.707031 2.382813 13.585938 1.65625 15.550781 C 0.925781 17.53125 0.96875 19.515625 1.65625 20.90625 C 1.550781 20.972656 1.449219 21.042969 1.351563 21.125 C 0.507813 21.808594 0.0664063 23.019531 0 24.863281 C 0 33.695313 4.855469 35.507813 9.554688 37.265625 C 11.558594 38.015625 13.617188 38.785156 15.445313 40.101563 C 14.265625 41.121094 13.476563 43.039063 13.289063 43.53125 C 13.132813 43.941406 12.714844 45.03125 13.320313 45.910156 C 13.976563 46.867188 15.414063 47 16.863281 47 L 17.242188 47 C 19.15625 47.003906 20.199219 47 20.890625 46.90625 C 21.148438 46.867188 21.367188 46.808594 21.550781 46.734375 C 22.496094 47.589844 23.59375 48.15625 25.144531 48.15625 C 26.828125 48.15625 27.96875 47.398438 28.933594 46.34375 C 30.0625 47 31.9375 47 33.136719 47 C 34.585938 47 36.023438 46.867188 36.679688 45.910156 C 37.285156 45.027344 36.871094 43.941406 36.714844 43.535156 C 36.34375 42.5625 35.421875 41.097656 34.363281 40.1875 C 34.6875 39.960938 35.015625 39.75 35.34375 39.550781 L 33.898438 38.101563 C 33.351563 38.453125 32.808594 38.832031 32.273438 39.265625 C 30.722656 40.527344 29.707031 41.960938 28.808594 43.222656 C 27.441406 45.148438 26.660156 46.152344 25.144531 46.152344 C 23.484375 46.152344 22.671875 45.191406 21.140625 43.191406 C 20.269531 42.058594 19.285156 40.777344 17.859375 39.484375 C 15.507813 37.355469 12.71875 36.3125 10.253906 35.390625 C 5.644531 33.667969 2 32.304688 2 24.898438 C 2.054688 23.351563 2.40625 22.84375 2.609375 22.675781 C 2.660156 22.636719 2.785156 22.535156 3.101563 22.535156 L 3.140625 22.535156 L 14.996094 33.324219 C 15.402344 33.695313 16.035156 33.667969 16.40625 33.257813 C 16.777344 32.847656 16.75 32.214844 16.339844 31.84375 L 4.402344 20.980469 C 4.3125 20.859375 4.195313 20.757813 4.054688 20.6875 C 3.175781 20.25 2.726563 18.425781 3.53125 16.25 C 4.183594 14.492188 5.164063 12.804688 6.425781 11.261719 C 6.53125 11.140625 6.636719 11.042969 6.742188 10.945313 Z M 41.761719 10.171875 C 42.429688 10.203125 43.050781 10.507813 43.421875 10.976563 C 44.75 12.652344 45.78125 14.1875 46.496094 16.21875 C 47.460938 18.945313 46.992188 19.585938 45.84375 20.78125 C 45.820313 20.800781 45.800781 20.824219 45.78125 20.84375 L 34.171875 32.417969 C 34.109375 32.476563 34.078125 32.550781 34.035156 32.621094 L 31.769531 30.359375 C 31.824219 30.289063 31.882813 30.226563 31.917969 30.140625 L 40.214844 10.671875 C 40.632813 10.316406 41.175781 10.136719 41.761719 10.171875 Z M 12.050781 16.253906 L 18.34375 29.917969 C 18.574219 30.421875 19.167969 30.640625 19.667969 30.40625 C 20.171875 30.175781 20.390625 29.582031 20.15625 29.082031 L 16.128906 20.332031 Z M 47.046875 22.414063 C 47.101563 22.421875 47.136719 22.449219 47.171875 22.476563 C 47.675781 22.855469 47.996094 24.257813 47.996094 24.863281 C 47.996094 32.269531 44.652344 33.519531 40.019531 35.25 C 39.246094 35.539063 38.433594 35.847656 37.609375 36.191406 L 35.378906 33.96875 C 35.449219 33.925781 35.519531 33.894531 35.578125 33.832031 Z M 24 28.203125 L 24 28.625 C 24 29.175781 24.445313 29.625 25 29.625 C 25.125 29.625 25.242188 29.597656 25.351563 29.554688 Z M 17.03125 41.453125 C 18.0625 42.46875 18.847656 43.492188 19.550781 44.410156 C 19.699219 44.601563 19.839844 44.789063 19.984375 44.972656 C 19.328125 45 18.351563 45 17.246094 45 L 16.863281 45 C 15.597656 45 15.144531 44.855469 15 44.785156 C 15.011719 44.707031 15.042969 44.542969 15.15625 44.25 C 15.785156 42.601563 16.667969 41.570313 16.980469 41.457031 C 16.996094 41.457031 17.015625 41.457031 17.03125 41.453125 Z M 32.789063 41.484375 C 33.351563 41.855469 34.378906 43.03125 34.84375 44.25 C 34.957031 44.546875 34.988281 44.707031 35 44.785156 C 34.851563 44.851563 34.402344 45 33.136719 45 C 31.378906 45 30.5625 44.847656 30.195313 44.730469 C 30.277344 44.613281 30.359375 44.5 30.4375 44.386719 C 31.132813 43.410156 31.84375 42.40625 32.789063 41.484375 Z"/></svg>