<svg fill="#000000" xmlns="http://www.w3.org/2000/svg"  viewBox="0 0 50 50" width="50px" height="50px"><path d="M 0.90625 -0.03125 C 0.863281 -0.0234375 0.820313 -0.0117188 0.78125 0 C 0.40625 0.0664063 0.105469 0.339844 0 0.703125 C -0.105469 1.070313 0.00390625 1.460938 0.28125 1.71875 L 48.28125 49.71875 C 48.679688 50.117188 49.320313 50.117188 49.71875 49.71875 C 50.117188 49.320313 50.117188 48.679688 49.71875 48.28125 L 43.03125 41.625 C 43.390625 40.765625 43.5 39.9375 43.3125 39.1875 C 43.113281 38.488281 42.511719 37.914063 41.8125 37.8125 C 41.4375 37.738281 40.648438 37.714844 39.78125 38.34375 L 33.21875 31.78125 C 34.65625 32.28125 36.300781 32.59375 38.1875 32.59375 C 38.546875 32.597656 38.882813 32.410156 39.066406 32.097656 C 39.246094 31.785156 39.246094 31.402344 39.066406 31.089844 C 38.882813 30.777344 38.546875 30.589844 38.1875 30.59375 C 33.902344 30.59375 31.25 28.964844 29.5625 27.0625 C 28.097656 25.40625 27.457031 23.503906 27.28125 22.5 C 28.453125 22.34375 29.578125 22.148438 30.625 21.90625 C 31.824219 23.304688 35.65625 27.128906 41.40625 26.5 C 41.957031 26.441406 42.359375 25.941406 42.296875 25.390625 C 42.238281 24.839844 41.738281 24.4375 41.1875 24.5 C 37.152344 24.941406 34.238281 22.71875 32.8125 21.3125 C 40.964844 18.804688 45.042969 13.847656 47.5625 10.84375 C 48.4375 9.792969 49.042969 8.488281 49.375 7.28125 C 49.542969 6.675781 49.632813 6.097656 49.65625 5.5625 C 49.675781 5.082031 49.617188 4.617188 49.40625 4.15625 L 49.4375 4.15625 C 49.429688 4.132813 49.414063 4.117188 49.40625 4.09375 C 49.390625 4.0625 49.394531 4.03125 49.375 4 L 49.34375 4.03125 C 49.050781 3.449219 48.476563 3.0625 47.96875 2.96875 C 47.582031 2.898438 47.246094 2.949219 46.90625 3 C 46.941406 2.804688 47.007813 2.65625 47 2.4375 C 46.976563 1.914063 46.757813 1.308594 46.28125 0.875 C 46.261719 0.851563 46.242188 0.832031 46.21875 0.8125 C 45.285156 0.0664063 44.0625 0 42.1875 0 C 25.140625 0 19.277344 3.800781 16.78125 6.40625 C 16.472656 6.714844 16.269531 7.058594 16.125 7.4375 C 14.859375 8.015625 13.390625 9.046875 11.96875 10.53125 L 1.71875 0.28125 C 1.511719 0.0585938 1.210938 -0.0546875 0.90625 -0.03125 Z M 42.1875 2 C 43.894531 2 44.851563 2.316406 44.9375 2.375 C 44.9375 2.375 44.96875 2.375 44.96875 2.375 C 45.007813 2.414063 44.996094 2.441406 45 2.53125 C 45.003906 2.644531 44.960938 2.847656 44.875 3.0625 C 44.703125 3.496094 44.40625 3.875 44.40625 3.875 C 44.105469 4.238281 44.101563 4.765625 44.394531 5.136719 C 44.6875 5.503906 45.203125 5.617188 45.625 5.40625 C 45.625 5.40625 46.257813 5.132813 46.875 5 C 47.183594 4.933594 47.476563 4.917969 47.59375 4.9375 C 47.601563 4.957031 47.613281 4.980469 47.625 5 C 47.585938 4.933594 47.671875 5.132813 47.65625 5.46875 C 47.640625 5.804688 47.570313 6.265625 47.4375 6.75 C 47.171875 7.71875 46.65625 8.8125 46.03125 9.5625 C 43.335938 12.777344 39.402344 17.671875 30.75 19.8125 C 30.71875 19.820313 30.6875 19.832031 30.65625 19.84375 C 29.339844 20.164063 27.921875 20.414063 26.375 20.59375 C 26.0625 20.628906 24.996094 20.191406 23.84375 19.15625 C 22.691406 18.121094 21.445313 16.625 20.40625 15.03125 C 19.367188 13.4375 18.507813 11.75 18.125 10.375 C 17.742188 9 17.90625 8.125 18.21875 7.8125 C 18.21875 7.800781 18.21875 7.792969 18.21875 7.78125 C 20.324219 5.585938 25.433594 2 42.1875 2 Z M 39.6875 5.09375 C 38.859375 5.09375 38.1875 5.765625 38.1875 6.59375 C 38.1875 7.421875 38.859375 8.09375 39.6875 8.09375 C 40.515625 8.09375 41.1875 7.421875 41.1875 6.59375 C 41.1875 5.765625 40.515625 5.09375 39.6875 5.09375 Z M 15.96875 9.75 C 16.027344 10.132813 16.109375 10.519531 16.21875 10.90625 C 16.6875 12.582031 17.597656 14.40625 18.71875 16.125 C 19.839844 17.84375 21.171875 19.464844 22.5 20.65625 C 23.390625 21.457031 24.28125 22.132813 25.21875 22.4375 C 25.222656 22.46875 25.214844 22.5 25.21875 22.53125 C 25.175781 22.550781 25.132813 22.570313 25.09375 22.59375 C 24.925781 22.726563 24.71875 22.902344 24.5 23.0625 L 13.375 11.9375 C 14.253906 10.992188 15.175781 10.265625 15.96875 9.75 Z M 9.5 13.6875 C 7.855469 16.394531 6.703125 19.765625 6.625 23.78125 C 6.625 23.792969 6.625 23.800781 6.625 23.8125 C 6.507813 24.011719 6.464844 24.242188 6.5 24.46875 C 6.5 24.46875 6.539063 24.558594 6.59375 24.71875 C 6.597656 24.726563 6.589844 24.742188 6.59375 24.75 C 6.699219 32.804688 9.394531 50 30.8125 50 C 36.210938 50 40.511719 48.492188 41.8125 46.09375 L 40.1875 44.5 C 40.1875 44.699219 40.09375 44.894531 40.09375 45.09375 C 39.292969 46.59375 35.914063 48 30.8125 48 C 27.59375 48 23.519531 47.53125 19.75 45.75 C 20.230469 45.457031 20.769531 45.097656 21.375 44.5625 C 21.726563 44.289063 21.851563 43.816406 21.683594 43.402344 C 21.519531 42.988281 21.097656 42.738281 20.65625 42.78125 C 20.421875 42.796875 20.199219 42.898438 20.03125 43.0625 C 19.242188 43.757813 18.597656 44.148438 18.15625 44.375 C 17.882813 44.515625 17.742188 44.566406 17.65625 44.59375 C 15.53125 43.238281 13.574219 41.390625 12.03125 38.84375 C 13.488281 39.054688 15.640625 39.007813 17.53125 37.46875 C 17.890625 37.191406 18.015625 36.707031 17.839844 36.289063 C 17.664063 35.871094 17.230469 35.625 16.78125 35.6875 C 16.59375 35.722656 16.421875 35.808594 16.28125 35.9375 C 14.070313 37.738281 11.0625 36.5625 11.0625 36.5625 C 10.992188 36.535156 10.917969 36.511719 10.84375 36.5 C 9.75 34 8.992188 30.964844 8.71875 27.3125 C 10.148438 28.246094 12.425781 29 16.09375 29 C 16.453125 29.003906 16.789063 28.816406 16.972656 28.503906 C 17.152344 28.191406 17.152344 27.808594 16.972656 27.496094 C 16.789063 27.183594 16.453125 26.996094 16.09375 27 C 12.246094 27 10.367188 26.121094 9.4375 25.375 C 8.972656 25 8.714844 24.640625 8.59375 24.40625 C 8.59375 24.332031 8.59375 24.261719 8.59375 24.1875 C 8.59375 20.585938 9.601563 17.585938 11 15.1875 Z M 21.59375 25.90625 C 20.09375 27.804688 18.8125 30.289063 18.8125 33.6875 C 18.8125 38.085938 22.199219 45.90625 29 45.90625 C 33.101563 45.90625 36.1875 44.101563 38.1875 42.5 L 36.8125 41.09375 C 35.113281 42.394531 32.398438 43.90625 29 43.90625 C 23.601563 43.90625 20.8125 37.1875 20.8125 33.6875 C 20.8125 30.988281 21.800781 28.914063 23 27.3125 Z M 41.3125 39.6875 C 41.335938 39.710938 41.367188 39.789063 41.375 39.90625 L 41.1875 39.75 C 41.226563 39.734375 41.3125 39.6875 41.3125 39.6875 Z"/></svg>