<?xml version="1.0"?><svg fill="#000000" xmlns="http://www.w3.org/2000/svg"  viewBox="0 0 50 50" width="50px" height="50px">    <path d="M35,38.82v4.06l-8,1.6V30.82l-2-2v6.7l-10-1.67V22.88l4.88,0.82l-2.45-2.45L15,20.85v-2.03l-2-2v26.883 c0,0.489,0.353,0.906,0.836,0.986l12.003,2.001c0.12,0.02,0.242,0.018,0.361-0.006l9.997-2.003C36.664,44.587,37,44.177,37,43.7 v-2.88L35,38.82z M25,44.52l-10-1.67v-6.97l10,1.67V44.52z M47.71,45.89L37,35.18V14.34l-5-6V4.703c0-0.517-0.394-0.949-0.91-0.996 l-11-0.998C19.505,2.656,19,3.117,19,3.705V7.33l-4.55,5.3L4.11,2.29c-0.39-0.39-1.03-0.39-1.42,0s-0.39,1.03,0,1.42l43.6,43.6 c0.2,0.19,0.45,0.29,0.71,0.29s0.51-0.1,0.71-0.29C48.1,46.92,48.1,46.28,47.71,45.89z M34.16,14.05l-6.08,1.21l3.04-4.86 L34.16,14.05z M21,4.8l9,0.81v2l-9-0.82V4.8z M25,23.18l-6.76-6.76L25,17.55V23.18z M15.92,14l4.51-5.26l8.86,0.81l-3.78,6.05 L15.92,14z M35,33.18l-8-8v-7.66l8-1.6V33.18z"/></svg>