<svg xmlns="http://www.w3.org/2000/svg" width="50" height="50" fill="#000" viewBox="0 0 50 50"><path d="M 2.78125 2.78125 L 3 4.15625 C 3 4.15625 3.261719 5.71875 3.78125 7.53125 C 4.300781 9.34375 4.992188 11.429688 6.28125 12.71875 C 7.570313 14.007813 9.503906 14.453125 11.09375 14.71875 C 12.242188 14.910156 13.0625 14.949219 13.53125 14.96875 L 17.28125 18.71875 C 13.832031 19.820313 11.125 21.320313 9.0625 22.84375 C 5.070313 25.789063 3.4375 28.84375 3.4375 28.84375 C 2.964844 29.476563 2.941406 30.300781 3.09375 31.0625 C 3.261719 31.917969 3.65625 32.835938 4.21875 33.84375 C 5.34375 35.859375 7.15625 38.21875 9.46875 40.53125 C 11.78125 42.84375 14.140625 44.65625 16.15625 45.78125 C 17.164063 46.34375 18.082031 46.738281 18.9375 46.90625 C 19.699219 47.058594 20.523438 47.035156 21.15625 46.5625 C 21.15625 46.5625 24.210938 44.929688 27.15625 40.9375 C 28.679688 38.875 30.179688 36.167969 31.28125 32.71875 L 45.28125 46.71875 C 45.679688 47.117188 46.320313 47.117188 46.71875 46.71875 C 47.117188 46.320313 47.117188 45.679688 46.71875 45.28125 L 31.9375 30.5 C 32.59375 27.816406 32.980469 24.75 33 21.25 L 40.90625 13.3125 C 41.527344 13.710938 42.210938 14 43 14 C 45.199219 14 47 12.199219 47 10 C 47 8.097656 45.632813 6.554688 43.84375 6.15625 C 43.445313 4.367188 41.902344 3 40 3 C 37.800781 3 36 4.800781 36 7 C 36 7.789063 36.289063 8.472656 36.6875 9.09375 L 28.75 17 C 25.25 17.019531 22.183594 17.40625 19.5 18.0625 L 14.96875 13.53125 C 14.957031 13.058594 14.941406 12.238281 14.75 11.09375 C 14.488281 9.507813 14.019531 7.582031 12.71875 6.28125 C 11.417969 4.980469 9.339844 4.296875 7.53125 3.78125 C 5.722656 3.265625 4.15625 3 4.15625 3 Z M 40 5 C 41.117188 5 42 5.882813 42 7 L 42 8 L 43 8 C 44.117188 8 45 8.882813 45 10 C 45 11.117188 44.117188 12 43 12 C 42.417969 12 41.902344 11.746094 41.53125 11.34375 L 40.84375 10.59375 L 40.09375 11.3125 L 32.34375 19.09375 C 32.175781 18.820313 31.976563 18.539063 31.71875 18.28125 C 31.460938 18.023438 31.179688 17.824219 30.90625 17.65625 L 38.6875 9.90625 L 39.40625 9.15625 L 38.65625 8.46875 C 38.253906 8.097656 38 7.582031 38 7 C 38 5.882813 38.882813 5 40 5 Z M 5.34375 5.34375 C 5.921875 5.464844 6.089844 5.46875 6.96875 5.71875 C 7.644531 5.910156 8.34375 6.167969 9 6.4375 L 9 9 L 6.4375 9 C 6.164063 8.339844 5.914063 7.648438 5.71875 6.96875 C 5.464844 6.089844 5.464844 5.925781 5.34375 5.34375 Z M 11 7.46875 C 11.109375 7.550781 11.199219 7.636719 11.28125 7.71875 C 11.578125 8.015625 11.832031 8.484375 12.0625 9 L 11 9 Z M 7.46875 11 L 9 11 L 9 12.0625 C 8.46875 11.835938 8.011719 11.574219 7.71875 11.28125 C 7.640625 11.203125 7.550781 11.105469 7.46875 11 Z M 11 11 L 12.6875 11 C 12.714844 11.136719 12.757813 11.269531 12.78125 11.40625 C 12.914063 12.21875 12.882813 12.433594 12.90625 12.90625 C 12.429688 12.878906 12.222656 12.886719 11.40625 12.75 C 11.269531 12.726563 11.136719 12.683594 11 12.65625 Z M 28.84375 19 C 28.84375 19 28.875 19 28.875 19 C 28.90625 19.007813 29.757813 19.195313 30.28125 19.71875 C 30.804688 20.242188 30.992188 21.09375 31 21.125 C 31 21.125 31 21.15625 31 21.15625 C 30.964844 30.199219 28.230469 36.09375 25.53125 39.75 C 24.171875 41.589844 22.832031 42.859375 21.84375 43.65625 C 21.648438 42.875 21.285156 42.054688 20.78125 41.15625 C 19.65625 39.140625 17.84375 36.78125 15.53125 34.46875 C 13.21875 32.15625 10.859375 30.34375 8.84375 29.21875 C 7.945313 28.714844 7.125 28.351563 6.34375 28.15625 C 7.140625 27.167969 8.410156 25.828125 10.25 24.46875 C 12.335938 22.929688 15.160156 21.367188 18.875 20.3125 L 22.28125 23.71875 C 22.679688 24.117188 23.320313 24.117188 23.71875 23.71875 C 24.117188 23.320313 24.117188 22.679688 23.71875 22.28125 L 21.1875 19.75 C 23.441406 19.289063 25.992188 19.011719 28.84375 19 Z M 5.15625 30 C 5.253906 29.992188 5.425781 30.011719 5.6875 30.0625 C 6.214844 30.167969 6.984375 30.472656 7.875 30.96875 C 9.65625 31.964844 11.921875 33.671875 14.125 35.875 C 16.328125 38.078125 18.035156 40.34375 19.03125 42.125 C 19.527344 43.015625 19.832031 43.785156 19.9375 44.3125 C 20.042969 44.839844 19.949219 44.988281 19.96875 44.96875 C 19.988281 44.949219 19.839844 45.042969 19.3125 44.9375 C 18.785156 44.832031 18.015625 44.527344 17.125 44.03125 C 15.34375 43.035156 13.078125 41.328125 10.875 39.125 C 8.671875 36.921875 6.964844 34.65625 5.96875 32.875 C 5.472656 31.984375 5.167969 31.214844 5.0625 30.6875 C 4.957031 30.160156 5.050781 30.011719 5.03125 30.03125 C 5.023438 30.039063 5.058594 30.007813 5.15625 30 Z M 10.21875 35 C 10.152344 35 10.097656 35.027344 10.0625 35.0625 C 9.78125 35.34375 10.648438 36.648438 12 38 C 13.351563 39.351563 14.65625 40.21875 14.9375 39.9375 C 15.21875 39.65625 14.351563 38.351563 13 37 C 11.816406 35.816406 10.679688 34.996094 10.21875 35 Z"/></svg>