<svg fill="#000000" xmlns="http://www.w3.org/2000/svg"  viewBox="0 0 50 50" width="50px" height="50px"><path d="M 0.992188 -0.0117188 C 0.582031 -0.0078125 0.21875 0.238281 0.0625 0.613281 C -0.0898438 0.992188 0 1.421875 0.292969 1.707031 L 48.292969 49.707031 C 48.542969 49.96875 48.917969 50.074219 49.265625 49.980469 C 49.617188 49.890625 49.890625 49.617188 49.980469 49.265625 C 50.074219 48.917969 49.96875 48.542969 49.707031 48.292969 L 45.8125 44.398438 C 47.636719 42.570313 48.757813 40.34375 48.953125 37.980469 C 49.546875 31.015625 44.347656 29.886719 39.324219 28.796875 C 36.914063 28.273438 34.433594 27.730469 32.355469 26.585938 C 35.761719 20.574219 36.855469 14.46875 35.339844 9.320313 C 34.226563 5.546875 31.773438 2.734375 28.613281 1.609375 C 27.460938 1.199219 26.421875 1 25.4375 1 C 21.144531 1 19.179688 4.855469 17.277344 8.578125 C 16.460938 10.171875 15.628906 11.785156 14.613281 13.203125 L 1.707031 0.292969 C 1.519531 0.0976563 1.261719 -0.0078125 0.992188 -0.0078125 Z M 25.4375 3 C 26.179688 3 27.019531 3.167969 27.941406 3.492188 C 30.492188 4.402344 32.488281 6.734375 33.417969 9.886719 C 34.84375 14.726563 33.65625 20.578125 30.171875 26.363281 C 30.167969 26.367188 30.164063 26.367188 30.160156 26.371094 C 30.15625 26.375 30.15625 26.382813 30.152344 26.390625 C 29.863281 26.867188 29.554688 27.34375 29.234375 27.820313 L 23.25 21.832031 C 25.585938 18.417969 27.421875 14.253906 28.363281 9.140625 C 28.460938 8.601563 28.105469 8.078125 27.5625 7.976563 C 27.023438 7.878906 26.496094 8.238281 26.394531 8.78125 C 25.535156 13.449219 23.910156 17.253906 21.820313 20.40625 L 16.050781 14.636719 C 17.25 13.019531 18.179688 11.203125 19.058594 9.492188 C 21.109375 5.464844 22.519531 3 25.4375 3 Z M 12.03125 15.917969 C 11.308594 16.453125 10.511719 16.898438 9.585938 17.203125 C 2.640625 19.484375 0.621094 25.214844 1.050781 29.816406 C 1.097656 30.300781 1.601563 34.628906 5.359375 37.425781 C 6.738281 38.457031 8.882813 39 11.550781 39 C 11.777344 39 12.011719 38.988281 12.246094 38.980469 C 13.957031 41.417969 16.792969 44.605469 20.734375 46.261719 C 25.09375 48.085938 29.355469 49 33.25 49 C 36.816406 49 40.070313 48.222656 42.796875 46.679688 L 41.324219 45.207031 C 36.195313 47.84375 29.046875 47.574219 21.507813 44.417969 C 19.050781 43.386719 16.625 41.40625 14.582031 38.78125 C 17.464844 38.386719 20.617188 37.449219 23.460938 35.917969 C 27.242188 37.996094 31.351563 39.222656 35.734375 39.617188 L 33.429688 37.3125 C 30.644531 36.832031 28 35.964844 25.460938 34.691406 C 26.511719 33.972656 27.484375 33.152344 28.355469 32.238281 L 26.9375 30.824219 C 23.097656 34.878906 16.488281 37 11.550781 37 C 9.347656 37 7.570313 36.582031 6.554688 35.824219 C 6.289063 35.628906 6.054688 35.414063 5.828125 35.199219 C 10.671875 33.082031 16.375 29.96875 20.921875 24.804688 L 19.53125 23.410156 C 15.175781 28.410156 9.582031 31.421875 4.503906 33.597656 C 3.546875 32.113281 3.128906 30.558594 3.042969 29.628906 C 2.867188 27.769531 2.875 21.511719 10.214844 19.097656 C 11.464844 18.6875 12.53125 18.082031 13.46875 17.351563 Z M 31.328125 28.296875 C 33.691406 29.613281 36.4375 30.214844 38.898438 30.75 C 44.332031 31.929688 47.382813 32.839844 46.964844 37.8125 C 46.804688 39.695313 45.890625 41.492188 44.402344 42.984375 L 41.105469 39.6875 C 41.273438 39.679688 41.4375 39.671875 41.609375 39.660156 C 42.15625 39.617188 42.570313 39.136719 42.527344 38.585938 C 42.484375 38.035156 42.027344 37.617188 41.453125 37.664063 C 40.679688 37.722656 39.921875 37.75 39.171875 37.753906 L 30.675781 29.265625 C 30.898438 28.941406 31.117188 28.621094 31.328125 28.296875 Z"/></svg>