<svg xmlns="http://www.w3.org/2000/svg" width="50" height="50" fill="#000" viewBox="0 0 50 50"><path d="M 33 10 C 31.719654 10 30.702831 10.718263 29.972656 11.669922 C 29.21925 11.2788 28.399741 11 27.5 11 C 25.613022 11 23.953054 11.963101 22.957031 13.416016 C 22.351529 13.156176 21.692702 13 21 13 C 20.792598 13 20.567089 13.013124 20.328125 13.052734 C 20.069776 13.086894 19.832941 13.169719 19.591797 13.244141 C 18.716427 11.844773 17.137288 11 15.5 11 C 13.559796 11 11.941953 12.264857 11.302734 14 L 11 14 C 8.6819931 14 6.6560914 15.319799 5.6601562 17.263672 A 1.0001 1.0001 0 0 0 5.65625 17.273438 C 5.542661 17.500615 5.4394647 17.73952 5.3496094 17.988281 C 3.8898511 17.9013 2.9101563 18.003906 2.9101562 18.003906 A 1.0001 1.0001 0 0 0 2 18.978516 C 2 18.978516 1.9224046 21.849651 3.0039062 25.005859 C 1.8334748 25.032586 0.95167041 26.064201 1.0019531 27.220703 C 1.2514115 32.944762 3.221101 37.4409 5.21875 40.595703 C 6.2175745 42.173105 7.2241254 43.419991 8.0292969 44.324219 C 8.8344683 45.228446 9.503012 45.864368 9.5820312 45.951172 L 9.5839844 45.953125 C 10.740881 47.217709 12.466021 47.683148 14.753906 47.875 C 17.041792 48.066852 20.010417 48 24 48 L 26 48 C 29.99 48 32.959972 48.06349 35.248047 47.869141 C 37.536121 47.674796 39.259602 47.206825 40.416016 45.943359 L 40.417969 45.943359 L 40.417969 45.941406 C 40.496779 45.854826 41.165533 45.218307 41.970703 44.314453 C 42.775873 43.4106 43.782409 42.166559 44.78125 40.589844 C 46.778933 37.436412 48.74858 32.942355 48.998047 27.220703 C 49.041674 26.216396 48.379573 25.30704 47.439453 25.066406 C 48.455019 21.134019 47.84375 17.703125 47.84375 17.703125 A 1.0001 1.0001 0 0 0 47.185547 16.933594 C 47.185547 16.933594 45.071445 16.218926 42.232422 16.087891 C 41.203543 14.246369 39.243845 13 37 13 C 36.92991 13 36.869721 13.016951 36.800781 13.019531 C 36.351237 11.303196 34.851188 10 33 10 z M 33 12 C 34.118662 12 34.991127 12.87491 34.996094 13.992188 A 1.0001 1.0001 0 0 0 36.167969 15.083984 C 36.45599 15.031617 36.738431 15 37 15 C 38.036033 15 38.875751 15.484851 39.572266 16.138672 C 37.912583 16.298278 36.146258 16.735488 34.458984 17.613281 C 34.441413 17.622055 34.423806 17.631741 34.40625 17.640625 C 34.161696 17.769363 33.918054 17.900231 33.677734 18.048828 C 33.360295 18.241168 33.045991 18.448677 32.736328 18.683594 A 1.0001 1.0001 0 0 0 32.669922 18.736328 C 31.497645 19.793109 30.66403 21.013555 30.072266 22.275391 C 29.182762 20.587843 27.706197 19.260669 25.912109 18.560547 C 25.946581 18.374432 26 18.193764 26 18 C 26 16.712558 25.412645 15.619598 24.605469 14.732422 C 25.227073 13.736504 26.234776 13 27.5 13 C 28.297778 13 29.017911 13.262601 29.597656 13.710938 A 1.0001 1.0001 0 0 0 31.146484 13.267578 C 31.422664 12.524522 32.131458 12 33 12 z M 15.5 13 C 16.504652 13 17.746236 13.722482 18.085938 14.419922 L 18.201172 14.765625 A 1.0001 1.0001 0 0 0 18.255859 14.896484 L 18.265625 14.917969 A 1.0001 1.0001 0 0 0 19.607422 15.365234 C 19.747422 15.295234 19.86074 15.239297 19.960938 15.199219 A 1.0001 1.0001 0 0 0 19.966797 15.195312 C 20.153993 15.119053 20.37428 15.060073 20.597656 15.03125 A 1.0001 1.0001 0 0 0 20.644531 15.025391 C 20.732944 15.009805 20.857037 15 21 15 C 21.655441 15 22.2571 15.208467 22.751953 15.568359 A 1.0001 1.0001 0 0 0 22.759766 15.574219 C 23.514376 16.112159 24 16.983383 24 18 C 24 18.021844 23.994622 18.04268 23.994141 18.064453 C 23.66593 18.023084 23.334244 18 23 18 C 21.633333 18 20.348459 18.344281 19.230469 18.9375 C 17.64355 19.78332 16.392302 21.156337 15.675781 22.8125 C 15.291111 22.331923 14.87133 21.864689 14.400391 21.427734 C 12.299853 19.472779 9.6490434 18.605926 7.4199219 18.228516 C 7.4292984 18.20916 7.4356812 18.189203 7.4453125 18.169922 C 7.4453125 18.169922 7.4453125 18.167969 7.4453125 18.167969 C 8.1109093 16.876696 9.4415606 16 11 16 L 12 16 A 1.0001 1.0001 0 0 0 12.988281 15.146484 C 13.165058 13.951475 14.236212 13 15.5 13 z M 41.589844 18.060547 A 1.0001 1.0001 0 0 0 41.595703 18.060547 C 43.79226 18.090027 45.242728 18.468151 45.916016 18.664062 C 46.016592 19.39916 46.24972 21.883185 45.345703 25 L 38.396484 25 C 40.119637 23.845593 41.453125 23.166016 41.453125 23.166016 A 1.0001 1.0001 0 0 0 41.019531 21.263672 A 1.0001 1.0001 0 0 0 40.566406 21.373047 C 40.566406 21.373047 37.86765 22.714123 35.005859 25 L 31.308594 25 C 31.694773 23.523205 32.308016 22.053175 33.441406 20.802734 C 33.612376 20.61743 33.790271 20.434912 33.982422 20.259766 C 35.164203 19.371458 36.463109 18.810165 37.767578 18.476562 C 39.071431 18.143337 40.382655 18.037061 41.589844 18.060547 z M 23 20 C 23.533978 20 24.054523 20.06986 24.529297 20.203125 A 1.0001 1.0001 0 0 0 24.544922 20.207031 C 24.840743 20.284984 25.126311 20.389752 25.402344 20.509766 C 25.573584 20.585527 25.734906 20.678196 25.896484 20.769531 C 25.975241 20.812978 26.056282 20.851601 26.132812 20.898438 C 27.545528 21.787 28.535938 23.268816 28.828125 25 L 17.152344 25 C 17.462034 23.147696 18.566493 21.557218 20.167969 20.703125 C 21.009978 20.256344 21.966667 20 23 20 z M 4.0742188 20.048828 C 5.4195883 20.010258 9.9289599 19.998028 13.039062 22.892578 C 13.717014 23.521605 14.205528 24.263683 14.6875 25 L 10.060547 25 C 9.3304368 24.296612 8.6663357 23.60614 8.1582031 22.998047 A 1.0001 1.0001 0 0 0 7.3691406 22.628906 A 1.0001 1.0001 0 0 0 6.6230469 24.28125 C 6.8167231 24.513026 7.0492182 24.758655 7.2695312 25 L 5.21875 25 C 4.3593996 22.815451 4.1194933 21.048776 4.0742188 20.048828 z M 3.0488281 27 L 4.1992188 27 L 9.6953125 27 L 16 27 L 16.5 27 L 29.974609 27 A 1.0001 1.0001 0 0 0 29.980469 27 A 1.0001 1.0001 0 0 0 30 27 L 35.199219 27 A 1.0001 1.0001 0 0 0 35.486328 27 L 45.800781 27 L 46.130859 27 L 46.951172 27 C 46.934863 27 47.005058 27.016481 47 27.132812 C 46.922894 28.901277 46.62797 30.491851 46.255859 32 L 3.7441406 32 C 3.372519 30.492138 3.0770451 28.902638 3 27.134766 C 2.9949441 27.018479 3.0662703 27 3.0488281 27 z M 4.2832031 34 L 45.714844 34 C 44.989302 36.154567 44.050755 38.005773 43.091797 39.519531 C 42.163388 40.985066 41.225706 42.143416 40.476562 42.984375 C 39.727421 43.825334 39.23114 44.275281 38.939453 44.595703 C 38.29163 45.30214 37.176813 45.698695 35.078125 45.876953 C 32.977699 46.055359 30.01 46 26 46 L 24 46 C 19.989583 46 17.020536 46.058961 14.919922 45.882812 C 12.821046 45.706811 11.70789 45.311737 11.060547 44.605469 L 11.058594 44.603516 C 10.767012 44.283442 10.27165 43.834401 9.5234375 42.994141 C 8.7742964 42.152837 7.8366286 40.993567 6.9082031 39.527344 C 5.94865 38.011962 5.0089342 36.157302 4.2832031 34 z"/></svg>