<svg xmlns="http://www.w3.org/2000/svg" width="50" height="50" fill="#000" viewBox="0 0 50 50"><path d="M 23 4 C 17.721733 4 13.417062 4.2276503 10.261719 5.234375 C 8.6840467 5.7377373 7.3718018 6.4490482 6.4355469 7.4980469 C 5.499292 8.5470455 5 9.9278182 5 11.5 C 5 13.619662 5.8937238 15.327331 7.359375 16.433594 C 7.7576814 16.734936 8 17.277467 8 17.863281 L 8 42 C 8 44.197334 9.8026661 46 12 46 L 23 46 L 31.208984 46 C 30.466984 45.441 29.805375 44.767 29.234375 44 L 23 44 L 15.75 44 C 14.785 44 14 43.103 14 42 L 14 17.863281 C 14 16.665281 13.509547 15.544281 12.685547 14.863281 C 11.551547 13.930281 11 12.83 11 11.5 C 11 7.542 15.368031 6 26.582031 6 C 38.089031 6 43 7.645 43 11.5 C 43 12.83 42.448453 13.930234 41.314453 14.865234 C 41.040453 15.091234 40.82 15.379453 40.625 15.689453 C 41.17 16.074453 41.696359 16.490125 42.193359 16.953125 C 42.292359 16.734125 42.423891 16.542203 42.587891 16.408203 C 44.188891 15.087203 45 13.437 45 11.5 C 45 5.0062996 36.401309 4.0333262 27 4.0058594 L 27 4 L 23 4 z M 10.845703 7.1484375 C 9.6916778 8.209336 9 9.6131468 9 11.5 C 9 13.438 9.8121094 15.08825 11.412109 16.40625 C 11.780109 16.71025 12 17.255281 12 17.863281 L 12 42 C 12 42.732175 12.198184 43.409124 12.521484 44 L 12 44 C 10.883334 44 10 43.116666 10 42 L 10 17.863281 C 10 16.731095 9.5381467 15.574548 8.5644531 14.837891 C 7.5261043 14.054153 7 13.112338 7 11.5 C 7 10.322182 7.3140674 9.5154545 7.9257812 8.8300781 C 8.533758 8.148889 9.4980447 7.5815713 10.845703 7.1484375 z M 28.5 9 A 1.5 1.5 0 0 0 28.5 12 A 1.5 1.5 0 0 0 28.5 9 z M 37 10 A 1 1 0 0 0 37 12 A 1 1 0 0 0 37 10 z M 20 11 A 1 1 0 0 0 20 13 A 1 1 0 0 0 20 11 z M 32 15.009766 C 24.504857 15.009766 19 20.718154 19 28 C 19 31.665238 19.938325 34.298832 21.523438 36.191406 C 23.108549 38.083981 25.256088 39.194357 27.535156 40.097656 C 28.776348 40.589806 29.84631 41.330137 30.507812 42.361328 C 32.146744 44.915092 35.218653 46.463859 38.535156 45.873047 C 41.739486 45.302618 44.286814 42.713466 44.867188 39.482422 C 45.106893 38.143692 45.012345 36.838302 44.652344 35.654297 C 44.241184 34.303607 44.115236 32.928454 44.474609 31.697266 C 44.816775 30.524589 45 29.282479 45 28 C 45 20.718154 39.495143 15.009766 32 15.009766 z M 32 17.009766 C 38.504857 17.009766 43 21.699846 43 28 C 43 29.091521 42.84452 30.143395 42.554688 31.136719 C 42.050061 32.865531 42.253394 34.637018 42.740234 36.236328 L 42.738281 36.236328 C 43.00828 37.124323 43.082731 38.099637 42.898438 39.128906 C 42.466809 41.531862 40.529264 43.486725 38.183594 43.904297 C 35.662144 44.353484 33.422475 43.199486 32.191406 41.28125 C 31.238909 39.796441 29.784293 38.838131 28.271484 38.238281 C 26.117553 37.38458 24.314778 36.410379 23.056641 34.908203 C 21.798504 33.406028 21 31.334762 21 28 C 21 21.699846 25.495143 17.009766 32 17.009766 z M 17.5 18 A 1.5 1.5 0 0 0 17.5 21 A 1.5 1.5 0 0 0 17.5 18 z M 32 22 C 30.083334 22 28.518559 22.754756 27.501953 23.898438 C 26.485347 25.042119 26 26.527778 26 28 C 26 29.472222 26.485347 30.957882 27.501953 32.101562 C 28.518559 33.245244 30.083334 34 32 34 C 35.301865 34 38 31.301863 38 28 C 38 24.698137 35.301865 22 32 22 z M 32 24 C 34.220986 24 36 25.779015 36 28 C 36 30.220985 34.220986 32 32 32 C 30.583334 32 29.648107 31.504756 28.998047 30.773438 C 28.347987 30.042119 28 29.027778 28 28 C 28 26.972222 28.347987 25.957882 28.998047 25.226562 C 29.648107 24.495244 30.583334 24 32 24 z M 17 32 A 1 1 0 0 0 17 34 A 1 1 0 0 0 17 32 z M 19.5 39 A 1.5 1.5 0 0 0 19.5 42 A 1.5 1.5 0 0 0 19.5 39 z"/></svg>