<svg xmlns="http://www.w3.org/2000/svg" width="50" height="50" fill="#000" viewBox="0 0 50 50"><path d="M 22.945312 1.0019531 A 1.0001 1.0001 0 0 0 22.835938 1.0136719 C 16.958648 1.99322 14.466703 6.471591 14.017578 7.3652344 C 8.3622609 9.5682176 5.5399711 13.935159 4.2910156 16.572266 C 4.0999651 16.975263 4.0029965 17.408352 4 17.839844 A 1.0001 1.0001 0 0 0 4 17.841797 C 3.99701 18.398872 4.1489155 18.950995 4.4414062 19.4375 A 1.0001 1.0001 0 0 0 4.4414062 19.439453 C 6.4355599 22.744244 9.6830088 25.717549 14.822266 27.126953 C 14.659971 28.348164 14.483239 29.682608 14.332031 30.892578 C 14.239251 31.635002 14.156328 32.30943 14.097656 32.841797 C 14.038984 33.374163 14 33.696032 14 34 C 14.0011 37.145684 15.830545 38.990582 17.435547 40.091797 C 18.238048 40.642404 18.995078 41.061997 19.466797 41.412109 C 19.938515 41.762222 20 41.907137 20 42 C 19.999 43.355549 20 49 20 49 L 22 49 C 22 49 21.999002 43.350451 22 42 C 22 40.995863 21.311172 40.289324 20.658203 39.804688 C 20.005234 39.32005 19.263655 38.921752 18.566406 38.443359 C 17.171908 37.486574 16.000871 36.428316 16 34 C 16 34.008 16.029136 33.577852 16.085938 33.0625 C 16.142737 32.547148 16.224311 31.877576 16.316406 31.140625 C 16.459487 29.995686 16.625284 28.739795 16.78125 27.564453 C 17.491432 27.692429 18.22518 27.800725 19 27.871094 L 19 33 A 1.0001 1.0001 0 1 0 21 33 L 21 27.980469 C 21.23607 27.985739 21.463454 28 21.705078 28 C 22.144398 28 22.575625 27.982902 23 27.955078 L 23 33 A 1.0001 1.0001 0 1 0 25 33 L 25 27.712891 C 25.68914 27.596437 26.359252 27.455527 27 27.279297 L 27 33 A 1.0001 1.0001 0 1 0 29 33 L 29 26.615234 C 29.697324 26.345975 30.356721 26.050877 30.978516 25.738281 C 31.115344 26.721677 31.256748 27.716124 31.458984 29.255859 C 31.601421 30.340313 31.737099 31.42076 31.837891 32.291016 C 31.938682 33.161271 32 33.893272 32 34 C 32 36.471403 30.829297 37.523261 29.4375 38.46875 C 28.741602 38.941495 27.999754 39.334015 27.345703 39.8125 C 26.691653 40.290985 25.998627 40.99738 26 42.001953 C 26.000997 43.341393 26 49 26 49 L 28 49 C 28 49 28.001 43.342599 28 42 L 28 41.998047 C 27.999873 41.905117 28.05668 41.770109 28.527344 41.425781 C 28.998012 41.081454 29.75607 40.669552 30.560547 40.123047 C 32.1695 39.030083 34 37.179597 34 34 C 34 33.566728 33.929036 32.948697 33.826172 32.060547 C 33.723307 31.172396 33.584594 30.086266 33.441406 28.996094 C 33.193033 27.105087 32.974372 25.545335 32.853516 24.681641 C 34.580241 23.605237 35.895157 22.491967 36.712891 21.714844 C 37.013129 22.292337 37.362821 22.941593 37.935547 23.636719 C 39.300055 25.292842 41.616328 27 45 27 A 1.0001 1.0001 0 0 0 45.869141 25.503906 C 45.869141 25.503906 44 22.233333 44 17.5 C 44 12.766667 45.869141 9.4960938 45.869141 9.4960938 A 1.0001 1.0001 0 0 0 45 8 C 42.217502 8 40.007606 9.713121 38.501953 11.314453 C 37.518665 12.360226 37.326274 12.807755 36.949219 13.408203 C 35.855395 12.162464 33.480924 9.7714742 30.050781 8.0410156 C 30.290167 5.9896979 31.660156 4.75 31.660156 4.75 A 1.0001 1.0001 0 0 0 31.242188 3.0292969 L 23.242188 1.0292969 A 1.0001 1.0001 0 0 0 22.945312 1.0019531 z M 23.023438 3.0371094 L 29.248047 4.59375 C 28.807923 5.2537072 28.375118 6.1243784 28.154297 7.203125 C 26.251976 6.4808078 24.097428 6 21.705078 6 C 19.999047 6 18.46154 6.1815725 17.046875 6.4765625 C 18.191592 5.1475291 20.089782 3.5722567 23.023438 3.0371094 z M 21.705078 8 C 30.425231 8 36.199219 15.599609 36.199219 15.599609 A 1.0001 1.0001 0 0 0 37.876953 15.480469 C 37.876953 15.480469 38.643887 14.084215 39.958984 12.685547 C 40.864351 11.722647 42.037216 10.983125 43.285156 10.509766 C 42.669911 12.087365 42 14.32639 42 17.5 C 42 20.783833 42.706044 23.038506 43.330078 24.595703 C 41.645287 24.171292 40.311331 23.374082 39.478516 22.363281 C 38.371273 21.019405 37.953125 19.699219 37.953125 19.699219 A 1.0001 1.0001 0 0 0 36.240234 19.349609 C 36.240234 19.349609 33.048297 23.039775 27.785156 24.921875 A 1.0001 1.0001 0 0 0 27.574219 24.996094 C 25.826189 25.598585 23.858482 26 21.705078 26 C 21.184032 26 20.681393 25.984859 20.191406 25.960938 A 1.0001 1.0001 0 0 0 19.984375 25.941406 A 1.0001 1.0001 0 0 0 19.929688 25.945312 C 12.34007 25.504722 8.462441 22.232719 6.1542969 18.408203 L 6.1542969 18.40625 C 6.0498309 18.231845 5.9993275 18.041222 6 17.853516 L 6 17.851562 C 6.00127 17.707688 6.0329903 17.56414 6.0976562 17.427734 C 7.2437167 15.00792 9.6336551 11.076317 14.837891 9.1464844 A 1.0001 1.0001 0 0 0 15.285156 8.9804688 C 17.083985 8.3733877 19.201155 8 21.705078 8 z M 11.990234 14.990234 A 1.0001 1.0001 0 0 0 11.292969 16.707031 L 12.085938 17.5 L 11.292969 18.292969 A 1.0001 1.0001 0 1 0 12.707031 19.707031 L 13.5 18.914062 L 14.292969 19.707031 A 1.0001 1.0001 0 1 0 15.707031 18.292969 L 14.914062 17.5 L 15.707031 16.707031 A 1.0001 1.0001 0 0 0 14.980469 14.990234 A 1.0001 1.0001 0 0 0 14.292969 15.292969 L 13.5 16.085938 L 12.707031 15.292969 A 1.0001 1.0001 0 0 0 11.990234 14.990234 z"/></svg>