<svg xmlns="http://www.w3.org/2000/svg" width="50" height="50" fill="#000" viewBox="0 0 50 50"><path d="M 20 2 A 1.0001 1.0001 0 0 0 19.292969 2.2929688 L 17.585938 4 L 9.3867188 4 C 7.5296852 4 5.9058511 5.2896965 5.4882812 7.0996094 L 3.2050781 17 L 2 17 C 0.9069372 17 0 17.906937 0 19 L 0 23 C 0 24.093063 0.9069372 25 2 25 L 2.4785156 25 L 7.8261719 43.544922 C 8.0711719 44.388922 8.985 45 10 45 L 26 45 L 26 43 L 10 43 C 9.856 43 9.7320469 42.928281 9.7480469 42.988281 L 4.5625 25 L 45.423828 25 L 43.605469 31 L 45.697266 31 L 47.515625 25 L 48 25 C 49.093063 25 50 24.093063 50 23 L 50 19 C 50 17.906937 49.093063 17 48 17 L 46.794922 17 L 44.509766 7.0996094 C 44.0923 5.2901497 42.470315 4 40.613281 4 L 32.414062 4 L 30.707031 2.2929688 A 1.0001 1.0001 0 0 0 30 2 L 20 2 z M 20.414062 4 L 29.585938 4 L 31.292969 5.7070312 A 1.0001 1.0001 0 0 0 32 6 L 40.613281 6 C 41.550248 6 42.351965 6.638241 42.5625 7.5507812 L 44.742188 17 L 5.2578125 17 L 7.4375 7.5507812 C 7.6479301 6.6386942 8.4497521 6 9.3867188 6 L 18 6 A 1.0001 1.0001 0 0 0 18.707031 5.7070312 L 20.414062 4 z M 2 19 L 48 19 L 48 23 L 2 23 L 2 19 z M 17 28 C 16.448 28 16 28.449 16 29 L 16 38.923828 C 16 39.474828 16.448 39.923828 17 39.923828 C 17.552 39.923828 18 39.474828 18 38.923828 L 18 29 C 18 28.449 17.552 28 17 28 z M 25 28 C 24.448 28 24 28.449 24 29 L 24 38.923828 C 24 39.474828 24.448 39.923828 25 39.923828 C 25.552 39.923828 26 39.474828 26 38.923828 L 26 29 C 26 28.449 25.552 28 25 28 z M 33 28 C 32.448 28 32 28.449 32 29 L 32 31 L 34 31 L 34 29 C 34 28.449 33.552 28 33 28 z M 31 33 C 29.35503 33 28 34.35503 28 36 L 28 47 C 28 48.64497 29.35503 50 31 50 L 47 50 C 48.64497 50 50 48.64497 50 47 L 50 36 C 50 34.35503 48.64497 33 47 33 L 31 33 z M 31 35 L 47 35 C 47.56503 35 48 35.43497 48 36 L 48 38 L 30 38 L 30 36 C 30 35.43497 30.43497 35 31 35 z M 30 41 L 48 41 L 48 47 C 48 47.56503 47.56503 48 47 48 L 31 48 C 30.43497 48 30 47.56503 30 47 L 30 41 z"/></svg>