<svg xmlns="http://www.w3.org/2000/svg" width="50" height="50" fill="#000" viewBox="0 0 50 50"><path d="M 13.980469 1.9902344 A 1.0001 1.0001 0 0 0 13.523438 2.1171875 C 13.284629 2.1978589 11.426276 2.8372797 9.4199219 4.2636719 C 7.2817553 5.7837747 5 8.2521259 5 11.75 C 5 13.402778 5.3802929 14.733538 6.2050781 15.664062 C 6.4602154 15.95191 6.7551178 16.184106 7.0742188 16.375 C 7.9370741 18.902621 9.7027016 20.398303 11.576172 21.150391 C 13.127136 21.77301 14.731979 21.94047 16.117188 21.982422 C 16.049157 22.63323 16 23.299928 16 24 C 16 24.05989 16.008972 24.117939 16.009766 24.177734 L 12.289062 24.921875 C 12.029394 24.973203 11.767344 25 11.505859 25 L 7 25 A 1.0001 1.0001 0 1 0 7 27 L 11.505859 27 C 11.901729 27 12.293979 26.96119 12.679688 26.884766 A 1.0001 1.0001 0 0 0 12.681641 26.882812 L 16.179688 26.183594 C 16.276656 26.854291 16.403136 27.495896 16.554688 28.103516 A 1.0001 1.0001 0 0 0 16.466797 28.154297 L 12.613281 30.578125 C 12.050387 30.853134 11.431605 31 10.802734 31 L 8 31 A 1.0001 1.0001 0 1 0 8 33 L 10.802734 33 C 11.743059 33 12.670027 32.784008 13.511719 32.369141 A 1.0001 1.0001 0 0 0 13.601562 32.318359 L 17.140625 30.091797 C 17.440266 30.952539 17.679195 31.519237 17.861328 31.917969 C 17.763712 32.086934 17.663121 32.276768 17.572266 32.503906 C 17.271039 33.256972 17 34.388889 17 36 C 17 36.27369 17.028259 36.531989 17.041016 36.798828 C 17.02677 36.866062 17 36.928533 17 37 C 17 37.12 17.029613 37.231255 17.068359 37.337891 C 17.182155 38.790597 17.454666 40.128318 17.78125 41.341797 C 16.690974 41.91999 15 43.1148 15 45 C 15 46.475 16.122 48 18 48 C 18.969 48 19.704406 47.796906 20.566406 47.253906 C 22.005406 48.245906 23.994594 48.245906 25.433594 47.253906 C 26.296594 47.796906 27.031 48 28 48 C 28.832 48 29.505766 47.690516 30.009766 47.228516 C 29.452766 46.823516 28.921734 46.386203 28.427734 45.908203 C 28.305734 45.962203 28.169 46 28 46 C 27.292 46 26.881375 45.878172 25.984375 45.201172 C 25.590375 44.903172 25.034688 44.937109 24.679688 45.287109 C 24.188688 45.773109 23.654 46 23 46 C 22.346 46 21.812312 45.774062 21.320312 45.289062 C 20.964312 44.939062 20.407672 44.905125 20.013672 45.203125 C 19.117672 45.879125 18.708 46 18 46 C 17.267 46 17 45.402 17 45 C 17 44.106864 18.211586 43.352248 18.964844 42.992188 C 18.977287 42.992645 18.987444 43 19 43 L 26.113281 43 C 25.725281 42.362 25.377844 41.698 25.089844 41 L 19.761719 41 C 19.501793 40.05591 19.280565 39.05529 19.144531 38 L 24.230469 38 C 24.116469 37.347 24.049391 36.68 24.025391 36 L 19 36 C 19 34.611111 19.228961 33.743028 19.427734 33.246094 C 19.4814 33.111929 19.505799 33.075983 19.542969 33 L 24.230469 33 C 24.350469 32.316 24.512609 31.648 24.724609 31 L 19.646484 31 C 19.151874 29.859583 18 26.903192 18 24 C 18 23.268045 18.055334 22.577732 18.134766 21.908203 C 19.037122 22.96348 20.441993 24 22.5 24 C 24.556701 24 25.960853 22.964739 26.863281 21.910156 C 26.943844 22.579505 27 23.269811 27 24 C 27 25.107 26.830703 26.220187 26.595703 27.242188 C 27.278703 26.260188 28.083422 25.372891 28.982422 24.587891 C 28.990422 24.392891 29 24.196 29 24 C 29 23.298704 28.953368 22.632927 28.886719 21.982422 C 30.271044 21.940258 31.874357 21.772411 33.423828 21.150391 C 35.297298 20.398303 37.062926 18.902621 37.925781 16.375 C 38.244882 16.184106 38.539785 15.95191 38.794922 15.664062 C 39.619707 14.733538 40 13.402778 40 11.75 C 40 8.2521259 37.718245 5.7837747 35.580078 4.2636719 C 33.575074 2.8382392 31.719527 2.1986351 31.478516 2.1171875 A 1.0001 1.0001 0 0 0 30.990234 1.9902344 A 1.0001 1.0001 0 0 0 30.447266 2.1523438 A 1.0001 1.0001 0 0 0 30.230469 2.3398438 A 1.0001 1.0001 0 0 0 30.214844 2.359375 A 1.0001 1.0001 0 0 0 30.181641 2.4042969 A 1.0001 1.0001 0 0 0 30.158203 2.4355469 A 1.0001 1.0001 0 0 0 30.132812 2.4765625 A 1.0001 1.0001 0 0 0 30.101562 2.53125 A 1.0001 1.0001 0 0 0 30.09375 2.546875 A 1.0001 1.0001 0 0 0 30.025391 2.7226562 A 1.0001 1.0001 0 0 0 30.314453 3.7324219 C 30.334563 3.7526409 30.985316 4.4057082 31.667969 5.4296875 C 32.361068 6.4693492 33 7.8333333 33 9 C 33 10.179308 32.654871 10.896061 32.304688 11.373047 L 29.894531 6.5527344 A 1.0001 1.0001 0 0 0 29.015625 5.9882812 A 1.0001 1.0001 0 0 0 28.105469 7.4472656 L 31.105469 13.447266 C 31.167116 13.621447 31.421316 14.312406 32.011719 15.099609 C 32.675117 15.984142 33.831426 16.978947 35.458984 16.996094 C 34.760792 18.171257 33.793584 18.846975 32.677734 19.294922 C 31.386494 19.813278 29.902906 19.956453 28.576172 19.986328 C 27.55073 15.113621 24.938475 12.020521 23.755859 10.826172 C 26.038023 6.6662617 26 2 26 2 L 24 2 C 24 2 23.955162 5.5106019 22.5 8.8320312 C 21.044837 5.5106019 21 2 21 2 L 19 2 C 19 2 18.96248 6.6705791 21.248047 10.832031 C 20.077827 12.031416 17.468064 15.149855 16.433594 19.986328 C 15.104425 19.956974 13.61668 19.814552 12.322266 19.294922 C 11.206416 18.846975 10.239208 18.171257 9.5410156 16.996094 C 11.168574 16.978947 12.324883 15.984142 12.988281 15.099609 C 13.578684 14.312406 13.832884 13.621447 13.894531 13.447266 L 16.894531 7.4472656 A 1.0001 1.0001 0 0 0 15.955078 5.9882812 A 1.0001 1.0001 0 0 0 15.105469 6.5527344 L 12.695312 11.373047 C 12.345129 10.896061 12 10.179308 12 9 C 12 7.8333333 12.638924 6.469349 13.332031 5.4296875 C 14.014684 4.4057082 14.665435 3.7526406 14.685547 3.7324219 A 1.0001 1.0001 0 0 0 15.005859 2.890625 A 1.0001 1.0001 0 0 0 14.990234 2.7910156 A 1.0001 1.0001 0 0 0 14.964844 2.6933594 A 1.0001 1.0001 0 0 0 14.935547 2.6113281 A 1.0001 1.0001 0 0 0 14.931641 2.5996094 A 1.0001 1.0001 0 0 0 14.929688 2.5957031 A 1.0001 1.0001 0 0 0 14.890625 2.5175781 A 1.0001 1.0001 0 0 0 14.886719 2.5097656 A 1.0001 1.0001 0 0 0 14.875 2.4882812 A 1.0001 1.0001 0 0 0 14.857422 2.4609375 A 1.0001 1.0001 0 0 0 14.824219 2.4101562 A 1.0001 1.0001 0 0 0 14.820312 2.4042969 A 1.0001 1.0001 0 0 0 14.808594 2.390625 A 1.0001 1.0001 0 0 0 14.759766 2.3300781 A 1.0001 1.0001 0 0 0 14.757812 2.3261719 A 1.0001 1.0001 0 0 0 14.751953 2.3203125 A 1.0001 1.0001 0 0 0 14.6875 2.2558594 A 1.0001 1.0001 0 0 0 13.980469 1.9902344 z M 10.912109 5.71875 C 10.416663 6.699074 10 7.7756665 10 9 C 10 10.722222 10.596858 11.972635 11.21875 12.75 C 11.471644 13.066118 11.533009 13.031459 11.761719 13.214844 C 11.655137 13.448769 11.643673 13.557785 11.386719 13.900391 C 10.930885 14.508168 10.35 15 9.5 15 C 8.6335784 15 8.0951366 14.780411 7.7011719 14.335938 C 7.3072071 13.891462 7 13.097222 7 11.75 C 7 9.1228741 8.7182449 7.2162253 10.580078 5.8925781 C 10.745898 5.7746903 10.747479 5.8255245 10.912109 5.71875 z M 34.087891 5.71875 C 34.252521 5.8255245 34.254102 5.77469 34.419922 5.8925781 C 36.281755 7.2162253 38 9.1228741 38 11.75 C 38 13.097222 37.692793 13.891462 37.298828 14.335938 C 36.904863 14.780411 36.366422 15 35.5 15 C 34.65 15 34.069115 14.508168 33.613281 13.900391 C 33.356327 13.557785 33.344863 13.448769 33.238281 13.214844 C 33.466991 13.031459 33.528356 13.066118 33.78125 12.75 C 34.403142 11.972635 35 10.722222 35 9 C 35 7.7756665 34.583337 6.699074 34.087891 5.71875 z M 22.496094 12.402344 C 23.453736 13.417228 25.269559 15.674369 26.285156 19.091797 C 26.239051 19.224031 25.243515 22 22.5 22 C 19.740695 22 18.744183 19.183794 18.708984 19.082031 C 19.719631 15.65621 21.533194 13.41212 22.496094 12.402344 z M 38.5 23 C 31.608508 23 26 28.608508 26 35.5 C 26 42.391492 31.608508 48 38.5 48 C 42.77428 48 46.559775 45.847148 48.8125 42.566406 A 1.0001 1.0001 0 1 0 47.164062 41.433594 C 46.824372 41.9283 46.430538 42.379902 46.013672 42.808594 A 1.0001 1.0001 0 0 0 44.144531 42.484375 C 44.144531 42.484375 42.719223 44.992905 38.998047 45 C 37.256245 45.0034 36.104949 44.219862 35.267578 43.035156 C 34.430207 41.85045 34 40.23814 34 38.875 C 34 38.410179 34.03462 37.994822 34.087891 37.607422 C 35.051372 38.653223 36.480444 39.983386 38.302734 40.894531 A 1.0001163 1.0001163 0 1 0 39.197266 39.105469 C 37.185137 38.099404 35.527131 36.263326 34.816406 35.398438 C 35.020393 35.055934 35.249573 34.756873 35.496094 34.501953 C 35.629413 34.364092 35.776363 34.253806 35.919922 34.136719 C 36.872113 34.731714 39.224692 36.107934 41.720703 36.835938 A 1.0007041 1.0007041 0 1 0 42.279297 34.914062 C 40.708391 34.455883 39.146516 33.663415 38.03125 33.039062 C 38.107768 33.015758 38.189797 32.985103 38.263672 32.964844 A 1.0001 1.0001 0 0 0 38.265625 32.964844 C 41.587586 32.052933 42.912526 30.846329 43.742188 30.078125 C 44.157018 29.694023 44.407151 29.472561 44.816406 29.302734 C 45.225615 29.132907 45.858173 29 47 29 A 1.0001 1.0001 0 1 0 47 27 C 45.704327 27 44.789963 27.148343 44.050781 27.455078 C 43.311599 27.761814 42.811732 28.212227 42.382812 28.609375 C 41.524974 29.403671 40.787414 30.197067 37.734375 31.035156 C 36.672566 31.326501 35.242854 31.88867 34.058594 33.113281 C 33.602487 33.584929 33.195095 34.158232 32.863281 34.832031 A 1.0001 1.0001 0 0 0 32.623047 35.376953 C 32.23592 36.351439 32 37.510573 32 38.875 C 32 40.63686 32.504887 42.590909 33.634766 44.189453 C 33.89605 44.559116 34.199246 44.90422 34.535156 45.222656 C 31.3789 43.938313 28.998302 41.167706 28.251953 37.771484 C 28.391634 37.832806 28.52732 37.897127 28.683594 37.949219 A 1.0005646 1.0005646 0 1 0 29.316406 36.050781 C 28.732426 35.856121 28.421904 35.590093 28.244141 35.392578 C 28.066377 35.195063 28.060547 35.148438 28.060547 35.148438 A 1.0001 1.0001 0 0 0 28.021484 35.054688 C 28.124218 32.611767 29.05051 30.389704 30.539062 28.658203 C 30.883401 29.24388 31.440952 29.980915 32.349609 30.759766 A 1.0001264 1.0001264 0 0 0 33.650391 29.240234 C 32.861737 28.564246 32.439842 27.972263 32.214844 27.572266 C 32.118972 27.401826 32.076499 27.305249 32.042969 27.224609 C 33.82342 25.834792 36.059834 25 38.5 25 L 48 25 A 1.0001 1.0001 0 1 0 48 23 L 38.5 23 z M 42 25.015625 C 41.448 25.015625 41 25.463625 41 26.015625 C 41 26.568625 41.448 27 42 27 C 42.552 27 43 26.568625 43 26.015625 C 43 25.463625 42.552 25.015625 42 25.015625 z"/></svg>