<svg xmlns="http://www.w3.org/2000/svg" width="50" height="50" fill="#000" viewBox="0 0 50 50"><path d="M 37.46875 7 C 34.832031 7 32.648438 7.914063 31.1875 9.4375 C 29.726563 10.960938 29 13.050781 29 15.3125 C 29 18.597656 31.714844 22 36.0625 22 C 37.1875 22 38.140625 21.519531 38.84375 20.96875 C 39.195313 20.695313 39.464844 20.394531 39.6875 20.0625 C 39.796875 19.894531 39.90625 19.703125 39.96875 19.46875 C 40.03125 19.234375 40.085938 18.921875 39.90625 18.5625 C 39.90625 18.550781 39.90625 18.542969 39.90625 18.53125 C 39.625 17.976563 39.054688 17.851563 38.71875 17.8125 C 38.382813 17.773438 38.085938 17.8125 37.78125 17.84375 C 37.167969 17.90625 36.519531 18 36 18 C 34.984375 18 34.652344 17.679688 34.375 17.21875 C 34.097656 16.757813 34 16.066406 34 15.625 C 34 15.339844 34.167969 14.617188 34.65625 14.0625 C 35.144531 13.507813 35.933594 13 37.46875 13 C 38.960938 13 39.988281 13.761719 40.78125 15 C 41.574219 16.238281 42 17.953125 42 19.5 C 42 23.230469 39.757813 26 36 26 C 32.742188 26 29.800781 23.910156 28.25 22.0625 C 28.238281 22.050781 28.230469 22.042969 28.21875 22.03125 C 28.175781 21.707031 28.085938 21.371094 27.9375 21.09375 C 27.59375 20.445313 27.035156 19.910156 26.3125 19.5625 C 25.769531 19.300781 25.183594 19.183594 24.625 19.1875 C 24.519531 19.1875 24.417969 19.214844 24.3125 19.21875 C 23.699219 18.71875 22.992188 18.476563 22.375 18.3125 C 21.902344 18.1875 21.523438 18.15625 21.25 18.125 C 20.691406 17.480469 19.800781 17.09375 18.875 17.09375 C 18.046875 17.09375 17.257813 17.414063 16.6875 17.9375 C 16.65625 17.9375 16.625 17.9375 16.59375 17.9375 C 15.714844 18.011719 14.929688 18.230469 14.28125 18.5 C 13.824219 18.691406 13.46875 18.867188 13.15625 19.09375 C 12.992188 19.0625 12.824219 19.035156 12.65625 19.03125 C 12.050781 19.011719 11.410156 19.167969 10.84375 19.46875 C 9.800781 20.027344 9.101563 21.050781 9.03125 22.125 C 8.175781 22.933594 7.738281 23.789063 7.5 24.375 C 6.460938 24.59375 5.539063 25.390625 5.09375 26.46875 C 4.625 27.597656 4.746094 28.878906 5.40625 29.78125 C 5.25 30.257813 5.015625 30.984375 4.84375 31.71875 C 3.539063 32.15625 2.6875 33.589844 2.6875 35.09375 C 2.6875 36.277344 3.234375 37.390625 4.09375 38.03125 L 4 40.96875 C 3.984375 41.519531 4.417969 41.984375 4.96875 42 C 5.519531 42.015625 5.984375 41.582031 6 41.03125 L 6.0625 38.5625 C 7.628906 38.335938 8.6875 36.769531 8.6875 35.09375 C 8.6875 33.722656 7.984375 32.425781 6.875 31.875 C 6.980469 31.472656 7.050781 31.210938 7.15625 30.84375 C 8.554688 31.050781 9.953125 30.117188 10.53125 28.71875 C 11.132813 27.265625 10.75 25.558594 9.5 24.75 C 9.585938 24.585938 9.699219 24.410156 9.84375 24.21875 C 10.792969 25.132813 12.34375 25.261719 13.59375 24.59375 C 15.105469 23.789063 15.925781 21.96875 15.125 20.46875 C 15.109375 20.4375 15.082031 20.40625 15.0625 20.375 C 15.3125 20.269531 15.605469 20.171875 15.90625 20.09375 C 16.136719 21.425781 17.480469 22.3125 18.875 22.3125 C 20.214844 22.3125 21.484375 21.496094 21.78125 20.25 C 21.804688 20.257813 21.820313 20.242188 21.84375 20.25 C 22.019531 20.296875 22.207031 20.367188 22.375 20.4375 C 22.347656 20.484375 22.304688 20.515625 22.28125 20.5625 C 21.929688 21.292969 22.03125 22.101563 22.375 22.75 C 22.71875 23.398438 23.308594 23.933594 24.03125 24.28125 C 24.753906 24.628906 25.527344 24.730469 26.25 24.59375 C 26.660156 24.515625 27.066406 24.355469 27.40625 24.09375 C 27.648438 24.34375 27.910156 24.570313 28.1875 24.8125 C 28.019531 25.464844 28.386719 26.28125 29.15625 26.78125 C 29.910156 27.273438 30.78125 27.296875 31.3125 26.90625 C 31.703125 27.089844 32.113281 27.261719 32.53125 27.40625 C 32.539063 28.058594 33.1875 28.671875 34.0625 28.8125 C 34.925781 28.953125 35.714844 28.597656 35.9375 28 C 35.957031 28 35.980469 28 36 28 C 36.714844 28 37.394531 27.914063 38.03125 27.75 C 38.058594 27.847656 38.09375 27.945313 38.15625 28.03125 C 38.539063 28.558594 39.417969 28.601563 40.125 28.09375 C 40.757813 27.636719 41.035156 26.90625 40.8125 26.375 C 41.257813 26.027344 41.671875 25.625 42.03125 25.1875 C 42.109375 25.257813 42.179688 25.304688 42.28125 25.34375 C 42.851563 25.566406 43.578125 25.136719 43.875 24.375 C 44.152344 23.664063 43.957031 22.933594 43.46875 22.65625 C 43.632813 22.195313 43.753906 21.710938 43.84375 21.21875 C 43.855469 21.21875 43.863281 21.21875 43.875 21.21875 C 44.316406 21.238281 44.695313 20.777344 44.71875 20.1875 C 44.742188 19.613281 44.394531 19.132813 43.96875 19.09375 C 43.945313 18.484375 43.871094 17.863281 43.75 17.25 C 44.175781 17.128906 44.382813 16.566406 44.21875 16 C 44.054688 15.433594 43.582031 15.066406 43.15625 15.1875 C 42.964844 14.742188 42.726563 14.3125 42.46875 13.90625 C 41.417969 12.257813 39.6875 11 37.46875 11 C 35.460938 11 34.011719 11.746094 33.15625 12.71875 C 32.300781 13.691406 32 14.792969 32 15.625 C 32 16.300781 32.085938 17.300781 32.65625 18.25 C 33.0625 18.925781 33.792969 19.507813 34.75 19.78125 C 32.304688 19.222656 31 17.195313 31 15.3125 C 31 13.480469 31.566406 11.917969 32.625 10.8125 C 33.683594 9.707031 35.277344 9 37.46875 9 C 39.992188 9 42.414063 10.199219 44.03125 12.5 C 43.917969 12.441406 43.808594 12.410156 43.6875 12.4375 C 43.355469 12.507813 43.1875 12.933594 43.28125 13.375 C 43.375 13.816406 43.699219 14.101563 44.03125 14.03125 C 44.355469 13.960938 44.546875 13.554688 44.46875 13.125 C 44.953125 13.945313 45.328125 14.882813 45.59375 15.9375 C 45.203125 16.023438 44.949219 16.507813 45.0625 17.03125 C 45.167969 17.511719 45.542969 17.855469 45.90625 17.84375 C 45.957031 18.339844 46 18.839844 46 19.375 C 46 19.394531 46 19.417969 46 19.4375 C 45.601563 19.464844 45.273438 19.898438 45.25 20.4375 C 45.230469 20.972656 45.519531 21.402344 45.90625 21.46875 C 45.820313 22.367188 45.667969 23.28125 45.4375 24.1875 C 45.355469 24.179688 45.273438 24.175781 45.1875 24.1875 C 44.734375 24.253906 44.285156 24.648438 44.0625 25.21875 C 43.796875 25.90625 43.957031 26.640625 44.40625 26.9375 C 44.277344 27.1875 44.148438 27.449219 44 27.6875 C 43.722656 28.125 43.410156 28.546875 43.0625 28.9375 C 42.871094 28.671875 42.574219 28.539063 42.21875 28.53125 C 41.863281 28.523438 41.445313 28.652344 41.09375 28.90625 C 40.386719 29.414063 40.148438 30.253906 40.53125 30.78125 C 40.546875 30.804688 40.574219 30.820313 40.59375 30.84375 C 39.875 31.207031 39.0625 31.519531 38.125 31.71875 C 38.125 31.699219 38.125 31.675781 38.125 31.65625 C 38.117188 31.003906 37.402344 30.492188 36.53125 30.5 C 35.660156 30.507813 34.960938 31.035156 34.96875 31.6875 C 34.96875 31.792969 34.996094 31.902344 35.03125 32 C 35.019531 32 35.011719 32 35 32 C 34.292969 32 33.660156 31.941406 33.0625 31.875 C 33.273438 31.199219 32.742188 30.433594 31.84375 30.125 C 31.503906 30.007813 31.183594 29.957031 30.875 30 C 30.359375 30.070313 29.929688 30.355469 29.78125 30.78125 C 29.75 30.867188 29.726563 30.941406 29.71875 31.03125 C 28.949219 30.695313 28.300781 30.300781 27.71875 29.875 C 27.898438 29.78125 28.046875 29.636719 28.15625 29.46875 C 28.597656 28.789063 28.25 27.746094 27.34375 27.15625 C 26.890625 26.859375 26.378906 26.753906 25.9375 26.78125 C 25.496094 26.808594 25.097656 26.972656 24.875 27.3125 C 24.855469 27.339844 24.859375 27.378906 24.84375 27.40625 C 24.820313 27.386719 24.804688 27.363281 24.78125 27.34375 C 24.375 27.011719 23.953125 26.710938 23.46875 26.46875 C 23.558594 26.21875 23.625 25.941406 23.625 25.65625 C 23.625 24.128906 22.257813 23.03125 20.75 23.03125 C 19.242188 23.03125 17.84375 24.128906 17.84375 25.65625 C 17.84375 25.941406 17.910156 26.21875 18 26.46875 C 17.703125 26.648438 17.449219 26.886719 17.25 27.125 C 17.042969 27.097656 16.828125 27.105469 16.625 27.125 C 15.460938 27.230469 14.414063 28.089844 13.96875 29.28125 C 13.523438 30.472656 13.753906 31.8125 14.5625 32.65625 C 14.519531 32.84375 14.472656 33.027344 14.4375 33.21875 C 12.820313 33.273438 11.625 34.734375 11.625 36.375 C 11.625 37.859375 12.613281 39.1875 14 39.46875 L 14 41 C 13.996094 41.359375 14.183594 41.695313 14.496094 41.878906 C 14.808594 42.058594 15.191406 42.058594 15.503906 41.878906 C 15.816406 41.695313 16.003906 41.359375 16 41 L 16 39.09375 C 16.882813 38.535156 17.46875 37.5 17.46875 36.375 C 17.46875 35.410156 17.023438 34.527344 16.34375 33.9375 C 16.371094 33.777344 16.40625 33.625 16.4375 33.46875 C 17.722656 33.5 18.921875 32.609375 19.40625 31.3125 C 19.804688 30.242188 19.652344 29.0625 19.03125 28.21875 C 19.144531 28.152344 19.277344 28.09375 19.4375 28.09375 C 19.433594 28.09375 19.523438 28.085938 19.6875 28.09375 C 20.023438 28.214844 20.382813 28.28125 20.75 28.28125 C 21.167969 28.28125 21.566406 28.183594 21.9375 28.03125 C 22.46875 28.144531 22.953125 28.429688 23.53125 28.90625 C 24.179688 29.4375 24.910156 30.171875 25.84375 30.9375 C 27.707031 32.464844 30.433594 34 35 34 C 40.402344 34 43.8125 31.757813 45.6875 28.78125 C 47.5625 25.804688 48 22.203125 48 19.375 C 48 11.78125 42.996094 7 37.46875 7 Z M 18.875 19.09375 C 19.53125 19.09375 19.84375 19.46875 19.84375 19.6875 C 19.84375 19.90625 19.53125 20.3125 18.875 20.3125 C 18.21875 20.3125 17.875 19.90625 17.875 19.6875 C 17.875 19.46875 18.21875 19.09375 18.875 19.09375 Z M 12.3125 21.03125 C 12.804688 20.949219 13.199219 21.136719 13.34375 21.40625 C 13.535156 21.765625 13.367188 22.433594 12.65625 22.8125 C 11.945313 23.191406 11.285156 22.984375 11.09375 22.625 C 10.902344 22.265625 11.101563 21.597656 11.8125 21.21875 C 11.992188 21.125 12.148438 21.058594 12.3125 21.03125 Z M 24.5625 21.21875 C 24.804688 21.195313 25.121094 21.222656 25.4375 21.375 C 25.800781 21.550781 26.039063 21.8125 26.15625 22.03125 C 26.273438 22.25 26.253906 22.367188 26.21875 22.4375 C 26.183594 22.507813 26.121094 22.578125 25.875 22.625 C 25.628906 22.671875 25.269531 22.644531 24.90625 22.46875 C 24.542969 22.292969 24.273438 22.03125 24.15625 21.8125 C 24.039063 21.59375 24.058594 21.476563 24.09375 21.40625 C 24.101563 21.386719 24.109375 21.359375 24.125 21.34375 C 24.128906 21.339844 24.148438 21.347656 24.15625 21.34375 C 24.300781 21.332031 24.4375 21.289063 24.5625 21.21875 Z M 20.75 25.03125 C 21.332031 25.03125 21.625 25.390625 21.625 25.65625 C 21.625 25.921875 21.332031 26.28125 20.75 26.28125 C 20.167969 26.28125 19.84375 25.921875 19.84375 25.65625 C 19.84375 25.390625 20.167969 25.03125 20.75 25.03125 Z M 8 26.3125 C 8.121094 26.296875 8.21875 26.304688 8.3125 26.34375 C 8.695313 26.5 8.980469 27.183594 8.65625 27.96875 C 8.332031 28.753906 7.664063 29 7.28125 28.84375 C 6.898438 28.6875 6.613281 28.035156 6.9375 27.25 C 7.179688 26.660156 7.632813 26.355469 8 26.3125 Z M 16.78125 29.125 C 16.878906 29.113281 16.972656 29.132813 17.0625 29.15625 C 17.15625 29.226563 17.261719 29.277344 17.375 29.3125 C 17.628906 29.5625 17.742188 30.03125 17.53125 30.59375 C 17.261719 31.316406 16.675781 31.585938 16.28125 31.4375 C 15.886719 31.289063 15.574219 30.691406 15.84375 29.96875 C 16.046875 29.429688 16.429688 29.167969 16.78125 29.125 Z M 5.6875 33.59375 C 6.117188 33.59375 6.6875 34.144531 6.6875 35.09375 C 6.6875 36.042969 6.117188 36.59375 5.6875 36.59375 C 5.257813 36.59375 4.6875 36.042969 4.6875 35.09375 C 4.6875 34.144531 5.257813 33.59375 5.6875 33.59375 Z M 14.53125 35.21875 C 14.550781 35.21875 14.574219 35.21875 14.59375 35.21875 C 14.605469 35.21875 14.613281 35.25 14.625 35.25 C 14.746094 35.34375 14.882813 35.40625 15.03125 35.4375 C 15.273438 35.628906 15.46875 35.9375 15.46875 36.375 C 15.46875 37.097656 14.972656 37.53125 14.53125 37.53125 C 14.089844 37.53125 13.625 37.097656 13.625 36.375 C 13.625 35.652344 14.089844 35.21875 14.53125 35.21875 Z"/></svg>