<?xml version="1.0" encoding="UTF-8" standalone="no"?>
<!DOCTYPE svg PUBLIC "-//W3C//DTD SVG 1.1//EN" "http://www.w3.org/Graphics/SVG/1.1/DTD/svg11.dtd">
<svg width="100%" height="100%" viewBox="0 0 50 50" version="1.1" xmlns="http://www.w3.org/2000/svg" xmlns:xlink="http://www.w3.org/1999/xlink" xml:space="preserve" xmlns:serif="http://www.serif.com/" style="fill-rule:evenodd;clip-rule:evenodd;stroke-linejoin:round;stroke-miterlimit:2;">
    <path d="M12,2C8.698,2 6,4.698 6,8L6,42.418C6,45.592 8.832,48 12,48L44,48L44,46L12,46C9.842,46 8,44.378 8,42.418C8,40.458 9.8,39 12,39L44,39L44,2L12,2ZM12,4L42,4L42,37L12,37C10.507,37 9.092,37.538 8,38.418L8,8C8,5.78 9.78,4 12,4Z" style="fill-rule:nonzero;"/>
    <g transform="matrix(0.450761,0,0,0.450761,14.1043,9.69252)">
        <path d="M28.781,0C28.328,0.082 27.992,0.461 27.961,0.918C27.93,1.379 28.219,1.797 28.656,1.938C28.656,1.938 29.063,2.047 29.594,2.75C30.113,3.438 30.656,4.672 30.5,7C29.695,7.813 28.895,8.711 28.156,9.719C27.895,10 27.816,10.406 27.953,10.762C28.094,11.121 28.422,11.371 28.809,11.398C29.191,11.43 29.555,11.238 29.75,10.906C35.395,3.23 43.75,2 43.75,2C44.301,1.922 44.688,1.41 44.609,0.859C44.531,0.309 44.02,-0.078 43.469,0C43.469,0 37.855,0.852 32.469,5.219C32.305,3.559 31.797,2.363 31.188,1.563C30.348,0.453 29.281,0.063 29.281,0.063C29.121,0 28.949,-0.023 28.781,0ZM21,6C17.699,6 15,8.699 15,12C15,15.301 17.699,18 21,18C24.301,18 27,15.301 27,12C27,8.699 24.301,6 21,6ZM21,8C23.223,8 25,9.777 25,12C25,14.223 23.223,16 21,16C18.777,16 17,14.223 17,12C17,9.777 18.777,8 21,8ZM33,11C29.699,11 27,13.699 27,17C27,20.301 29.699,23 33,23C36.301,23 39,20.301 39,17C39,13.699 36.301,11 33,11ZM33,13C35.223,13 37,14.777 37,17C37,19.223 35.223,21 33,21C30.777,21 29,19.223 29,17C29,14.777 30.777,13 33,13ZM12,14C8.699,14 6,16.699 6,20C6,23.301 8.699,26 12,26C15.301,26 18,23.301 18,20C18,16.699 15.301,14 12,14ZM12,16C14.223,16 16,17.777 16,20C16,22.223 14.223,24 12,24C9.777,24 8,22.223 8,20C8,17.777 9.777,16 12,16ZM23,19C19.699,19 17,21.699 17,25C17,28.301 19.699,31 23,31C26.301,31 29,28.301 29,25C29,21.699 26.301,19 23,19ZM23,21C25.223,21 27,22.777 27,25C27,27.223 25.223,29 23,29C20.777,29 19,27.223 19,25C19,22.777 20.777,21 23,21ZM35,23C31.699,23 29,25.699 29,29C29,32.301 31.699,35 35,35C38.301,35 41,32.301 41,29C41,25.699 38.301,23 35,23ZM35,25C37.223,25 39,26.777 39,29C39,31.223 37.223,33 35,33C32.777,33 31,31.223 31,29C31,26.777 32.777,25 35,25ZM13,26C9.699,26 7,28.699 7,32C7,35.301 9.699,38 13,38C16.301,38 19,35.301 19,32C19,28.699 16.301,26 13,26ZM13,28C15.223,28 17,29.777 17,32C17,34.223 15.223,36 13,36C10.777,36 9,34.223 9,32C9,29.777 10.777,28 13,28ZM25,31C21.699,31 19,33.699 19,37C19,40.301 21.699,43 25,43C28.301,43 31,40.301 31,37C31,33.699 28.301,31 25,31ZM25,33C27.223,33 29,34.777 29,37C29,39.223 27.223,41 25,41C22.777,41 21,39.223 21,37C21,34.777 22.777,33 25,33ZM15,38C11.699,38 9,40.699 9,44C9,47.301 11.699,50 15,50C18.301,50 21,47.301 21,44C21,40.699 18.301,38 15,38ZM15,40C17.223,40 19,41.777 19,44C19,46.223 17.223,48 15,48C12.777,48 11,46.223 11,44C11,41.777 12.777,40 15,40Z" style="fill-rule:nonzero;stroke:black;stroke-width:1.38px;"/>
    </g>
</svg>
