<svg xmlns="http://www.w3.org/2000/svg" width="933.333" height="933.333" preserveAspectRatio="xMidYMid meet" version="1.0" viewBox="0 0 700 700"><metadata>Created by potrace 1.11, written by Peter Selinger 2001-2013</metadata><g fill="#000" stroke="none"><path d="M0 3500 l0 -3500 3500 0 3500 0 0 3500 0 3500 -3500 0 -3500 0 0 -3500z m2780 1035 c348 -927 636 -1685 639 -1685 3 0 292 758 641 1685 l635 1685 287 0 288 0 -20 -52 c-11 -29 -357 -937 -769 -2018 l-749 -1965 -312 0 -311 0 -770 2015 c-423 1108 -769 2016 -769 2018 0 1 130 2 288 2 l288 0 634 -1685z m1050 -3415 l0 -300 -305 0 -305 0 0 300 0 300 305 0 305 0 0 -300z" transform="translate(0.000000,700.000000) scale(0.100000,-0.100000)"/></g></svg>